<?xml version="1.0" encoding="utf-8" standalone="no"?>
<!DOCTYPE svg PUBLIC "-//W3C//DTD SVG 1.1//EN"
  "http://www.w3.org/Graphics/SVG/1.1/DTD/svg11.dtd">
<svg xmlns:xlink="http://www.w3.org/1999/xlink" width="1290.322683pt" height="424.329687pt" viewBox="0 0 1290.322683 424.329687" xmlns="http://www.w3.org/2000/svg" version="1.1">
 <metadata>
  <rdf:RDF xmlns:dc="http://purl.org/dc/elements/1.1/" xmlns:cc="http://creativecommons.org/ns#" xmlns:rdf="http://www.w3.org/1999/02/22-rdf-syntax-ns#">
   <cc:Work>
    <dc:type rdf:resource="http://purl.org/dc/dcmitype/StillImage"/>
    <dc:date>2025-11-29T08:04:43.580904</dc:date>
    <dc:format>image/svg+xml</dc:format>
    <dc:creator>
     <cc:Agent>
      <dc:title>Matplotlib v3.10.7, https://matplotlib.org/</dc:title>
     </cc:Agent>
    </dc:creator>
   </cc:Work>
  </rdf:RDF>
 </metadata>
 <defs>
  <style type="text/css">*{stroke-linejoin: round; stroke-linecap: butt}</style>
 </defs>
 <g id="figure_1">
  <g id="patch_1">
   <path d="M 0 424.329687 
L 1290.322683 424.329687 
L 1290.322683 0 
L 0 0 
z
" style="fill: #ffffff"/>
  </g>
  <g id="axes_1">
   <g id="patch_2">
    <path d="M 89.449688 388.337812 
L 410.271363 388.337812 
L 410.271363 23.837812 
L 89.449688 23.837812 
z
" style="fill: #ffffff"/>
   </g>
   <g id="matplotlib.axis_1">
    <g id="xtick_1">
     <g id="line2d_1">
      <path d="M 104.032491 388.337812 
L 104.032491 23.837812 
" clip-path="url(#p9e9656f883)" style="fill: none; stroke: #cccccc; stroke-opacity: 0.3; stroke-width: 0.8; stroke-linecap: round"/>
     </g>
     <g id="line2d_2"/>
     <g id="text_1">
      <!-- $0k -->
      <g style="fill: #262626" transform="translate(94.774678 399.43625) scale(0.1 -0.1)">
       <defs>
        <path id="DejaVuSans-24" d="M 2163 -941 
L 1850 -941 
L 1847 0 
Q 1519 6 1191 76 
Q 863 147 531 288 
L 531 850 
Q 850 650 1176 548 
Q 1503 447 1850 444 
L 1850 1869 
Q 1159 1981 845 2250 
Q 531 2519 531 2988 
Q 531 3497 872 3790 
Q 1213 4084 1850 4128 
L 1850 4863 
L 2163 4863 
L 2163 4138 
Q 2453 4125 2725 4076 
Q 2997 4028 3256 3944 
L 3256 3397 
Q 2997 3528 2723 3600 
Q 2450 3672 2163 3684 
L 2163 2350 
Q 2872 2241 3206 1959 
Q 3541 1678 3541 1191 
Q 3541 663 3186 358 
Q 2831 53 2163 6 
L 2163 -941 
z
M 1850 2406 
L 1850 3688 
Q 1488 3647 1297 3481 
Q 1106 3316 1106 3041 
Q 1106 2772 1282 2622 
Q 1459 2472 1850 2406 
z
M 2163 1806 
L 2163 453 
Q 2559 506 2761 678 
Q 2963 850 2963 1131 
Q 2963 1406 2770 1568 
Q 2578 1731 2163 1806 
z
" transform="scale(0.015625)"/>
        <path id="DejaVuSans-30" d="M 2034 4250 
Q 1547 4250 1301 3770 
Q 1056 3291 1056 2328 
Q 1056 1369 1301 889 
Q 1547 409 2034 409 
Q 2525 409 2770 889 
Q 3016 1369 3016 2328 
Q 3016 3291 2770 3770 
Q 2525 4250 2034 4250 
z
M 2034 4750 
Q 2819 4750 3233 4129 
Q 3647 3509 3647 2328 
Q 3647 1150 3233 529 
Q 2819 -91 2034 -91 
Q 1250 -91 836 529 
Q 422 1150 422 2328 
Q 422 3509 836 4129 
Q 1250 4750 2034 4750 
z
" transform="scale(0.015625)"/>
        <path id="DejaVuSans-6b" d="M 581 4863 
L 1159 4863 
L 1159 1991 
L 2875 3500 
L 3609 3500 
L 1753 1863 
L 3688 0 
L 2938 0 
L 1159 1709 
L 1159 0 
L 581 0 
L 581 4863 
z
" transform="scale(0.015625)"/>
       </defs>
       <use xlink:href="#DejaVuSans-24"/>
       <use xlink:href="#DejaVuSans-30" transform="translate(63.623047 0)"/>
       <use xlink:href="#DejaVuSans-6b" transform="translate(127.246094 0)"/>
      </g>
     </g>
    </g>
    <g id="xtick_2">
     <g id="line2d_3">
      <path d="M 162.363705 388.337812 
L 162.363705 23.837812 
" clip-path="url(#p9e9656f883)" style="fill: none; stroke: #cccccc; stroke-opacity: 0.3; stroke-width: 0.8; stroke-linecap: round"/>
     </g>
     <g id="line2d_4"/>
     <g id="text_2">
      <!-- $20k -->
      <g style="fill: #262626" transform="translate(149.924642 399.43625) scale(0.1 -0.1)">
       <defs>
        <path id="DejaVuSans-32" d="M 1228 531 
L 3431 531 
L 3431 0 
L 469 0 
L 469 531 
Q 828 903 1448 1529 
Q 2069 2156 2228 2338 
Q 2531 2678 2651 2914 
Q 2772 3150 2772 3378 
Q 2772 3750 2511 3984 
Q 2250 4219 1831 4219 
Q 1534 4219 1204 4116 
Q 875 4013 500 3803 
L 500 4441 
Q 881 4594 1212 4672 
Q 1544 4750 1819 4750 
Q 2544 4750 2975 4387 
Q 3406 4025 3406 3419 
Q 3406 3131 3298 2873 
Q 3191 2616 2906 2266 
Q 2828 2175 2409 1742 
Q 1991 1309 1228 531 
z
" transform="scale(0.015625)"/>
       </defs>
       <use xlink:href="#DejaVuSans-24"/>
       <use xlink:href="#DejaVuSans-32" transform="translate(63.623047 0)"/>
       <use xlink:href="#DejaVuSans-30" transform="translate(127.246094 0)"/>
       <use xlink:href="#DejaVuSans-6b" transform="translate(190.869141 0)"/>
      </g>
     </g>
    </g>
    <g id="xtick_3">
     <g id="line2d_5">
      <path d="M 220.694918 388.337812 
L 220.694918 23.837812 
" clip-path="url(#p9e9656f883)" style="fill: none; stroke: #cccccc; stroke-opacity: 0.3; stroke-width: 0.8; stroke-linecap: round"/>
     </g>
     <g id="line2d_6"/>
     <g id="text_3">
      <!-- $40k -->
      <g style="fill: #262626" transform="translate(208.255856 399.43625) scale(0.1 -0.1)">
       <defs>
        <path id="DejaVuSans-34" d="M 2419 4116 
L 825 1625 
L 2419 1625 
L 2419 4116 
z
M 2253 4666 
L 3047 4666 
L 3047 1625 
L 3713 1625 
L 3713 1100 
L 3047 1100 
L 3047 0 
L 2419 0 
L 2419 1100 
L 313 1100 
L 313 1709 
L 2253 4666 
z
" transform="scale(0.015625)"/>
       </defs>
       <use xlink:href="#DejaVuSans-24"/>
       <use xlink:href="#DejaVuSans-34" transform="translate(63.623047 0)"/>
       <use xlink:href="#DejaVuSans-30" transform="translate(127.246094 0)"/>
       <use xlink:href="#DejaVuSans-6b" transform="translate(190.869141 0)"/>
      </g>
     </g>
    </g>
    <g id="xtick_4">
     <g id="line2d_7">
      <path d="M 279.026132 388.337812 
L 279.026132 23.837812 
" clip-path="url(#p9e9656f883)" style="fill: none; stroke: #cccccc; stroke-opacity: 0.3; stroke-width: 0.8; stroke-linecap: round"/>
     </g>
     <g id="line2d_8"/>
     <g id="text_4">
      <!-- $60k -->
      <g style="fill: #262626" transform="translate(266.58707 399.43625) scale(0.1 -0.1)">
       <defs>
        <path id="DejaVuSans-36" d="M 2113 2584 
Q 1688 2584 1439 2293 
Q 1191 2003 1191 1497 
Q 1191 994 1439 701 
Q 1688 409 2113 409 
Q 2538 409 2786 701 
Q 3034 994 3034 1497 
Q 3034 2003 2786 2293 
Q 2538 2584 2113 2584 
z
M 3366 4563 
L 3366 3988 
Q 3128 4100 2886 4159 
Q 2644 4219 2406 4219 
Q 1781 4219 1451 3797 
Q 1122 3375 1075 2522 
Q 1259 2794 1537 2939 
Q 1816 3084 2150 3084 
Q 2853 3084 3261 2657 
Q 3669 2231 3669 1497 
Q 3669 778 3244 343 
Q 2819 -91 2113 -91 
Q 1303 -91 875 529 
Q 447 1150 447 2328 
Q 447 3434 972 4092 
Q 1497 4750 2381 4750 
Q 2619 4750 2861 4703 
Q 3103 4656 3366 4563 
z
" transform="scale(0.015625)"/>
       </defs>
       <use xlink:href="#DejaVuSans-24"/>
       <use xlink:href="#DejaVuSans-36" transform="translate(63.623047 0)"/>
       <use xlink:href="#DejaVuSans-30" transform="translate(127.246094 0)"/>
       <use xlink:href="#DejaVuSans-6b" transform="translate(190.869141 0)"/>
      </g>
     </g>
    </g>
    <g id="xtick_5">
     <g id="line2d_9">
      <path d="M 337.357346 388.337812 
L 337.357346 23.837812 
" clip-path="url(#p9e9656f883)" style="fill: none; stroke: #cccccc; stroke-opacity: 0.3; stroke-width: 0.8; stroke-linecap: round"/>
     </g>
     <g id="line2d_10"/>
     <g id="text_5">
      <!-- $80k -->
      <g style="fill: #262626" transform="translate(324.918283 399.43625) scale(0.1 -0.1)">
       <defs>
        <path id="DejaVuSans-38" d="M 2034 2216 
Q 1584 2216 1326 1975 
Q 1069 1734 1069 1313 
Q 1069 891 1326 650 
Q 1584 409 2034 409 
Q 2484 409 2743 651 
Q 3003 894 3003 1313 
Q 3003 1734 2745 1975 
Q 2488 2216 2034 2216 
z
M 1403 2484 
Q 997 2584 770 2862 
Q 544 3141 544 3541 
Q 544 4100 942 4425 
Q 1341 4750 2034 4750 
Q 2731 4750 3128 4425 
Q 3525 4100 3525 3541 
Q 3525 3141 3298 2862 
Q 3072 2584 2669 2484 
Q 3125 2378 3379 2068 
Q 3634 1759 3634 1313 
Q 3634 634 3220 271 
Q 2806 -91 2034 -91 
Q 1263 -91 848 271 
Q 434 634 434 1313 
Q 434 1759 690 2068 
Q 947 2378 1403 2484 
z
M 1172 3481 
Q 1172 3119 1398 2916 
Q 1625 2713 2034 2713 
Q 2441 2713 2670 2916 
Q 2900 3119 2900 3481 
Q 2900 3844 2670 4047 
Q 2441 4250 2034 4250 
Q 1625 4250 1398 4047 
Q 1172 3844 1172 3481 
z
" transform="scale(0.015625)"/>
       </defs>
       <use xlink:href="#DejaVuSans-24"/>
       <use xlink:href="#DejaVuSans-38" transform="translate(63.623047 0)"/>
       <use xlink:href="#DejaVuSans-30" transform="translate(127.246094 0)"/>
       <use xlink:href="#DejaVuSans-6b" transform="translate(190.869141 0)"/>
      </g>
     </g>
    </g>
    <g id="xtick_6">
     <g id="line2d_11">
      <path d="M 395.68856 388.337812 
L 395.68856 23.837812 
" clip-path="url(#p9e9656f883)" style="fill: none; stroke: #cccccc; stroke-opacity: 0.3; stroke-width: 0.8; stroke-linecap: round"/>
     </g>
     <g id="line2d_12"/>
     <g id="text_6">
      <!-- $100k -->
      <g style="fill: #262626" transform="translate(380.068247 399.43625) scale(0.1 -0.1)">
       <defs>
        <path id="DejaVuSans-31" d="M 794 531 
L 1825 531 
L 1825 4091 
L 703 3866 
L 703 4441 
L 1819 4666 
L 2450 4666 
L 2450 531 
L 3481 531 
L 3481 0 
L 794 0 
L 794 531 
z
" transform="scale(0.015625)"/>
       </defs>
       <use xlink:href="#DejaVuSans-24"/>
       <use xlink:href="#DejaVuSans-31" transform="translate(63.623047 0)"/>
       <use xlink:href="#DejaVuSans-30" transform="translate(127.246094 0)"/>
       <use xlink:href="#DejaVuSans-30" transform="translate(190.869141 0)"/>
       <use xlink:href="#DejaVuSans-6b" transform="translate(254.492188 0)"/>
      </g>
     </g>
    </g>
    <g id="text_7">
     <!-- Willingness-to-Pay Threshold ($) -->
     <g style="fill: #262626" transform="translate(153.118025 414.634062) scale(0.12 -0.12)">
      <defs>
       <path id="DejaVuSans-57" d="M 213 4666 
L 850 4666 
L 1831 722 
L 2809 4666 
L 3519 4666 
L 4500 722 
L 5478 4666 
L 6119 4666 
L 4947 0 
L 4153 0 
L 3169 4050 
L 2175 0 
L 1381 0 
L 213 4666 
z
" transform="scale(0.015625)"/>
       <path id="DejaVuSans-69" d="M 603 3500 
L 1178 3500 
L 1178 0 
L 603 0 
L 603 3500 
z
M 603 4863 
L 1178 4863 
L 1178 4134 
L 603 4134 
L 603 4863 
z
" transform="scale(0.015625)"/>
       <path id="DejaVuSans-6c" d="M 603 4863 
L 1178 4863 
L 1178 0 
L 603 0 
L 603 4863 
z
" transform="scale(0.015625)"/>
       <path id="DejaVuSans-6e" d="M 3513 2113 
L 3513 0 
L 2938 0 
L 2938 2094 
Q 2938 2591 2744 2837 
Q 2550 3084 2163 3084 
Q 1697 3084 1428 2787 
Q 1159 2491 1159 1978 
L 1159 0 
L 581 0 
L 581 3500 
L 1159 3500 
L 1159 2956 
Q 1366 3272 1645 3428 
Q 1925 3584 2291 3584 
Q 2894 3584 3203 3211 
Q 3513 2838 3513 2113 
z
" transform="scale(0.015625)"/>
       <path id="DejaVuSans-67" d="M 2906 1791 
Q 2906 2416 2648 2759 
Q 2391 3103 1925 3103 
Q 1463 3103 1205 2759 
Q 947 2416 947 1791 
Q 947 1169 1205 825 
Q 1463 481 1925 481 
Q 2391 481 2648 825 
Q 2906 1169 2906 1791 
z
M 3481 434 
Q 3481 -459 3084 -895 
Q 2688 -1331 1869 -1331 
Q 1566 -1331 1297 -1286 
Q 1028 -1241 775 -1147 
L 775 -588 
Q 1028 -725 1275 -790 
Q 1522 -856 1778 -856 
Q 2344 -856 2625 -561 
Q 2906 -266 2906 331 
L 2906 616 
Q 2728 306 2450 153 
Q 2172 0 1784 0 
Q 1141 0 747 490 
Q 353 981 353 1791 
Q 353 2603 747 3093 
Q 1141 3584 1784 3584 
Q 2172 3584 2450 3431 
Q 2728 3278 2906 2969 
L 2906 3500 
L 3481 3500 
L 3481 434 
z
" transform="scale(0.015625)"/>
       <path id="DejaVuSans-65" d="M 3597 1894 
L 3597 1613 
L 953 1613 
Q 991 1019 1311 708 
Q 1631 397 2203 397 
Q 2534 397 2845 478 
Q 3156 559 3463 722 
L 3463 178 
Q 3153 47 2828 -22 
Q 2503 -91 2169 -91 
Q 1331 -91 842 396 
Q 353 884 353 1716 
Q 353 2575 817 3079 
Q 1281 3584 2069 3584 
Q 2775 3584 3186 3129 
Q 3597 2675 3597 1894 
z
M 3022 2063 
Q 3016 2534 2758 2815 
Q 2500 3097 2075 3097 
Q 1594 3097 1305 2825 
Q 1016 2553 972 2059 
L 3022 2063 
z
" transform="scale(0.015625)"/>
       <path id="DejaVuSans-73" d="M 2834 3397 
L 2834 2853 
Q 2591 2978 2328 3040 
Q 2066 3103 1784 3103 
Q 1356 3103 1142 2972 
Q 928 2841 928 2578 
Q 928 2378 1081 2264 
Q 1234 2150 1697 2047 
L 1894 2003 
Q 2506 1872 2764 1633 
Q 3022 1394 3022 966 
Q 3022 478 2636 193 
Q 2250 -91 1575 -91 
Q 1294 -91 989 -36 
Q 684 19 347 128 
L 347 722 
Q 666 556 975 473 
Q 1284 391 1588 391 
Q 1994 391 2212 530 
Q 2431 669 2431 922 
Q 2431 1156 2273 1281 
Q 2116 1406 1581 1522 
L 1381 1569 
Q 847 1681 609 1914 
Q 372 2147 372 2553 
Q 372 3047 722 3315 
Q 1072 3584 1716 3584 
Q 2034 3584 2315 3537 
Q 2597 3491 2834 3397 
z
" transform="scale(0.015625)"/>
       <path id="DejaVuSans-2d" d="M 313 2009 
L 1997 2009 
L 1997 1497 
L 313 1497 
L 313 2009 
z
" transform="scale(0.015625)"/>
       <path id="DejaVuSans-74" d="M 1172 4494 
L 1172 3500 
L 2356 3500 
L 2356 3053 
L 1172 3053 
L 1172 1153 
Q 1172 725 1289 603 
Q 1406 481 1766 481 
L 2356 481 
L 2356 0 
L 1766 0 
Q 1100 0 847 248 
Q 594 497 594 1153 
L 594 3053 
L 172 3053 
L 172 3500 
L 594 3500 
L 594 4494 
L 1172 4494 
z
" transform="scale(0.015625)"/>
       <path id="DejaVuSans-6f" d="M 1959 3097 
Q 1497 3097 1228 2736 
Q 959 2375 959 1747 
Q 959 1119 1226 758 
Q 1494 397 1959 397 
Q 2419 397 2687 759 
Q 2956 1122 2956 1747 
Q 2956 2369 2687 2733 
Q 2419 3097 1959 3097 
z
M 1959 3584 
Q 2709 3584 3137 3096 
Q 3566 2609 3566 1747 
Q 3566 888 3137 398 
Q 2709 -91 1959 -91 
Q 1206 -91 779 398 
Q 353 888 353 1747 
Q 353 2609 779 3096 
Q 1206 3584 1959 3584 
z
" transform="scale(0.015625)"/>
       <path id="DejaVuSans-50" d="M 1259 4147 
L 1259 2394 
L 2053 2394 
Q 2494 2394 2734 2622 
Q 2975 2850 2975 3272 
Q 2975 3691 2734 3919 
Q 2494 4147 2053 4147 
L 1259 4147 
z
M 628 4666 
L 2053 4666 
Q 2838 4666 3239 4311 
Q 3641 3956 3641 3272 
Q 3641 2581 3239 2228 
Q 2838 1875 2053 1875 
L 1259 1875 
L 1259 0 
L 628 0 
L 628 4666 
z
" transform="scale(0.015625)"/>
       <path id="DejaVuSans-61" d="M 2194 1759 
Q 1497 1759 1228 1600 
Q 959 1441 959 1056 
Q 959 750 1161 570 
Q 1363 391 1709 391 
Q 2188 391 2477 730 
Q 2766 1069 2766 1631 
L 2766 1759 
L 2194 1759 
z
M 3341 1997 
L 3341 0 
L 2766 0 
L 2766 531 
Q 2569 213 2275 61 
Q 1981 -91 1556 -91 
Q 1019 -91 701 211 
Q 384 513 384 1019 
Q 384 1609 779 1909 
Q 1175 2209 1959 2209 
L 2766 2209 
L 2766 2266 
Q 2766 2663 2505 2880 
Q 2244 3097 1772 3097 
Q 1472 3097 1187 3025 
Q 903 2953 641 2809 
L 641 3341 
Q 956 3463 1253 3523 
Q 1550 3584 1831 3584 
Q 2591 3584 2966 3190 
Q 3341 2797 3341 1997 
z
" transform="scale(0.015625)"/>
       <path id="DejaVuSans-79" d="M 2059 -325 
Q 1816 -950 1584 -1140 
Q 1353 -1331 966 -1331 
L 506 -1331 
L 506 -850 
L 844 -850 
Q 1081 -850 1212 -737 
Q 1344 -625 1503 -206 
L 1606 56 
L 191 3500 
L 800 3500 
L 1894 763 
L 2988 3500 
L 3597 3500 
L 2059 -325 
z
" transform="scale(0.015625)"/>
       <path id="DejaVuSans-20" transform="scale(0.015625)"/>
       <path id="DejaVuSans-54" d="M -19 4666 
L 3928 4666 
L 3928 4134 
L 2272 4134 
L 2272 0 
L 1638 0 
L 1638 4134 
L -19 4134 
L -19 4666 
z
" transform="scale(0.015625)"/>
       <path id="DejaVuSans-68" d="M 3513 2113 
L 3513 0 
L 2938 0 
L 2938 2094 
Q 2938 2591 2744 2837 
Q 2550 3084 2163 3084 
Q 1697 3084 1428 2787 
Q 1159 2491 1159 1978 
L 1159 0 
L 581 0 
L 581 4863 
L 1159 4863 
L 1159 2956 
Q 1366 3272 1645 3428 
Q 1925 3584 2291 3584 
Q 2894 3584 3203 3211 
Q 3513 2838 3513 2113 
z
" transform="scale(0.015625)"/>
       <path id="DejaVuSans-72" d="M 2631 2963 
Q 2534 3019 2420 3045 
Q 2306 3072 2169 3072 
Q 1681 3072 1420 2755 
Q 1159 2438 1159 1844 
L 1159 0 
L 581 0 
L 581 3500 
L 1159 3500 
L 1159 2956 
Q 1341 3275 1631 3429 
Q 1922 3584 2338 3584 
Q 2397 3584 2469 3576 
Q 2541 3569 2628 3553 
L 2631 2963 
z
" transform="scale(0.015625)"/>
       <path id="DejaVuSans-64" d="M 2906 2969 
L 2906 4863 
L 3481 4863 
L 3481 0 
L 2906 0 
L 2906 525 
Q 2725 213 2448 61 
Q 2172 -91 1784 -91 
Q 1150 -91 751 415 
Q 353 922 353 1747 
Q 353 2572 751 3078 
Q 1150 3584 1784 3584 
Q 2172 3584 2448 3432 
Q 2725 3281 2906 2969 
z
M 947 1747 
Q 947 1113 1208 752 
Q 1469 391 1925 391 
Q 2381 391 2643 752 
Q 2906 1113 2906 1747 
Q 2906 2381 2643 2742 
Q 2381 3103 1925 3103 
Q 1469 3103 1208 2742 
Q 947 2381 947 1747 
z
" transform="scale(0.015625)"/>
       <path id="DejaVuSans-28" d="M 1984 4856 
Q 1566 4138 1362 3434 
Q 1159 2731 1159 2009 
Q 1159 1288 1364 580 
Q 1569 -128 1984 -844 
L 1484 -844 
Q 1016 -109 783 600 
Q 550 1309 550 2009 
Q 550 2706 781 3412 
Q 1013 4119 1484 4856 
L 1984 4856 
z
" transform="scale(0.015625)"/>
       <path id="DejaVuSans-29" d="M 513 4856 
L 1013 4856 
Q 1481 4119 1714 3412 
Q 1947 2706 1947 2009 
Q 1947 1309 1714 600 
Q 1481 -109 1013 -844 
L 513 -844 
Q 928 -128 1133 580 
Q 1338 1288 1338 2009 
Q 1338 2731 1133 3434 
Q 928 4138 513 4856 
z
" transform="scale(0.015625)"/>
      </defs>
      <use xlink:href="#DejaVuSans-57"/>
      <use xlink:href="#DejaVuSans-69" transform="translate(96.626953 0)"/>
      <use xlink:href="#DejaVuSans-6c" transform="translate(124.410156 0)"/>
      <use xlink:href="#DejaVuSans-6c" transform="translate(152.193359 0)"/>
      <use xlink:href="#DejaVuSans-69" transform="translate(179.976562 0)"/>
      <use xlink:href="#DejaVuSans-6e" transform="translate(207.759766 0)"/>
      <use xlink:href="#DejaVuSans-67" transform="translate(271.138672 0)"/>
      <use xlink:href="#DejaVuSans-6e" transform="translate(334.615234 0)"/>
      <use xlink:href="#DejaVuSans-65" transform="translate(397.994141 0)"/>
      <use xlink:href="#DejaVuSans-73" transform="translate(459.517578 0)"/>
      <use xlink:href="#DejaVuSans-73" transform="translate(511.617188 0)"/>
      <use xlink:href="#DejaVuSans-2d" transform="translate(563.716797 0)"/>
      <use xlink:href="#DejaVuSans-74" transform="translate(599.800781 0)"/>
      <use xlink:href="#DejaVuSans-6f" transform="translate(639.009766 0)"/>
      <use xlink:href="#DejaVuSans-2d" transform="translate(702.066406 0)"/>
      <use xlink:href="#DejaVuSans-50" transform="translate(738.150391 0)"/>
      <use xlink:href="#DejaVuSans-61" transform="translate(793.953125 0)"/>
      <use xlink:href="#DejaVuSans-79" transform="translate(855.232422 0)"/>
      <use xlink:href="#DejaVuSans-20" transform="translate(914.412109 0)"/>
      <use xlink:href="#DejaVuSans-54" transform="translate(946.199219 0)"/>
      <use xlink:href="#DejaVuSans-68" transform="translate(1007.283203 0)"/>
      <use xlink:href="#DejaVuSans-72" transform="translate(1070.662109 0)"/>
      <use xlink:href="#DejaVuSans-65" transform="translate(1109.525391 0)"/>
      <use xlink:href="#DejaVuSans-73" transform="translate(1171.048828 0)"/>
      <use xlink:href="#DejaVuSans-68" transform="translate(1223.148438 0)"/>
      <use xlink:href="#DejaVuSans-6f" transform="translate(1286.527344 0)"/>
      <use xlink:href="#DejaVuSans-6c" transform="translate(1347.708984 0)"/>
      <use xlink:href="#DejaVuSans-64" transform="translate(1375.492188 0)"/>
      <use xlink:href="#DejaVuSans-20" transform="translate(1438.96875 0)"/>
      <use xlink:href="#DejaVuSans-28" transform="translate(1470.755859 0)"/>
      <use xlink:href="#DejaVuSans-24" transform="translate(1509.769531 0)"/>
      <use xlink:href="#DejaVuSans-29" transform="translate(1573.392578 0)"/>
     </g>
    </g>
   </g>
   <g id="matplotlib.axis_2">
    <g id="ytick_1">
     <g id="line2d_13">
      <path d="M 89.449688 371.380806 
L 410.271363 371.380806 
" clip-path="url(#p9e9656f883)" style="fill: none; stroke: #cccccc; stroke-opacity: 0.3; stroke-width: 0.8; stroke-linecap: round"/>
     </g>
     <g id="line2d_14"/>
     <g id="text_8">
      <!-- $-8000000M -->
      <g style="fill: #262626" transform="translate(22.81375 375.180025) scale(0.1 -0.1)">
       <defs>
        <path id="DejaVuSans-4d" d="M 628 4666 
L 1569 4666 
L 2759 1491 
L 3956 4666 
L 4897 4666 
L 4897 0 
L 4281 0 
L 4281 4097 
L 3078 897 
L 2444 897 
L 1241 4097 
L 1241 0 
L 628 0 
L 628 4666 
z
" transform="scale(0.015625)"/>
       </defs>
       <use xlink:href="#DejaVuSans-24"/>
       <use xlink:href="#DejaVuSans-2d" transform="translate(63.623047 0)"/>
       <use xlink:href="#DejaVuSans-38" transform="translate(99.707031 0)"/>
       <use xlink:href="#DejaVuSans-30" transform="translate(163.330078 0)"/>
       <use xlink:href="#DejaVuSans-30" transform="translate(226.953125 0)"/>
       <use xlink:href="#DejaVuSans-30" transform="translate(290.576172 0)"/>
       <use xlink:href="#DejaVuSans-30" transform="translate(354.199219 0)"/>
       <use xlink:href="#DejaVuSans-30" transform="translate(417.822266 0)"/>
       <use xlink:href="#DejaVuSans-30" transform="translate(481.445312 0)"/>
       <use xlink:href="#DejaVuSans-4d" transform="translate(545.068359 0)"/>
      </g>
     </g>
    </g>
    <g id="ytick_2">
     <g id="line2d_15">
      <path d="M 89.449688 330.057558 
L 410.271363 330.057558 
" clip-path="url(#p9e9656f883)" style="fill: none; stroke: #cccccc; stroke-opacity: 0.3; stroke-width: 0.8; stroke-linecap: round"/>
     </g>
     <g id="line2d_16"/>
     <g id="text_9">
      <!-- $-6000000M -->
      <g style="fill: #262626" transform="translate(22.81375 333.856776) scale(0.1 -0.1)">
       <use xlink:href="#DejaVuSans-24"/>
       <use xlink:href="#DejaVuSans-2d" transform="translate(63.623047 0)"/>
       <use xlink:href="#DejaVuSans-36" transform="translate(99.707031 0)"/>
       <use xlink:href="#DejaVuSans-30" transform="translate(163.330078 0)"/>
       <use xlink:href="#DejaVuSans-30" transform="translate(226.953125 0)"/>
       <use xlink:href="#DejaVuSans-30" transform="translate(290.576172 0)"/>
       <use xlink:href="#DejaVuSans-30" transform="translate(354.199219 0)"/>
       <use xlink:href="#DejaVuSans-30" transform="translate(417.822266 0)"/>
       <use xlink:href="#DejaVuSans-30" transform="translate(481.445312 0)"/>
       <use xlink:href="#DejaVuSans-4d" transform="translate(545.068359 0)"/>
      </g>
     </g>
    </g>
    <g id="ytick_3">
     <g id="line2d_17">
      <path d="M 89.449688 288.734309 
L 410.271363 288.734309 
" clip-path="url(#p9e9656f883)" style="fill: none; stroke: #cccccc; stroke-opacity: 0.3; stroke-width: 0.8; stroke-linecap: round"/>
     </g>
     <g id="line2d_18"/>
     <g id="text_10">
      <!-- $-4000000M -->
      <g style="fill: #262626" transform="translate(22.81375 292.533528) scale(0.1 -0.1)">
       <use xlink:href="#DejaVuSans-24"/>
       <use xlink:href="#DejaVuSans-2d" transform="translate(63.623047 0)"/>
       <use xlink:href="#DejaVuSans-34" transform="translate(99.707031 0)"/>
       <use xlink:href="#DejaVuSans-30" transform="translate(163.330078 0)"/>
       <use xlink:href="#DejaVuSans-30" transform="translate(226.953125 0)"/>
       <use xlink:href="#DejaVuSans-30" transform="translate(290.576172 0)"/>
       <use xlink:href="#DejaVuSans-30" transform="translate(354.199219 0)"/>
       <use xlink:href="#DejaVuSans-30" transform="translate(417.822266 0)"/>
       <use xlink:href="#DejaVuSans-30" transform="translate(481.445312 0)"/>
       <use xlink:href="#DejaVuSans-4d" transform="translate(545.068359 0)"/>
      </g>
     </g>
    </g>
    <g id="ytick_4">
     <g id="line2d_19">
      <path d="M 89.449688 247.411061 
L 410.271363 247.411061 
" clip-path="url(#p9e9656f883)" style="fill: none; stroke: #cccccc; stroke-opacity: 0.3; stroke-width: 0.8; stroke-linecap: round"/>
     </g>
     <g id="line2d_20"/>
     <g id="text_11">
      <!-- $-2000000M -->
      <g style="fill: #262626" transform="translate(22.81375 251.21028) scale(0.1 -0.1)">
       <use xlink:href="#DejaVuSans-24"/>
       <use xlink:href="#DejaVuSans-2d" transform="translate(63.623047 0)"/>
       <use xlink:href="#DejaVuSans-32" transform="translate(99.707031 0)"/>
       <use xlink:href="#DejaVuSans-30" transform="translate(163.330078 0)"/>
       <use xlink:href="#DejaVuSans-30" transform="translate(226.953125 0)"/>
       <use xlink:href="#DejaVuSans-30" transform="translate(290.576172 0)"/>
       <use xlink:href="#DejaVuSans-30" transform="translate(354.199219 0)"/>
       <use xlink:href="#DejaVuSans-30" transform="translate(417.822266 0)"/>
       <use xlink:href="#DejaVuSans-30" transform="translate(481.445312 0)"/>
       <use xlink:href="#DejaVuSans-4d" transform="translate(545.068359 0)"/>
      </g>
     </g>
    </g>
    <g id="ytick_5">
     <g id="line2d_21">
      <path d="M 89.449688 206.087812 
L 410.271363 206.087812 
" clip-path="url(#p9e9656f883)" style="fill: none; stroke: #cccccc; stroke-opacity: 0.3; stroke-width: 0.8; stroke-linecap: round"/>
     </g>
     <g id="line2d_22"/>
     <g id="text_12">
      <!-- $0M -->
      <g style="fill: #262626" transform="translate(64.596563 209.887031) scale(0.1 -0.1)">
       <use xlink:href="#DejaVuSans-24"/>
       <use xlink:href="#DejaVuSans-30" transform="translate(63.623047 0)"/>
       <use xlink:href="#DejaVuSans-4d" transform="translate(127.246094 0)"/>
      </g>
     </g>
    </g>
    <g id="ytick_6">
     <g id="line2d_23">
      <path d="M 89.449688 164.764564 
L 410.271363 164.764564 
" clip-path="url(#p9e9656f883)" style="fill: none; stroke: #cccccc; stroke-opacity: 0.3; stroke-width: 0.8; stroke-linecap: round"/>
     </g>
     <g id="line2d_24"/>
     <g id="text_13">
      <!-- $2000000M -->
      <g style="fill: #262626" transform="translate(26.421563 168.563783) scale(0.1 -0.1)">
       <use xlink:href="#DejaVuSans-24"/>
       <use xlink:href="#DejaVuSans-32" transform="translate(63.623047 0)"/>
       <use xlink:href="#DejaVuSans-30" transform="translate(127.246094 0)"/>
       <use xlink:href="#DejaVuSans-30" transform="translate(190.869141 0)"/>
       <use xlink:href="#DejaVuSans-30" transform="translate(254.492188 0)"/>
       <use xlink:href="#DejaVuSans-30" transform="translate(318.115234 0)"/>
       <use xlink:href="#DejaVuSans-30" transform="translate(381.738281 0)"/>
       <use xlink:href="#DejaVuSans-30" transform="translate(445.361328 0)"/>
       <use xlink:href="#DejaVuSans-4d" transform="translate(508.984375 0)"/>
      </g>
     </g>
    </g>
    <g id="ytick_7">
     <g id="line2d_25">
      <path d="M 89.449688 123.441316 
L 410.271363 123.441316 
" clip-path="url(#p9e9656f883)" style="fill: none; stroke: #cccccc; stroke-opacity: 0.3; stroke-width: 0.8; stroke-linecap: round"/>
     </g>
     <g id="line2d_26"/>
     <g id="text_14">
      <!-- $4000000M -->
      <g style="fill: #262626" transform="translate(26.421563 127.240535) scale(0.1 -0.1)">
       <use xlink:href="#DejaVuSans-24"/>
       <use xlink:href="#DejaVuSans-34" transform="translate(63.623047 0)"/>
       <use xlink:href="#DejaVuSans-30" transform="translate(127.246094 0)"/>
       <use xlink:href="#DejaVuSans-30" transform="translate(190.869141 0)"/>
       <use xlink:href="#DejaVuSans-30" transform="translate(254.492188 0)"/>
       <use xlink:href="#DejaVuSans-30" transform="translate(318.115234 0)"/>
       <use xlink:href="#DejaVuSans-30" transform="translate(381.738281 0)"/>
       <use xlink:href="#DejaVuSans-30" transform="translate(445.361328 0)"/>
       <use xlink:href="#DejaVuSans-4d" transform="translate(508.984375 0)"/>
      </g>
     </g>
    </g>
    <g id="ytick_8">
     <g id="line2d_27">
      <path d="M 89.449688 82.118067 
L 410.271363 82.118067 
" clip-path="url(#p9e9656f883)" style="fill: none; stroke: #cccccc; stroke-opacity: 0.3; stroke-width: 0.8; stroke-linecap: round"/>
     </g>
     <g id="line2d_28"/>
     <g id="text_15">
      <!-- $6000000M -->
      <g style="fill: #262626" transform="translate(26.421563 85.917286) scale(0.1 -0.1)">
       <use xlink:href="#DejaVuSans-24"/>
       <use xlink:href="#DejaVuSans-36" transform="translate(63.623047 0)"/>
       <use xlink:href="#DejaVuSans-30" transform="translate(127.246094 0)"/>
       <use xlink:href="#DejaVuSans-30" transform="translate(190.869141 0)"/>
       <use xlink:href="#DejaVuSans-30" transform="translate(254.492188 0)"/>
       <use xlink:href="#DejaVuSans-30" transform="translate(318.115234 0)"/>
       <use xlink:href="#DejaVuSans-30" transform="translate(381.738281 0)"/>
       <use xlink:href="#DejaVuSans-30" transform="translate(445.361328 0)"/>
       <use xlink:href="#DejaVuSans-4d" transform="translate(508.984375 0)"/>
      </g>
     </g>
    </g>
    <g id="ytick_9">
     <g id="line2d_29">
      <path d="M 89.449688 40.794819 
L 410.271363 40.794819 
" clip-path="url(#p9e9656f883)" style="fill: none; stroke: #cccccc; stroke-opacity: 0.3; stroke-width: 0.8; stroke-linecap: round"/>
     </g>
     <g id="line2d_30"/>
     <g id="text_16">
      <!-- $8000000M -->
      <g style="fill: #262626" transform="translate(26.421563 44.594038) scale(0.1 -0.1)">
       <use xlink:href="#DejaVuSans-24"/>
       <use xlink:href="#DejaVuSans-38" transform="translate(63.623047 0)"/>
       <use xlink:href="#DejaVuSans-30" transform="translate(127.246094 0)"/>
       <use xlink:href="#DejaVuSans-30" transform="translate(190.869141 0)"/>
       <use xlink:href="#DejaVuSans-30" transform="translate(254.492188 0)"/>
       <use xlink:href="#DejaVuSans-30" transform="translate(318.115234 0)"/>
       <use xlink:href="#DejaVuSans-30" transform="translate(381.738281 0)"/>
       <use xlink:href="#DejaVuSans-30" transform="translate(445.361328 0)"/>
       <use xlink:href="#DejaVuSans-4d" transform="translate(508.984375 0)"/>
      </g>
     </g>
    </g>
    <g id="text_17">
     <!-- Population EVPI ($) -->
     <g style="fill: #262626" transform="translate(16.318125 263.204062) rotate(-90) scale(0.12 -0.12)">
      <defs>
       <path id="DejaVuSans-70" d="M 1159 525 
L 1159 -1331 
L 581 -1331 
L 581 3500 
L 1159 3500 
L 1159 2969 
Q 1341 3281 1617 3432 
Q 1894 3584 2278 3584 
Q 2916 3584 3314 3078 
Q 3713 2572 3713 1747 
Q 3713 922 3314 415 
Q 2916 -91 2278 -91 
Q 1894 -91 1617 61 
Q 1341 213 1159 525 
z
M 3116 1747 
Q 3116 2381 2855 2742 
Q 2594 3103 2138 3103 
Q 1681 3103 1420 2742 
Q 1159 2381 1159 1747 
Q 1159 1113 1420 752 
Q 1681 391 2138 391 
Q 2594 391 2855 752 
Q 3116 1113 3116 1747 
z
" transform="scale(0.015625)"/>
       <path id="DejaVuSans-75" d="M 544 1381 
L 544 3500 
L 1119 3500 
L 1119 1403 
Q 1119 906 1312 657 
Q 1506 409 1894 409 
Q 2359 409 2629 706 
Q 2900 1003 2900 1516 
L 2900 3500 
L 3475 3500 
L 3475 0 
L 2900 0 
L 2900 538 
Q 2691 219 2414 64 
Q 2138 -91 1772 -91 
Q 1169 -91 856 284 
Q 544 659 544 1381 
z
M 1991 3584 
L 1991 3584 
z
" transform="scale(0.015625)"/>
       <path id="DejaVuSans-45" d="M 628 4666 
L 3578 4666 
L 3578 4134 
L 1259 4134 
L 1259 2753 
L 3481 2753 
L 3481 2222 
L 1259 2222 
L 1259 531 
L 3634 531 
L 3634 0 
L 628 0 
L 628 4666 
z
" transform="scale(0.015625)"/>
       <path id="DejaVuSans-56" d="M 1831 0 
L 50 4666 
L 709 4666 
L 2188 738 
L 3669 4666 
L 4325 4666 
L 2547 0 
L 1831 0 
z
" transform="scale(0.015625)"/>
       <path id="DejaVuSans-49" d="M 628 4666 
L 1259 4666 
L 1259 0 
L 628 0 
L 628 4666 
z
" transform="scale(0.015625)"/>
      </defs>
      <use xlink:href="#DejaVuSans-50"/>
      <use xlink:href="#DejaVuSans-6f" transform="translate(56.677734 0)"/>
      <use xlink:href="#DejaVuSans-70" transform="translate(117.859375 0)"/>
      <use xlink:href="#DejaVuSans-75" transform="translate(181.335938 0)"/>
      <use xlink:href="#DejaVuSans-6c" transform="translate(244.714844 0)"/>
      <use xlink:href="#DejaVuSans-61" transform="translate(272.498047 0)"/>
      <use xlink:href="#DejaVuSans-74" transform="translate(333.777344 0)"/>
      <use xlink:href="#DejaVuSans-69" transform="translate(372.986328 0)"/>
      <use xlink:href="#DejaVuSans-6f" transform="translate(400.769531 0)"/>
      <use xlink:href="#DejaVuSans-6e" transform="translate(461.951172 0)"/>
      <use xlink:href="#DejaVuSans-20" transform="translate(525.330078 0)"/>
      <use xlink:href="#DejaVuSans-45" transform="translate(557.117188 0)"/>
      <use xlink:href="#DejaVuSans-56" transform="translate(620.300781 0)"/>
      <use xlink:href="#DejaVuSans-50" transform="translate(688.708984 0)"/>
      <use xlink:href="#DejaVuSans-49" transform="translate(749.011719 0)"/>
      <use xlink:href="#DejaVuSans-20" transform="translate(778.503906 0)"/>
      <use xlink:href="#DejaVuSans-28" transform="translate(810.291016 0)"/>
      <use xlink:href="#DejaVuSans-24" transform="translate(849.304688 0)"/>
      <use xlink:href="#DejaVuSans-29" transform="translate(912.927734 0)"/>
     </g>
    </g>
   </g>
   <g id="line2d_31">
    <path d="M 104.032491 206.087812 
L 118.615294 206.087812 
L 133.198098 206.087812 
L 147.780901 206.087812 
L 162.363705 206.087812 
L 176.946508 206.087812 
L 191.529312 206.087812 
L 206.112115 206.087812 
L 220.694918 206.087812 
L 235.277722 206.087812 
L 249.860525 206.087812 
L 264.443329 206.087812 
L 279.026132 206.087812 
L 293.608936 206.087812 
L 308.191739 206.087812 
L 322.774542 206.087812 
L 337.357346 206.087812 
L 351.940149 206.087812 
L 366.522953 206.087812 
L 381.105756 206.087812 
L 395.68856 206.087812 
" clip-path="url(#p9e9656f883)" style="fill: none; stroke: #1f77b4; stroke-width: 2; stroke-linecap: round"/>
   </g>
   <g id="line2d_32">
    <path d="M 104.032491 206.087812 
L 118.615294 205.395915 
L 133.198098 188.777312 
L 147.780901 143.752476 
L 162.363705 75.583644 
L 176.946508 64.838384 
L 191.529312 73.026219 
L 206.112115 76.725443 
L 220.694918 77.933189 
L 235.277722 77.549295 
L 249.860525 75.845147 
L 264.443329 73.527661 
L 279.026132 70.869974 
L 293.608936 67.836412 
L 308.191739 64.373716 
L 322.774542 60.725547 
L 337.357346 56.98948 
L 351.940149 53.031005 
L 366.522953 48.937048 
L 381.105756 44.748965 
L 395.68856 40.405994 
" clip-path="url(#p9e9656f883)" style="fill: none; stroke: #ff7f0e; stroke-width: 2; stroke-linecap: round"/>
   </g>
   <g id="line2d_33">
    <path d="M 104.032491 206.087812 
L 118.615294 206.087812 
L 133.198098 206.087812 
L 147.780901 206.087812 
L 162.363705 206.087812 
L 176.946508 206.087812 
L 191.529312 206.087812 
L 206.112115 206.087812 
L 220.694918 206.087812 
L 235.277722 206.087812 
L 249.860525 206.087812 
L 264.443329 206.087812 
L 279.026132 206.087812 
L 293.608936 206.087812 
L 308.191739 206.087812 
L 322.774542 206.087812 
L 337.357346 206.087812 
L 351.940149 206.087812 
L 366.522953 206.087812 
L 381.105756 206.087812 
L 395.68856 206.087812 
" clip-path="url(#p9e9656f883)" style="fill: none; stroke: #2ca02c; stroke-width: 2; stroke-linecap: round"/>
   </g>
   <g id="line2d_34">
    <path d="M 104.032491 206.087812 
L 118.615294 206.087812 
L 133.198098 206.087812 
L 147.780901 206.087812 
L 162.363705 206.087812 
L 176.946508 206.087812 
L 191.529312 206.087812 
L 206.112115 206.087812 
L 220.694918 206.087812 
L 235.277722 206.087812 
L 249.860525 206.087812 
L 264.443329 206.087812 
L 279.026132 206.087812 
L 293.608936 206.087812 
L 308.191739 206.087812 
L 322.774542 206.087812 
L 337.357346 206.087812 
L 351.940149 206.087812 
L 366.522953 206.087812 
L 381.105756 206.087812 
L 395.68856 206.087812 
" clip-path="url(#p9e9656f883)" style="fill: none; stroke: #d62728; stroke-width: 2; stroke-linecap: round"/>
   </g>
   <g id="line2d_35">
    <path d="M 104.032491 206.087812 
L 118.615294 206.087812 
L 133.198098 206.070738 
L 147.780901 205.043809 
L 162.363705 201.059884 
L 176.946508 193.440479 
L 191.529312 182.679778 
L 206.112115 170.061946 
L 220.694918 169.77386 
L 235.277722 171.538484 
L 249.860525 172.711081 
L 264.443329 173.568275 
L 279.026132 174.187592 
L 293.608936 174.549608 
L 308.191739 174.732797 
L 322.774542 174.774253 
L 337.357346 174.698603 
L 351.940149 174.534408 
L 366.522953 174.327801 
L 381.105756 174.102983 
L 395.68856 173.843426 
" clip-path="url(#p9e9656f883)" style="fill: none; stroke: #9467bd; stroke-width: 2; stroke-linecap: round"/>
   </g>
   <g id="patch_3">
    <path d="M 89.449688 388.337812 
L 89.449688 23.837812 
" style="fill: none; stroke: #cccccc; stroke-linejoin: miter; stroke-linecap: square"/>
   </g>
   <g id="patch_4">
    <path d="M 410.271363 388.337812 
L 410.271363 23.837812 
" style="fill: none; stroke: #cccccc; stroke-linejoin: miter; stroke-linecap: square"/>
   </g>
   <g id="patch_5">
    <path d="M 89.449688 388.337812 
L 410.271363 388.337812 
" style="fill: none; stroke: #cccccc; stroke-linejoin: miter; stroke-linecap: square"/>
   </g>
   <g id="patch_6">
    <path d="M 89.449688 23.837812 
L 410.271363 23.837812 
" style="fill: none; stroke: #cccccc; stroke-linejoin: miter; stroke-linecap: square"/>
   </g>
   <g id="text_18">
    <!-- Health System Perspective -->
    <g style="fill: #262626" transform="translate(155.783807 17.837812) scale(0.14 -0.14)">
     <defs>
      <path id="DejaVuSans-48" d="M 628 4666 
L 1259 4666 
L 1259 2753 
L 3553 2753 
L 3553 4666 
L 4184 4666 
L 4184 0 
L 3553 0 
L 3553 2222 
L 1259 2222 
L 1259 0 
L 628 0 
L 628 4666 
z
" transform="scale(0.015625)"/>
      <path id="DejaVuSans-53" d="M 3425 4513 
L 3425 3897 
Q 3066 4069 2747 4153 
Q 2428 4238 2131 4238 
Q 1616 4238 1336 4038 
Q 1056 3838 1056 3469 
Q 1056 3159 1242 3001 
Q 1428 2844 1947 2747 
L 2328 2669 
Q 3034 2534 3370 2195 
Q 3706 1856 3706 1288 
Q 3706 609 3251 259 
Q 2797 -91 1919 -91 
Q 1588 -91 1214 -16 
Q 841 59 441 206 
L 441 856 
Q 825 641 1194 531 
Q 1563 422 1919 422 
Q 2459 422 2753 634 
Q 3047 847 3047 1241 
Q 3047 1584 2836 1778 
Q 2625 1972 2144 2069 
L 1759 2144 
Q 1053 2284 737 2584 
Q 422 2884 422 3419 
Q 422 4038 858 4394 
Q 1294 4750 2059 4750 
Q 2388 4750 2728 4690 
Q 3069 4631 3425 4513 
z
" transform="scale(0.015625)"/>
      <path id="DejaVuSans-6d" d="M 3328 2828 
Q 3544 3216 3844 3400 
Q 4144 3584 4550 3584 
Q 5097 3584 5394 3201 
Q 5691 2819 5691 2113 
L 5691 0 
L 5113 0 
L 5113 2094 
Q 5113 2597 4934 2840 
Q 4756 3084 4391 3084 
Q 3944 3084 3684 2787 
Q 3425 2491 3425 1978 
L 3425 0 
L 2847 0 
L 2847 2094 
Q 2847 2600 2669 2842 
Q 2491 3084 2119 3084 
Q 1678 3084 1418 2786 
Q 1159 2488 1159 1978 
L 1159 0 
L 581 0 
L 581 3500 
L 1159 3500 
L 1159 2956 
Q 1356 3278 1631 3431 
Q 1906 3584 2284 3584 
Q 2666 3584 2933 3390 
Q 3200 3197 3328 2828 
z
" transform="scale(0.015625)"/>
      <path id="DejaVuSans-63" d="M 3122 3366 
L 3122 2828 
Q 2878 2963 2633 3030 
Q 2388 3097 2138 3097 
Q 1578 3097 1268 2742 
Q 959 2388 959 1747 
Q 959 1106 1268 751 
Q 1578 397 2138 397 
Q 2388 397 2633 464 
Q 2878 531 3122 666 
L 3122 134 
Q 2881 22 2623 -34 
Q 2366 -91 2075 -91 
Q 1284 -91 818 406 
Q 353 903 353 1747 
Q 353 2603 823 3093 
Q 1294 3584 2113 3584 
Q 2378 3584 2631 3529 
Q 2884 3475 3122 3366 
z
" transform="scale(0.015625)"/>
      <path id="DejaVuSans-76" d="M 191 3500 
L 800 3500 
L 1894 563 
L 2988 3500 
L 3597 3500 
L 2284 0 
L 1503 0 
L 191 3500 
z
" transform="scale(0.015625)"/>
     </defs>
     <use xlink:href="#DejaVuSans-48"/>
     <use xlink:href="#DejaVuSans-65" transform="translate(75.195312 0)"/>
     <use xlink:href="#DejaVuSans-61" transform="translate(136.71875 0)"/>
     <use xlink:href="#DejaVuSans-6c" transform="translate(197.998047 0)"/>
     <use xlink:href="#DejaVuSans-74" transform="translate(225.78125 0)"/>
     <use xlink:href="#DejaVuSans-68" transform="translate(264.990234 0)"/>
     <use xlink:href="#DejaVuSans-20" transform="translate(328.369141 0)"/>
     <use xlink:href="#DejaVuSans-53" transform="translate(360.15625 0)"/>
     <use xlink:href="#DejaVuSans-79" transform="translate(423.632812 0)"/>
     <use xlink:href="#DejaVuSans-73" transform="translate(482.8125 0)"/>
     <use xlink:href="#DejaVuSans-74" transform="translate(534.912109 0)"/>
     <use xlink:href="#DejaVuSans-65" transform="translate(574.121094 0)"/>
     <use xlink:href="#DejaVuSans-6d" transform="translate(635.644531 0)"/>
     <use xlink:href="#DejaVuSans-20" transform="translate(733.056641 0)"/>
     <use xlink:href="#DejaVuSans-50" transform="translate(764.84375 0)"/>
     <use xlink:href="#DejaVuSans-65" transform="translate(821.521484 0)"/>
     <use xlink:href="#DejaVuSans-72" transform="translate(883.044922 0)"/>
     <use xlink:href="#DejaVuSans-73" transform="translate(924.158203 0)"/>
     <use xlink:href="#DejaVuSans-70" transform="translate(976.257812 0)"/>
     <use xlink:href="#DejaVuSans-65" transform="translate(1039.734375 0)"/>
     <use xlink:href="#DejaVuSans-63" transform="translate(1101.257812 0)"/>
     <use xlink:href="#DejaVuSans-74" transform="translate(1156.238281 0)"/>
     <use xlink:href="#DejaVuSans-69" transform="translate(1195.447266 0)"/>
     <use xlink:href="#DejaVuSans-76" transform="translate(1223.230469 0)"/>
     <use xlink:href="#DejaVuSans-65" transform="translate(1282.410156 0)"/>
    </g>
   </g>
  </g>
  <g id="axes_2">
   <g id="patch_7">
    <path d="M 423.273556 388.337812 
L 744.095231 388.337812 
L 744.095231 23.837812 
L 423.273556 23.837812 
z
" style="fill: #ffffff"/>
   </g>
   <g id="matplotlib.axis_3">
    <g id="xtick_7">
     <g id="line2d_36">
      <path d="M 437.856359 388.337812 
L 437.856359 23.837812 
" clip-path="url(#p51b8db029a)" style="fill: none; stroke: #cccccc; stroke-opacity: 0.3; stroke-width: 0.8; stroke-linecap: round"/>
     </g>
     <g id="line2d_37"/>
     <g id="text_19">
      <!-- $0k -->
      <g style="fill: #262626" transform="translate(428.598547 399.43625) scale(0.1 -0.1)">
       <use xlink:href="#DejaVuSans-24"/>
       <use xlink:href="#DejaVuSans-30" transform="translate(63.623047 0)"/>
       <use xlink:href="#DejaVuSans-6b" transform="translate(127.246094 0)"/>
      </g>
     </g>
    </g>
    <g id="xtick_8">
     <g id="line2d_38">
      <path d="M 496.187573 388.337812 
L 496.187573 23.837812 
" clip-path="url(#p51b8db029a)" style="fill: none; stroke: #cccccc; stroke-opacity: 0.3; stroke-width: 0.8; stroke-linecap: round"/>
     </g>
     <g id="line2d_39"/>
     <g id="text_20">
      <!-- $20k -->
      <g style="fill: #262626" transform="translate(483.74851 399.43625) scale(0.1 -0.1)">
       <use xlink:href="#DejaVuSans-24"/>
       <use xlink:href="#DejaVuSans-32" transform="translate(63.623047 0)"/>
       <use xlink:href="#DejaVuSans-30" transform="translate(127.246094 0)"/>
       <use xlink:href="#DejaVuSans-6b" transform="translate(190.869141 0)"/>
      </g>
     </g>
    </g>
    <g id="xtick_9">
     <g id="line2d_40">
      <path d="M 554.518787 388.337812 
L 554.518787 23.837812 
" clip-path="url(#p51b8db029a)" style="fill: none; stroke: #cccccc; stroke-opacity: 0.3; stroke-width: 0.8; stroke-linecap: round"/>
     </g>
     <g id="line2d_41"/>
     <g id="text_21">
      <!-- $40k -->
      <g style="fill: #262626" transform="translate(542.079724 399.43625) scale(0.1 -0.1)">
       <use xlink:href="#DejaVuSans-24"/>
       <use xlink:href="#DejaVuSans-34" transform="translate(63.623047 0)"/>
       <use xlink:href="#DejaVuSans-30" transform="translate(127.246094 0)"/>
       <use xlink:href="#DejaVuSans-6b" transform="translate(190.869141 0)"/>
      </g>
     </g>
    </g>
    <g id="xtick_10">
     <g id="line2d_42">
      <path d="M 612.85 388.337812 
L 612.85 23.837812 
" clip-path="url(#p51b8db029a)" style="fill: none; stroke: #cccccc; stroke-opacity: 0.3; stroke-width: 0.8; stroke-linecap: round"/>
     </g>
     <g id="line2d_43"/>
     <g id="text_22">
      <!-- $60k -->
      <g style="fill: #262626" transform="translate(600.410938 399.43625) scale(0.1 -0.1)">
       <use xlink:href="#DejaVuSans-24"/>
       <use xlink:href="#DejaVuSans-36" transform="translate(63.623047 0)"/>
       <use xlink:href="#DejaVuSans-30" transform="translate(127.246094 0)"/>
       <use xlink:href="#DejaVuSans-6b" transform="translate(190.869141 0)"/>
      </g>
     </g>
    </g>
    <g id="xtick_11">
     <g id="line2d_44">
      <path d="M 671.181214 388.337812 
L 671.181214 23.837812 
" clip-path="url(#p51b8db029a)" style="fill: none; stroke: #cccccc; stroke-opacity: 0.3; stroke-width: 0.8; stroke-linecap: round"/>
     </g>
     <g id="line2d_45"/>
     <g id="text_23">
      <!-- $80k -->
      <g style="fill: #262626" transform="translate(658.742151 399.43625) scale(0.1 -0.1)">
       <use xlink:href="#DejaVuSans-24"/>
       <use xlink:href="#DejaVuSans-38" transform="translate(63.623047 0)"/>
       <use xlink:href="#DejaVuSans-30" transform="translate(127.246094 0)"/>
       <use xlink:href="#DejaVuSans-6b" transform="translate(190.869141 0)"/>
      </g>
     </g>
    </g>
    <g id="xtick_12">
     <g id="line2d_46">
      <path d="M 729.512428 388.337812 
L 729.512428 23.837812 
" clip-path="url(#p51b8db029a)" style="fill: none; stroke: #cccccc; stroke-opacity: 0.3; stroke-width: 0.8; stroke-linecap: round"/>
     </g>
     <g id="line2d_47"/>
     <g id="text_24">
      <!-- $100k -->
      <g style="fill: #262626" transform="translate(713.892115 399.43625) scale(0.1 -0.1)">
       <use xlink:href="#DejaVuSans-24"/>
       <use xlink:href="#DejaVuSans-31" transform="translate(63.623047 0)"/>
       <use xlink:href="#DejaVuSans-30" transform="translate(127.246094 0)"/>
       <use xlink:href="#DejaVuSans-30" transform="translate(190.869141 0)"/>
       <use xlink:href="#DejaVuSans-6b" transform="translate(254.492188 0)"/>
      </g>
     </g>
    </g>
    <g id="text_25">
     <!-- Willingness-to-Pay Threshold ($) -->
     <g style="fill: #262626" transform="translate(486.941893 414.634062) scale(0.12 -0.12)">
      <use xlink:href="#DejaVuSans-57"/>
      <use xlink:href="#DejaVuSans-69" transform="translate(96.626953 0)"/>
      <use xlink:href="#DejaVuSans-6c" transform="translate(124.410156 0)"/>
      <use xlink:href="#DejaVuSans-6c" transform="translate(152.193359 0)"/>
      <use xlink:href="#DejaVuSans-69" transform="translate(179.976562 0)"/>
      <use xlink:href="#DejaVuSans-6e" transform="translate(207.759766 0)"/>
      <use xlink:href="#DejaVuSans-67" transform="translate(271.138672 0)"/>
      <use xlink:href="#DejaVuSans-6e" transform="translate(334.615234 0)"/>
      <use xlink:href="#DejaVuSans-65" transform="translate(397.994141 0)"/>
      <use xlink:href="#DejaVuSans-73" transform="translate(459.517578 0)"/>
      <use xlink:href="#DejaVuSans-73" transform="translate(511.617188 0)"/>
      <use xlink:href="#DejaVuSans-2d" transform="translate(563.716797 0)"/>
      <use xlink:href="#DejaVuSans-74" transform="translate(599.800781 0)"/>
      <use xlink:href="#DejaVuSans-6f" transform="translate(639.009766 0)"/>
      <use xlink:href="#DejaVuSans-2d" transform="translate(702.066406 0)"/>
      <use xlink:href="#DejaVuSans-50" transform="translate(738.150391 0)"/>
      <use xlink:href="#DejaVuSans-61" transform="translate(793.953125 0)"/>
      <use xlink:href="#DejaVuSans-79" transform="translate(855.232422 0)"/>
      <use xlink:href="#DejaVuSans-20" transform="translate(914.412109 0)"/>
      <use xlink:href="#DejaVuSans-54" transform="translate(946.199219 0)"/>
      <use xlink:href="#DejaVuSans-68" transform="translate(1007.283203 0)"/>
      <use xlink:href="#DejaVuSans-72" transform="translate(1070.662109 0)"/>
      <use xlink:href="#DejaVuSans-65" transform="translate(1109.525391 0)"/>
      <use xlink:href="#DejaVuSans-73" transform="translate(1171.048828 0)"/>
      <use xlink:href="#DejaVuSans-68" transform="translate(1223.148438 0)"/>
      <use xlink:href="#DejaVuSans-6f" transform="translate(1286.527344 0)"/>
      <use xlink:href="#DejaVuSans-6c" transform="translate(1347.708984 0)"/>
      <use xlink:href="#DejaVuSans-64" transform="translate(1375.492188 0)"/>
      <use xlink:href="#DejaVuSans-20" transform="translate(1438.96875 0)"/>
      <use xlink:href="#DejaVuSans-28" transform="translate(1470.755859 0)"/>
      <use xlink:href="#DejaVuSans-24" transform="translate(1509.769531 0)"/>
      <use xlink:href="#DejaVuSans-29" transform="translate(1573.392578 0)"/>
     </g>
    </g>
   </g>
   <g id="matplotlib.axis_4">
    <g id="ytick_10">
     <g id="line2d_48">
      <path d="M 423.273556 371.380806 
L 744.095231 371.380806 
" clip-path="url(#p51b8db029a)" style="fill: none; stroke: #cccccc; stroke-opacity: 0.3; stroke-width: 0.8; stroke-linecap: round"/>
     </g>
     <g id="line2d_49"/>
    </g>
    <g id="ytick_11">
     <g id="line2d_50">
      <path d="M 423.273556 330.057558 
L 744.095231 330.057558 
" clip-path="url(#p51b8db029a)" style="fill: none; stroke: #cccccc; stroke-opacity: 0.3; stroke-width: 0.8; stroke-linecap: round"/>
     </g>
     <g id="line2d_51"/>
    </g>
    <g id="ytick_12">
     <g id="line2d_52">
      <path d="M 423.273556 288.734309 
L 744.095231 288.734309 
" clip-path="url(#p51b8db029a)" style="fill: none; stroke: #cccccc; stroke-opacity: 0.3; stroke-width: 0.8; stroke-linecap: round"/>
     </g>
     <g id="line2d_53"/>
    </g>
    <g id="ytick_13">
     <g id="line2d_54">
      <path d="M 423.273556 247.411061 
L 744.095231 247.411061 
" clip-path="url(#p51b8db029a)" style="fill: none; stroke: #cccccc; stroke-opacity: 0.3; stroke-width: 0.8; stroke-linecap: round"/>
     </g>
     <g id="line2d_55"/>
    </g>
    <g id="ytick_14">
     <g id="line2d_56">
      <path d="M 423.273556 206.087812 
L 744.095231 206.087812 
" clip-path="url(#p51b8db029a)" style="fill: none; stroke: #cccccc; stroke-opacity: 0.3; stroke-width: 0.8; stroke-linecap: round"/>
     </g>
     <g id="line2d_57"/>
    </g>
    <g id="ytick_15">
     <g id="line2d_58">
      <path d="M 423.273556 164.764564 
L 744.095231 164.764564 
" clip-path="url(#p51b8db029a)" style="fill: none; stroke: #cccccc; stroke-opacity: 0.3; stroke-width: 0.8; stroke-linecap: round"/>
     </g>
     <g id="line2d_59"/>
    </g>
    <g id="ytick_16">
     <g id="line2d_60">
      <path d="M 423.273556 123.441316 
L 744.095231 123.441316 
" clip-path="url(#p51b8db029a)" style="fill: none; stroke: #cccccc; stroke-opacity: 0.3; stroke-width: 0.8; stroke-linecap: round"/>
     </g>
     <g id="line2d_61"/>
    </g>
    <g id="ytick_17">
     <g id="line2d_62">
      <path d="M 423.273556 82.118067 
L 744.095231 82.118067 
" clip-path="url(#p51b8db029a)" style="fill: none; stroke: #cccccc; stroke-opacity: 0.3; stroke-width: 0.8; stroke-linecap: round"/>
     </g>
     <g id="line2d_63"/>
    </g>
    <g id="ytick_18">
     <g id="line2d_64">
      <path d="M 423.273556 40.794819 
L 744.095231 40.794819 
" clip-path="url(#p51b8db029a)" style="fill: none; stroke: #cccccc; stroke-opacity: 0.3; stroke-width: 0.8; stroke-linecap: round"/>
     </g>
     <g id="line2d_65"/>
    </g>
   </g>
   <g id="line2d_66">
    <path d="M 437.856359 206.087812 
L 452.439162 206.087812 
L 467.021966 206.087812 
L 481.604769 206.087812 
L 496.187573 206.087812 
L 510.770376 206.087812 
L 525.35318 206.087812 
L 539.935983 206.087812 
L 554.518787 206.087812 
L 569.10159 206.087812 
L 583.684393 206.087812 
L 598.267197 206.087812 
L 612.85 206.087812 
L 627.432804 206.087812 
L 642.015607 206.087812 
L 656.598411 206.087812 
L 671.181214 206.087812 
L 685.764017 206.087812 
L 700.346821 206.087812 
L 714.929624 206.087812 
L 729.512428 206.087812 
" clip-path="url(#p51b8db029a)" style="fill: none; stroke: #1f77b4; stroke-width: 2; stroke-linecap: round"/>
   </g>
   <g id="line2d_67">
    <path d="M 437.856359 206.087812 
L 452.439162 206.087812 
L 467.021966 206.087812 
L 481.604769 206.087812 
L 496.187573 206.087812 
L 510.770376 206.087812 
L 525.35318 206.087812 
L 539.935983 206.087812 
L 554.518787 206.087812 
L 569.10159 206.087812 
L 583.684393 206.087812 
L 598.267197 206.087812 
L 612.85 206.087812 
L 627.432804 206.087812 
L 642.015607 206.087812 
L 656.598411 206.087812 
L 671.181214 206.087812 
L 685.764017 206.087812 
L 700.346821 206.087812 
L 714.929624 206.087812 
L 729.512428 206.087812 
" clip-path="url(#p51b8db029a)" style="fill: none; stroke: #ff7f0e; stroke-width: 2; stroke-linecap: round"/>
   </g>
   <g id="line2d_68">
    <path d="M 437.856359 206.087812 
L 452.439162 206.087812 
L 467.021966 206.087812 
L 481.604769 206.087812 
L 496.187573 206.087812 
L 510.770376 206.087812 
L 525.35318 206.087812 
L 539.935983 206.087812 
L 554.518787 206.087812 
L 569.10159 206.087812 
L 583.684393 206.087812 
L 598.267197 206.087812 
L 612.85 206.087812 
L 627.432804 206.087812 
L 642.015607 206.087812 
L 656.598411 206.087812 
L 671.181214 206.087812 
L 685.764017 206.087812 
L 700.346821 206.087812 
L 714.929624 206.087812 
L 729.512428 206.087812 
" clip-path="url(#p51b8db029a)" style="fill: none; stroke: #2ca02c; stroke-width: 2; stroke-linecap: round"/>
   </g>
   <g id="line2d_69">
    <path d="M 437.856359 206.087812 
L 452.439162 206.087812 
L 467.021966 206.087812 
L 481.604769 206.087812 
L 496.187573 206.087812 
L 510.770376 206.087812 
L 525.35318 206.087812 
L 539.935983 206.087812 
L 554.518787 206.087812 
L 569.10159 206.087812 
L 583.684393 206.087812 
L 598.267197 206.087812 
L 612.85 206.087812 
L 627.432804 206.087812 
L 642.015607 206.087812 
L 656.598411 206.087812 
L 671.181214 206.087812 
L 685.764017 206.087812 
L 700.346821 206.087812 
L 714.929624 206.087812 
L 729.512428 206.087812 
" clip-path="url(#p51b8db029a)" style="fill: none; stroke: #d62728; stroke-width: 2; stroke-linecap: round"/>
   </g>
   <g id="line2d_70">
    <path d="M 437.856359 205.433164 
L 452.439162 205.838676 
L 467.021966 205.690803 
L 481.604769 205.394159 
L 496.187573 204.990364 
L 510.770376 204.559509 
L 525.35318 204.084623 
L 539.935983 203.539465 
L 554.518787 202.945137 
L 569.10159 202.325581 
L 583.684393 201.697774 
L 598.267197 201.059438 
L 612.85 200.418206 
L 627.432804 199.776973 
L 642.015607 199.135741 
L 656.598411 198.481685 
L 671.181214 197.827263 
L 685.764017 197.17284 
L 700.346821 196.516081 
L 714.929624 195.857656 
L 729.512428 195.197873 
" clip-path="url(#p51b8db029a)" style="fill: none; stroke: #9467bd; stroke-width: 2; stroke-linecap: round"/>
   </g>
   <g id="patch_8">
    <path d="M 423.273556 388.337812 
L 423.273556 23.837812 
" style="fill: none; stroke: #cccccc; stroke-linejoin: miter; stroke-linecap: square"/>
   </g>
   <g id="patch_9">
    <path d="M 744.095231 388.337812 
L 744.095231 23.837812 
" style="fill: none; stroke: #cccccc; stroke-linejoin: miter; stroke-linecap: square"/>
   </g>
   <g id="patch_10">
    <path d="M 423.273556 388.337812 
L 744.095231 388.337812 
" style="fill: none; stroke: #cccccc; stroke-linejoin: miter; stroke-linecap: square"/>
   </g>
   <g id="patch_11">
    <path d="M 423.273556 23.837812 
L 744.095231 23.837812 
" style="fill: none; stroke: #cccccc; stroke-linejoin: miter; stroke-linecap: square"/>
   </g>
   <g id="text_26">
    <!-- Societal Perspective -->
    <g style="fill: #262626" transform="translate(513.115643 17.837812) scale(0.14 -0.14)">
     <use xlink:href="#DejaVuSans-53"/>
     <use xlink:href="#DejaVuSans-6f" transform="translate(63.476562 0)"/>
     <use xlink:href="#DejaVuSans-63" transform="translate(124.658203 0)"/>
     <use xlink:href="#DejaVuSans-69" transform="translate(179.638672 0)"/>
     <use xlink:href="#DejaVuSans-65" transform="translate(207.421875 0)"/>
     <use xlink:href="#DejaVuSans-74" transform="translate(268.945312 0)"/>
     <use xlink:href="#DejaVuSans-61" transform="translate(308.154297 0)"/>
     <use xlink:href="#DejaVuSans-6c" transform="translate(369.433594 0)"/>
     <use xlink:href="#DejaVuSans-20" transform="translate(397.216797 0)"/>
     <use xlink:href="#DejaVuSans-50" transform="translate(429.003906 0)"/>
     <use xlink:href="#DejaVuSans-65" transform="translate(485.681641 0)"/>
     <use xlink:href="#DejaVuSans-72" transform="translate(547.205078 0)"/>
     <use xlink:href="#DejaVuSans-73" transform="translate(588.318359 0)"/>
     <use xlink:href="#DejaVuSans-70" transform="translate(640.417969 0)"/>
     <use xlink:href="#DejaVuSans-65" transform="translate(703.894531 0)"/>
     <use xlink:href="#DejaVuSans-63" transform="translate(765.417969 0)"/>
     <use xlink:href="#DejaVuSans-74" transform="translate(820.398438 0)"/>
     <use xlink:href="#DejaVuSans-69" transform="translate(859.607422 0)"/>
     <use xlink:href="#DejaVuSans-76" transform="translate(887.390625 0)"/>
     <use xlink:href="#DejaVuSans-65" transform="translate(946.570312 0)"/>
    </g>
   </g>
  </g>
  <g id="axes_3">
   <g id="patch_12">
    <path d="M 757.097424 388.337812 
L 1077.919099 388.337812 
L 1077.919099 23.837812 
L 757.097424 23.837812 
z
" style="fill: #ffffff"/>
   </g>
   <g id="matplotlib.axis_5">
    <g id="xtick_13">
     <g id="line2d_71">
      <path d="M 771.680227 388.337812 
L 771.680227 23.837812 
" clip-path="url(#pcde2fb0129)" style="fill: none; stroke: #cccccc; stroke-opacity: 0.3; stroke-width: 0.8; stroke-linecap: round"/>
     </g>
     <g id="line2d_72"/>
     <g id="text_27">
      <!-- $0k -->
      <g style="fill: #262626" transform="translate(762.422415 399.43625) scale(0.1 -0.1)">
       <use xlink:href="#DejaVuSans-24"/>
       <use xlink:href="#DejaVuSans-30" transform="translate(63.623047 0)"/>
       <use xlink:href="#DejaVuSans-6b" transform="translate(127.246094 0)"/>
      </g>
     </g>
    </g>
    <g id="xtick_14">
     <g id="line2d_73">
      <path d="M 830.011441 388.337812 
L 830.011441 23.837812 
" clip-path="url(#pcde2fb0129)" style="fill: none; stroke: #cccccc; stroke-opacity: 0.3; stroke-width: 0.8; stroke-linecap: round"/>
     </g>
     <g id="line2d_74"/>
     <g id="text_28">
      <!-- $20k -->
      <g style="fill: #262626" transform="translate(817.572378 399.43625) scale(0.1 -0.1)">
       <use xlink:href="#DejaVuSans-24"/>
       <use xlink:href="#DejaVuSans-32" transform="translate(63.623047 0)"/>
       <use xlink:href="#DejaVuSans-30" transform="translate(127.246094 0)"/>
       <use xlink:href="#DejaVuSans-6b" transform="translate(190.869141 0)"/>
      </g>
     </g>
    </g>
    <g id="xtick_15">
     <g id="line2d_75">
      <path d="M 888.342655 388.337812 
L 888.342655 23.837812 
" clip-path="url(#pcde2fb0129)" style="fill: none; stroke: #cccccc; stroke-opacity: 0.3; stroke-width: 0.8; stroke-linecap: round"/>
     </g>
     <g id="line2d_76"/>
     <g id="text_29">
      <!-- $40k -->
      <g style="fill: #262626" transform="translate(875.903592 399.43625) scale(0.1 -0.1)">
       <use xlink:href="#DejaVuSans-24"/>
       <use xlink:href="#DejaVuSans-34" transform="translate(63.623047 0)"/>
       <use xlink:href="#DejaVuSans-30" transform="translate(127.246094 0)"/>
       <use xlink:href="#DejaVuSans-6b" transform="translate(190.869141 0)"/>
      </g>
     </g>
    </g>
    <g id="xtick_16">
     <g id="line2d_77">
      <path d="M 946.673868 388.337812 
L 946.673868 23.837812 
" clip-path="url(#pcde2fb0129)" style="fill: none; stroke: #cccccc; stroke-opacity: 0.3; stroke-width: 0.8; stroke-linecap: round"/>
     </g>
     <g id="line2d_78"/>
     <g id="text_30">
      <!-- $60k -->
      <g style="fill: #262626" transform="translate(934.234806 399.43625) scale(0.1 -0.1)">
       <use xlink:href="#DejaVuSans-24"/>
       <use xlink:href="#DejaVuSans-36" transform="translate(63.623047 0)"/>
       <use xlink:href="#DejaVuSans-30" transform="translate(127.246094 0)"/>
       <use xlink:href="#DejaVuSans-6b" transform="translate(190.869141 0)"/>
      </g>
     </g>
    </g>
    <g id="xtick_17">
     <g id="line2d_79">
      <path d="M 1005.005082 388.337812 
L 1005.005082 23.837812 
" clip-path="url(#pcde2fb0129)" style="fill: none; stroke: #cccccc; stroke-opacity: 0.3; stroke-width: 0.8; stroke-linecap: round"/>
     </g>
     <g id="line2d_80"/>
     <g id="text_31">
      <!-- $80k -->
      <g style="fill: #262626" transform="translate(992.56602 399.43625) scale(0.1 -0.1)">
       <use xlink:href="#DejaVuSans-24"/>
       <use xlink:href="#DejaVuSans-38" transform="translate(63.623047 0)"/>
       <use xlink:href="#DejaVuSans-30" transform="translate(127.246094 0)"/>
       <use xlink:href="#DejaVuSans-6b" transform="translate(190.869141 0)"/>
      </g>
     </g>
    </g>
    <g id="xtick_18">
     <g id="line2d_81">
      <path d="M 1063.336296 388.337812 
L 1063.336296 23.837812 
" clip-path="url(#pcde2fb0129)" style="fill: none; stroke: #cccccc; stroke-opacity: 0.3; stroke-width: 0.8; stroke-linecap: round"/>
     </g>
     <g id="line2d_82"/>
     <g id="text_32">
      <!-- $100k -->
      <g style="fill: #262626" transform="translate(1047.715983 399.43625) scale(0.1 -0.1)">
       <use xlink:href="#DejaVuSans-24"/>
       <use xlink:href="#DejaVuSans-31" transform="translate(63.623047 0)"/>
       <use xlink:href="#DejaVuSans-30" transform="translate(127.246094 0)"/>
       <use xlink:href="#DejaVuSans-30" transform="translate(190.869141 0)"/>
       <use xlink:href="#DejaVuSans-6b" transform="translate(254.492188 0)"/>
      </g>
     </g>
    </g>
    <g id="text_33">
     <!-- Willingness-to-Pay Threshold ($) -->
     <g style="fill: #262626" transform="translate(820.765761 414.634062) scale(0.12 -0.12)">
      <use xlink:href="#DejaVuSans-57"/>
      <use xlink:href="#DejaVuSans-69" transform="translate(96.626953 0)"/>
      <use xlink:href="#DejaVuSans-6c" transform="translate(124.410156 0)"/>
      <use xlink:href="#DejaVuSans-6c" transform="translate(152.193359 0)"/>
      <use xlink:href="#DejaVuSans-69" transform="translate(179.976562 0)"/>
      <use xlink:href="#DejaVuSans-6e" transform="translate(207.759766 0)"/>
      <use xlink:href="#DejaVuSans-67" transform="translate(271.138672 0)"/>
      <use xlink:href="#DejaVuSans-6e" transform="translate(334.615234 0)"/>
      <use xlink:href="#DejaVuSans-65" transform="translate(397.994141 0)"/>
      <use xlink:href="#DejaVuSans-73" transform="translate(459.517578 0)"/>
      <use xlink:href="#DejaVuSans-73" transform="translate(511.617188 0)"/>
      <use xlink:href="#DejaVuSans-2d" transform="translate(563.716797 0)"/>
      <use xlink:href="#DejaVuSans-74" transform="translate(599.800781 0)"/>
      <use xlink:href="#DejaVuSans-6f" transform="translate(639.009766 0)"/>
      <use xlink:href="#DejaVuSans-2d" transform="translate(702.066406 0)"/>
      <use xlink:href="#DejaVuSans-50" transform="translate(738.150391 0)"/>
      <use xlink:href="#DejaVuSans-61" transform="translate(793.953125 0)"/>
      <use xlink:href="#DejaVuSans-79" transform="translate(855.232422 0)"/>
      <use xlink:href="#DejaVuSans-20" transform="translate(914.412109 0)"/>
      <use xlink:href="#DejaVuSans-54" transform="translate(946.199219 0)"/>
      <use xlink:href="#DejaVuSans-68" transform="translate(1007.283203 0)"/>
      <use xlink:href="#DejaVuSans-72" transform="translate(1070.662109 0)"/>
      <use xlink:href="#DejaVuSans-65" transform="translate(1109.525391 0)"/>
      <use xlink:href="#DejaVuSans-73" transform="translate(1171.048828 0)"/>
      <use xlink:href="#DejaVuSans-68" transform="translate(1223.148438 0)"/>
      <use xlink:href="#DejaVuSans-6f" transform="translate(1286.527344 0)"/>
      <use xlink:href="#DejaVuSans-6c" transform="translate(1347.708984 0)"/>
      <use xlink:href="#DejaVuSans-64" transform="translate(1375.492188 0)"/>
      <use xlink:href="#DejaVuSans-20" transform="translate(1438.96875 0)"/>
      <use xlink:href="#DejaVuSans-28" transform="translate(1470.755859 0)"/>
      <use xlink:href="#DejaVuSans-24" transform="translate(1509.769531 0)"/>
      <use xlink:href="#DejaVuSans-29" transform="translate(1573.392578 0)"/>
     </g>
    </g>
   </g>
   <g id="matplotlib.axis_6">
    <g id="ytick_19">
     <g id="line2d_83">
      <path d="M 757.097424 371.380806 
L 1077.919099 371.380806 
" clip-path="url(#pcde2fb0129)" style="fill: none; stroke: #cccccc; stroke-opacity: 0.3; stroke-width: 0.8; stroke-linecap: round"/>
     </g>
     <g id="line2d_84"/>
    </g>
    <g id="ytick_20">
     <g id="line2d_85">
      <path d="M 757.097424 330.057558 
L 1077.919099 330.057558 
" clip-path="url(#pcde2fb0129)" style="fill: none; stroke: #cccccc; stroke-opacity: 0.3; stroke-width: 0.8; stroke-linecap: round"/>
     </g>
     <g id="line2d_86"/>
    </g>
    <g id="ytick_21">
     <g id="line2d_87">
      <path d="M 757.097424 288.734309 
L 1077.919099 288.734309 
" clip-path="url(#pcde2fb0129)" style="fill: none; stroke: #cccccc; stroke-opacity: 0.3; stroke-width: 0.8; stroke-linecap: round"/>
     </g>
     <g id="line2d_88"/>
    </g>
    <g id="ytick_22">
     <g id="line2d_89">
      <path d="M 757.097424 247.411061 
L 1077.919099 247.411061 
" clip-path="url(#pcde2fb0129)" style="fill: none; stroke: #cccccc; stroke-opacity: 0.3; stroke-width: 0.8; stroke-linecap: round"/>
     </g>
     <g id="line2d_90"/>
    </g>
    <g id="ytick_23">
     <g id="line2d_91">
      <path d="M 757.097424 206.087812 
L 1077.919099 206.087812 
" clip-path="url(#pcde2fb0129)" style="fill: none; stroke: #cccccc; stroke-opacity: 0.3; stroke-width: 0.8; stroke-linecap: round"/>
     </g>
     <g id="line2d_92"/>
    </g>
    <g id="ytick_24">
     <g id="line2d_93">
      <path d="M 757.097424 164.764564 
L 1077.919099 164.764564 
" clip-path="url(#pcde2fb0129)" style="fill: none; stroke: #cccccc; stroke-opacity: 0.3; stroke-width: 0.8; stroke-linecap: round"/>
     </g>
     <g id="line2d_94"/>
    </g>
    <g id="ytick_25">
     <g id="line2d_95">
      <path d="M 757.097424 123.441316 
L 1077.919099 123.441316 
" clip-path="url(#pcde2fb0129)" style="fill: none; stroke: #cccccc; stroke-opacity: 0.3; stroke-width: 0.8; stroke-linecap: round"/>
     </g>
     <g id="line2d_96"/>
    </g>
    <g id="ytick_26">
     <g id="line2d_97">
      <path d="M 757.097424 82.118067 
L 1077.919099 82.118067 
" clip-path="url(#pcde2fb0129)" style="fill: none; stroke: #cccccc; stroke-opacity: 0.3; stroke-width: 0.8; stroke-linecap: round"/>
     </g>
     <g id="line2d_98"/>
    </g>
    <g id="ytick_27">
     <g id="line2d_99">
      <path d="M 757.097424 40.794819 
L 1077.919099 40.794819 
" clip-path="url(#pcde2fb0129)" style="fill: none; stroke: #cccccc; stroke-opacity: 0.3; stroke-width: 0.8; stroke-linecap: round"/>
     </g>
     <g id="line2d_100"/>
    </g>
   </g>
   <g id="line2d_101">
    <path d="M 771.680227 206.087812 
L 786.263031 206.087812 
L 800.845834 206.087812 
L 815.428637 206.087812 
L 830.011441 206.087812 
L 844.594244 206.087812 
L 859.177048 206.087812 
L 873.759851 206.087812 
L 888.342655 206.087812 
L 902.925458 206.087812 
L 917.508261 206.087812 
L 932.091065 206.087812 
L 946.673868 206.087812 
L 961.256672 206.087812 
L 975.839475 206.087812 
L 990.422279 206.087812 
L 1005.005082 206.087812 
L 1019.587886 206.087812 
L 1034.170689 206.087812 
L 1048.753492 206.087812 
L 1063.336296 206.087812 
" clip-path="url(#pcde2fb0129)" style="fill: none; stroke: #1f77b4; stroke-width: 2; stroke-linecap: round"/>
   </g>
   <g id="line2d_102">
    <path d="M 771.680227 206.087812 
L 786.263031 206.77971 
L 800.845834 223.398313 
L 815.428637 268.423149 
L 830.011441 336.591981 
L 844.594244 347.337241 
L 859.177048 339.149406 
L 873.759851 335.450182 
L 888.342655 334.242436 
L 902.925458 334.62633 
L 917.508261 336.330478 
L 932.091065 338.647964 
L 946.673868 341.305651 
L 961.256672 344.339213 
L 975.839475 347.801909 
L 990.422279 351.450078 
L 1005.005082 355.186145 
L 1019.587886 359.14462 
L 1034.170689 363.238577 
L 1048.753492 367.42666 
L 1063.336296 371.769631 
" clip-path="url(#pcde2fb0129)" style="fill: none; stroke: #ff7f0e; stroke-width: 2; stroke-linecap: round"/>
   </g>
   <g id="line2d_103">
    <path d="M 771.680227 206.087812 
L 786.263031 206.087812 
L 800.845834 206.087812 
L 815.428637 206.087812 
L 830.011441 206.087812 
L 844.594244 206.087812 
L 859.177048 206.087812 
L 873.759851 206.087812 
L 888.342655 206.087812 
L 902.925458 206.087812 
L 917.508261 206.087812 
L 932.091065 206.087812 
L 946.673868 206.087812 
L 961.256672 206.087812 
L 975.839475 206.087812 
L 990.422279 206.087812 
L 1005.005082 206.087812 
L 1019.587886 206.087812 
L 1034.170689 206.087812 
L 1048.753492 206.087812 
L 1063.336296 206.087812 
" clip-path="url(#pcde2fb0129)" style="fill: none; stroke: #2ca02c; stroke-width: 2; stroke-linecap: round"/>
   </g>
   <g id="line2d_104">
    <path d="M 771.680227 206.087812 
L 786.263031 206.087812 
L 800.845834 206.087812 
L 815.428637 206.087812 
L 830.011441 206.087812 
L 844.594244 206.087812 
L 859.177048 206.087812 
L 873.759851 206.087812 
L 888.342655 206.087812 
L 902.925458 206.087812 
L 917.508261 206.087812 
L 932.091065 206.087812 
L 946.673868 206.087812 
L 961.256672 206.087812 
L 975.839475 206.087812 
L 990.422279 206.087812 
L 1005.005082 206.087812 
L 1019.587886 206.087812 
L 1034.170689 206.087812 
L 1048.753492 206.087812 
L 1063.336296 206.087812 
" clip-path="url(#pcde2fb0129)" style="fill: none; stroke: #d62728; stroke-width: 2; stroke-linecap: round"/>
   </g>
   <g id="line2d_105">
    <path d="M 771.680227 205.433164 
L 786.263031 205.838676 
L 800.845834 205.707877 
L 815.428637 206.438162 
L 830.011441 210.018292 
L 844.594244 217.206843 
L 859.177048 227.492658 
L 873.759851 239.565331 
L 888.342655 239.25909 
L 902.925458 236.87491 
L 917.508261 235.074506 
L 932.091065 233.578975 
L 946.673868 232.318426 
L 961.256672 231.315178 
L 975.839475 230.490757 
L 990.422279 229.795245 
L 1005.005082 229.216472 
L 1019.587886 228.726244 
L 1034.170689 228.276093 
L 1048.753492 227.842485 
L 1063.336296 227.442259 
" clip-path="url(#pcde2fb0129)" style="fill: none; stroke: #9467bd; stroke-width: 2; stroke-linecap: round"/>
   </g>
   <g id="patch_13">
    <path d="M 757.097424 388.337812 
L 757.097424 23.837812 
" style="fill: none; stroke: #cccccc; stroke-linejoin: miter; stroke-linecap: square"/>
   </g>
   <g id="patch_14">
    <path d="M 1077.919099 388.337812 
L 1077.919099 23.837812 
" style="fill: none; stroke: #cccccc; stroke-linejoin: miter; stroke-linecap: square"/>
   </g>
   <g id="patch_15">
    <path d="M 757.097424 388.337812 
L 1077.919099 388.337812 
" style="fill: none; stroke: #cccccc; stroke-linejoin: miter; stroke-linecap: square"/>
   </g>
   <g id="patch_16">
    <path d="M 757.097424 23.837812 
L 1077.919099 23.837812 
" style="fill: none; stroke: #cccccc; stroke-linejoin: miter; stroke-linecap: square"/>
   </g>
   <g id="text_34">
    <!-- Delta (Societal - Health System) -->
    <g style="fill: #262626" transform="translate(805.04998 17.837812) scale(0.14 -0.14)">
     <defs>
      <path id="DejaVuSans-44" d="M 1259 4147 
L 1259 519 
L 2022 519 
Q 2988 519 3436 956 
Q 3884 1394 3884 2338 
Q 3884 3275 3436 3711 
Q 2988 4147 2022 4147 
L 1259 4147 
z
M 628 4666 
L 1925 4666 
Q 3281 4666 3915 4102 
Q 4550 3538 4550 2338 
Q 4550 1131 3912 565 
Q 3275 0 1925 0 
L 628 0 
L 628 4666 
z
" transform="scale(0.015625)"/>
     </defs>
     <use xlink:href="#DejaVuSans-44"/>
     <use xlink:href="#DejaVuSans-65" transform="translate(77.001953 0)"/>
     <use xlink:href="#DejaVuSans-6c" transform="translate(138.525391 0)"/>
     <use xlink:href="#DejaVuSans-74" transform="translate(166.308594 0)"/>
     <use xlink:href="#DejaVuSans-61" transform="translate(205.517578 0)"/>
     <use xlink:href="#DejaVuSans-20" transform="translate(266.796875 0)"/>
     <use xlink:href="#DejaVuSans-28" transform="translate(298.583984 0)"/>
     <use xlink:href="#DejaVuSans-53" transform="translate(337.597656 0)"/>
     <use xlink:href="#DejaVuSans-6f" transform="translate(401.074219 0)"/>
     <use xlink:href="#DejaVuSans-63" transform="translate(462.255859 0)"/>
     <use xlink:href="#DejaVuSans-69" transform="translate(517.236328 0)"/>
     <use xlink:href="#DejaVuSans-65" transform="translate(545.019531 0)"/>
     <use xlink:href="#DejaVuSans-74" transform="translate(606.542969 0)"/>
     <use xlink:href="#DejaVuSans-61" transform="translate(645.751953 0)"/>
     <use xlink:href="#DejaVuSans-6c" transform="translate(707.03125 0)"/>
     <use xlink:href="#DejaVuSans-20" transform="translate(734.814453 0)"/>
     <use xlink:href="#DejaVuSans-2d" transform="translate(766.601562 0)"/>
     <use xlink:href="#DejaVuSans-20" transform="translate(802.685547 0)"/>
     <use xlink:href="#DejaVuSans-48" transform="translate(834.472656 0)"/>
     <use xlink:href="#DejaVuSans-65" transform="translate(909.667969 0)"/>
     <use xlink:href="#DejaVuSans-61" transform="translate(971.191406 0)"/>
     <use xlink:href="#DejaVuSans-6c" transform="translate(1032.470703 0)"/>
     <use xlink:href="#DejaVuSans-74" transform="translate(1060.253906 0)"/>
     <use xlink:href="#DejaVuSans-68" transform="translate(1099.462891 0)"/>
     <use xlink:href="#DejaVuSans-20" transform="translate(1162.841797 0)"/>
     <use xlink:href="#DejaVuSans-53" transform="translate(1194.628906 0)"/>
     <use xlink:href="#DejaVuSans-79" transform="translate(1258.105469 0)"/>
     <use xlink:href="#DejaVuSans-73" transform="translate(1317.285156 0)"/>
     <use xlink:href="#DejaVuSans-74" transform="translate(1369.384766 0)"/>
     <use xlink:href="#DejaVuSans-65" transform="translate(1408.59375 0)"/>
     <use xlink:href="#DejaVuSans-6d" transform="translate(1470.117188 0)"/>
     <use xlink:href="#DejaVuSans-29" transform="translate(1567.529297 0)"/>
    </g>
   </g>
   <g id="legend_1">
    <g id="line2d_106">
     <path d="M 1102.960183 36.93625 
L 1112.960183 36.93625 
L 1122.960183 36.93625 
" style="fill: none; stroke: #1f77b4; stroke-width: 2; stroke-linecap: round"/>
    </g>
    <g id="text_35">
     <!-- Hpv Vaccination -->
     <g style="fill: #262626" transform="translate(1130.960183 40.43625) scale(0.1 -0.1)">
      <use xlink:href="#DejaVuSans-48"/>
      <use xlink:href="#DejaVuSans-70" transform="translate(75.195312 0)"/>
      <use xlink:href="#DejaVuSans-76" transform="translate(138.671875 0)"/>
      <use xlink:href="#DejaVuSans-20" transform="translate(197.851562 0)"/>
      <use xlink:href="#DejaVuSans-56" transform="translate(229.638672 0)"/>
      <use xlink:href="#DejaVuSans-61" transform="translate(290.296875 0)"/>
      <use xlink:href="#DejaVuSans-63" transform="translate(351.576172 0)"/>
      <use xlink:href="#DejaVuSans-63" transform="translate(406.556641 0)"/>
      <use xlink:href="#DejaVuSans-69" transform="translate(461.537109 0)"/>
      <use xlink:href="#DejaVuSans-6e" transform="translate(489.320312 0)"/>
      <use xlink:href="#DejaVuSans-61" transform="translate(552.699219 0)"/>
      <use xlink:href="#DejaVuSans-74" transform="translate(613.978516 0)"/>
      <use xlink:href="#DejaVuSans-69" transform="translate(653.1875 0)"/>
      <use xlink:href="#DejaVuSans-6f" transform="translate(680.970703 0)"/>
      <use xlink:href="#DejaVuSans-6e" transform="translate(742.152344 0)"/>
     </g>
    </g>
    <g id="line2d_107">
     <path d="M 1102.960183 51.614375 
L 1112.960183 51.614375 
L 1122.960183 51.614375 
" style="fill: none; stroke: #ff7f0e; stroke-width: 2; stroke-linecap: round"/>
    </g>
    <g id="text_36">
     <!-- Smoking Cessation -->
     <g style="fill: #262626" transform="translate(1130.960183 55.114375) scale(0.1 -0.1)">
      <defs>
       <path id="DejaVuSans-43" d="M 4122 4306 
L 4122 3641 
Q 3803 3938 3442 4084 
Q 3081 4231 2675 4231 
Q 1875 4231 1450 3742 
Q 1025 3253 1025 2328 
Q 1025 1406 1450 917 
Q 1875 428 2675 428 
Q 3081 428 3442 575 
Q 3803 722 4122 1019 
L 4122 359 
Q 3791 134 3420 21 
Q 3050 -91 2638 -91 
Q 1578 -91 968 557 
Q 359 1206 359 2328 
Q 359 3453 968 4101 
Q 1578 4750 2638 4750 
Q 3056 4750 3426 4639 
Q 3797 4528 4122 4306 
z
" transform="scale(0.015625)"/>
      </defs>
      <use xlink:href="#DejaVuSans-53"/>
      <use xlink:href="#DejaVuSans-6d" transform="translate(63.476562 0)"/>
      <use xlink:href="#DejaVuSans-6f" transform="translate(160.888672 0)"/>
      <use xlink:href="#DejaVuSans-6b" transform="translate(222.070312 0)"/>
      <use xlink:href="#DejaVuSans-69" transform="translate(279.980469 0)"/>
      <use xlink:href="#DejaVuSans-6e" transform="translate(307.763672 0)"/>
      <use xlink:href="#DejaVuSans-67" transform="translate(371.142578 0)"/>
      <use xlink:href="#DejaVuSans-20" transform="translate(434.619141 0)"/>
      <use xlink:href="#DejaVuSans-43" transform="translate(466.40625 0)"/>
      <use xlink:href="#DejaVuSans-65" transform="translate(536.230469 0)"/>
      <use xlink:href="#DejaVuSans-73" transform="translate(597.753906 0)"/>
      <use xlink:href="#DejaVuSans-73" transform="translate(649.853516 0)"/>
      <use xlink:href="#DejaVuSans-61" transform="translate(701.953125 0)"/>
      <use xlink:href="#DejaVuSans-74" transform="translate(763.232422 0)"/>
      <use xlink:href="#DejaVuSans-69" transform="translate(802.441406 0)"/>
      <use xlink:href="#DejaVuSans-6f" transform="translate(830.224609 0)"/>
      <use xlink:href="#DejaVuSans-6e" transform="translate(891.40625 0)"/>
     </g>
    </g>
    <g id="line2d_108">
     <path d="M 1102.960183 66.2925 
L 1112.960183 66.2925 
L 1122.960183 66.2925 
" style="fill: none; stroke: #2ca02c; stroke-width: 2; stroke-linecap: round"/>
    </g>
    <g id="text_37">
     <!-- Hepatitis C Therapy -->
     <g style="fill: #262626" transform="translate(1130.960183 69.7925) scale(0.1 -0.1)">
      <use xlink:href="#DejaVuSans-48"/>
      <use xlink:href="#DejaVuSans-65" transform="translate(75.195312 0)"/>
      <use xlink:href="#DejaVuSans-70" transform="translate(136.71875 0)"/>
      <use xlink:href="#DejaVuSans-61" transform="translate(200.195312 0)"/>
      <use xlink:href="#DejaVuSans-74" transform="translate(261.474609 0)"/>
      <use xlink:href="#DejaVuSans-69" transform="translate(300.683594 0)"/>
      <use xlink:href="#DejaVuSans-74" transform="translate(328.466797 0)"/>
      <use xlink:href="#DejaVuSans-69" transform="translate(367.675781 0)"/>
      <use xlink:href="#DejaVuSans-73" transform="translate(395.458984 0)"/>
      <use xlink:href="#DejaVuSans-20" transform="translate(447.558594 0)"/>
      <use xlink:href="#DejaVuSans-43" transform="translate(479.345703 0)"/>
      <use xlink:href="#DejaVuSans-20" transform="translate(549.169922 0)"/>
      <use xlink:href="#DejaVuSans-54" transform="translate(580.957031 0)"/>
      <use xlink:href="#DejaVuSans-68" transform="translate(642.041016 0)"/>
      <use xlink:href="#DejaVuSans-65" transform="translate(705.419922 0)"/>
      <use xlink:href="#DejaVuSans-72" transform="translate(766.943359 0)"/>
      <use xlink:href="#DejaVuSans-61" transform="translate(808.056641 0)"/>
      <use xlink:href="#DejaVuSans-70" transform="translate(869.335938 0)"/>
      <use xlink:href="#DejaVuSans-79" transform="translate(932.8125 0)"/>
     </g>
    </g>
    <g id="line2d_109">
     <path d="M 1102.960183 80.970625 
L 1112.960183 80.970625 
L 1122.960183 80.970625 
" style="fill: none; stroke: #d62728; stroke-width: 2; stroke-linecap: round"/>
    </g>
    <g id="text_38">
     <!-- Childhood Obesity Prevention -->
     <g style="fill: #262626" transform="translate(1130.960183 84.470625) scale(0.1 -0.1)">
      <defs>
       <path id="DejaVuSans-4f" d="M 2522 4238 
Q 1834 4238 1429 3725 
Q 1025 3213 1025 2328 
Q 1025 1447 1429 934 
Q 1834 422 2522 422 
Q 3209 422 3611 934 
Q 4013 1447 4013 2328 
Q 4013 3213 3611 3725 
Q 3209 4238 2522 4238 
z
M 2522 4750 
Q 3503 4750 4090 4092 
Q 4678 3434 4678 2328 
Q 4678 1225 4090 567 
Q 3503 -91 2522 -91 
Q 1538 -91 948 565 
Q 359 1222 359 2328 
Q 359 3434 948 4092 
Q 1538 4750 2522 4750 
z
" transform="scale(0.015625)"/>
       <path id="DejaVuSans-62" d="M 3116 1747 
Q 3116 2381 2855 2742 
Q 2594 3103 2138 3103 
Q 1681 3103 1420 2742 
Q 1159 2381 1159 1747 
Q 1159 1113 1420 752 
Q 1681 391 2138 391 
Q 2594 391 2855 752 
Q 3116 1113 3116 1747 
z
M 1159 2969 
Q 1341 3281 1617 3432 
Q 1894 3584 2278 3584 
Q 2916 3584 3314 3078 
Q 3713 2572 3713 1747 
Q 3713 922 3314 415 
Q 2916 -91 2278 -91 
Q 1894 -91 1617 61 
Q 1341 213 1159 525 
L 1159 0 
L 581 0 
L 581 4863 
L 1159 4863 
L 1159 2969 
z
" transform="scale(0.015625)"/>
      </defs>
      <use xlink:href="#DejaVuSans-43"/>
      <use xlink:href="#DejaVuSans-68" transform="translate(69.824219 0)"/>
      <use xlink:href="#DejaVuSans-69" transform="translate(133.203125 0)"/>
      <use xlink:href="#DejaVuSans-6c" transform="translate(160.986328 0)"/>
      <use xlink:href="#DejaVuSans-64" transform="translate(188.769531 0)"/>
      <use xlink:href="#DejaVuSans-68" transform="translate(252.246094 0)"/>
      <use xlink:href="#DejaVuSans-6f" transform="translate(315.625 0)"/>
      <use xlink:href="#DejaVuSans-6f" transform="translate(376.806641 0)"/>
      <use xlink:href="#DejaVuSans-64" transform="translate(437.988281 0)"/>
      <use xlink:href="#DejaVuSans-20" transform="translate(501.464844 0)"/>
      <use xlink:href="#DejaVuSans-4f" transform="translate(533.251953 0)"/>
      <use xlink:href="#DejaVuSans-62" transform="translate(611.962891 0)"/>
      <use xlink:href="#DejaVuSans-65" transform="translate(675.439453 0)"/>
      <use xlink:href="#DejaVuSans-73" transform="translate(736.962891 0)"/>
      <use xlink:href="#DejaVuSans-69" transform="translate(789.0625 0)"/>
      <use xlink:href="#DejaVuSans-74" transform="translate(816.845703 0)"/>
      <use xlink:href="#DejaVuSans-79" transform="translate(856.054688 0)"/>
      <use xlink:href="#DejaVuSans-20" transform="translate(915.234375 0)"/>
      <use xlink:href="#DejaVuSans-50" transform="translate(947.021484 0)"/>
      <use xlink:href="#DejaVuSans-72" transform="translate(1005.574219 0)"/>
      <use xlink:href="#DejaVuSans-65" transform="translate(1044.4375 0)"/>
      <use xlink:href="#DejaVuSans-76" transform="translate(1105.960938 0)"/>
      <use xlink:href="#DejaVuSans-65" transform="translate(1165.140625 0)"/>
      <use xlink:href="#DejaVuSans-6e" transform="translate(1226.664062 0)"/>
      <use xlink:href="#DejaVuSans-74" transform="translate(1290.042969 0)"/>
      <use xlink:href="#DejaVuSans-69" transform="translate(1329.251953 0)"/>
      <use xlink:href="#DejaVuSans-6f" transform="translate(1357.035156 0)"/>
      <use xlink:href="#DejaVuSans-6e" transform="translate(1418.216797 0)"/>
     </g>
    </g>
    <g id="line2d_110">
     <path d="M 1102.960183 95.64875 
L 1112.960183 95.64875 
L 1122.960183 95.64875 
" style="fill: none; stroke: #9467bd; stroke-width: 2; stroke-linecap: round"/>
    </g>
    <g id="text_39">
     <!-- Housing Insulation -->
     <g style="fill: #262626" transform="translate(1130.960183 99.14875) scale(0.1 -0.1)">
      <use xlink:href="#DejaVuSans-48"/>
      <use xlink:href="#DejaVuSans-6f" transform="translate(75.195312 0)"/>
      <use xlink:href="#DejaVuSans-75" transform="translate(136.376953 0)"/>
      <use xlink:href="#DejaVuSans-73" transform="translate(199.755859 0)"/>
      <use xlink:href="#DejaVuSans-69" transform="translate(251.855469 0)"/>
      <use xlink:href="#DejaVuSans-6e" transform="translate(279.638672 0)"/>
      <use xlink:href="#DejaVuSans-67" transform="translate(343.017578 0)"/>
      <use xlink:href="#DejaVuSans-20" transform="translate(406.494141 0)"/>
      <use xlink:href="#DejaVuSans-49" transform="translate(438.28125 0)"/>
      <use xlink:href="#DejaVuSans-6e" transform="translate(467.773438 0)"/>
      <use xlink:href="#DejaVuSans-73" transform="translate(531.152344 0)"/>
      <use xlink:href="#DejaVuSans-75" transform="translate(583.251953 0)"/>
      <use xlink:href="#DejaVuSans-6c" transform="translate(646.630859 0)"/>
      <use xlink:href="#DejaVuSans-61" transform="translate(674.414062 0)"/>
      <use xlink:href="#DejaVuSans-74" transform="translate(735.693359 0)"/>
      <use xlink:href="#DejaVuSans-69" transform="translate(774.902344 0)"/>
      <use xlink:href="#DejaVuSans-6f" transform="translate(802.685547 0)"/>
      <use xlink:href="#DejaVuSans-6e" transform="translate(863.867188 0)"/>
     </g>
    </g>
   </g>
  </g>
 </g>
 <defs>
  <clipPath id="p9e9656f883">
   <rect x="89.449688" y="23.837812" width="320.821676" height="364.5"/>
  </clipPath>
  <clipPath id="p51b8db029a">
   <rect x="423.273556" y="23.837812" width="320.821676" height="364.5"/>
  </clipPath>
  <clipPath id="pcde2fb0129">
   <rect x="757.097424" y="23.837812" width="320.821676" height="364.5"/>
  </clipPath>
 </defs>
</svg>
