<?xml version="1.0" encoding="UTF-8" standalone="no"?>
<!DOCTYPE svg PUBLIC "-//W3C//DTD SVG 1.1//EN"
 "http://www.w3.org/Graphics/SVG/1.1/DTD/svg11.dtd">
<!-- Generated by graphviz version 14.0.2 (20251019.1705)
 -->
<!-- Pages: 1 -->
<svg width="747pt" height="503pt"
 viewBox="0.00 0.00 747.00 503.00" xmlns="http://www.w3.org/2000/svg" xmlns:xlink="http://www.w3.org/1999/xlink">
<g id="graph0" class="graph" transform="scale(1 1) rotate(0) translate(4 498.95)">
<polygon fill="white" stroke="none" points="-4,4 -4,-498.95 743.03,-498.95 743.03,4 -4,4"/>
<!-- D -->
<g id="node1" class="node">
<title>D</title>
<polygon fill="none" stroke="black" points="410.44,-494.95 346.44,-494.95 346.44,-458.95 410.44,-458.95 410.44,-494.95"/>
<text xml:space="preserve" text-anchor="middle" x="378.44" y="-471.9" font-family="Times,serif" font-size="14.00">Decision</text>
</g>
<!-- SC -->
<g id="node2" class="node">
<title>SC</title>
<ellipse fill="none" stroke="black" cx="304.44" cy="-403.95" rx="63.63" ry="18"/>
<text xml:space="preserve" text-anchor="middle" x="304.44" y="-398.9" font-family="Times,serif" font-size="14.00">Standard Care</text>
</g>
<!-- D&#45;&gt;SC -->
<g id="edge1" class="edge">
<title>D&#45;&gt;SC</title>
<path fill="none" stroke="black" d="M360.53,-458.76C351.37,-449.98 340.06,-439.13 330.01,-429.49"/>
<polygon fill="black" stroke="black" points="332.66,-427.18 323.02,-422.78 327.82,-432.23 332.66,-427.18"/>
</g>
<!-- NT -->
<g id="node3" class="node">
<title>NT</title>
<ellipse fill="none" stroke="black" cx="495.44" cy="-403.95" rx="68.75" ry="18"/>
<text xml:space="preserve" text-anchor="middle" x="495.44" y="-398.9" font-family="Times,serif" font-size="14.00">New Treatment</text>
</g>
<!-- D&#45;&gt;NT -->
<g id="edge2" class="edge">
<title>D&#45;&gt;NT</title>
<path fill="none" stroke="black" d="M407.06,-458.58C422.89,-448.97 442.72,-436.94 459.58,-426.71"/>
<polygon fill="black" stroke="black" points="461.09,-429.89 467.82,-421.71 457.45,-423.91 461.09,-429.89"/>
</g>
<!-- SC_Healthy -->
<g id="node4" class="node">
<title>SC_Healthy</title>
<ellipse fill="none" stroke="black" cx="234.44" cy="-308.29" rx="58.51" ry="40.66"/>
<text xml:space="preserve" text-anchor="middle" x="234.44" y="-319.74" font-family="Times,serif" font-size="14.00">Healthy</text>
<text xml:space="preserve" text-anchor="middle" x="234.44" y="-303.24" font-family="Times,serif" font-size="14.00">Cost: 0</text>
<text xml:space="preserve" text-anchor="middle" x="234.44" y="-286.74" font-family="Times,serif" font-size="14.00">QALY: 0.95</text>
</g>
<!-- SC&#45;&gt;SC_Healthy -->
<g id="edge3" class="edge">
<title>SC&#45;&gt;SC_Healthy</title>
<path fill="none" stroke="black" d="M291.92,-386.21C285.16,-377.16 276.45,-365.51 267.87,-354.02"/>
<polygon fill="black" stroke="black" points="270.75,-352.03 261.96,-346.12 265.14,-356.22 270.75,-352.03"/>
</g>
<!-- SC_Respiratory Illness -->
<g id="node5" class="node">
<title>SC_Respiratory Illness</title>
<ellipse fill="none" stroke="black" cx="83.44" cy="-174.48" rx="83.44" ry="40.66"/>
<text xml:space="preserve" text-anchor="middle" x="83.44" y="-185.93" font-family="Times,serif" font-size="14.00">Respiratory Illness</text>
<text xml:space="preserve" text-anchor="middle" x="83.44" y="-169.43" font-family="Times,serif" font-size="14.00">Cost: 1440</text>
<text xml:space="preserve" text-anchor="middle" x="83.44" y="-152.93" font-family="Times,serif" font-size="14.00">QALY: 0.75</text>
</g>
<!-- SC&#45;&gt;SC_Respiratory Illness -->
<g id="edge4" class="edge">
<title>SC&#45;&gt;SC_Respiratory Illness</title>
<path fill="none" stroke="black" d="M254.69,-392.41C226.26,-384.35 191.41,-370.81 166.44,-348.95 129.74,-316.83 107.9,-264.88 95.91,-226.19"/>
<polygon fill="black" stroke="black" points="99.26,-225.2 93.07,-216.6 92.55,-227.19 99.26,-225.2"/>
</g>
<!-- SC_Other Illnesses -->
<g id="node6" class="node">
<title>SC_Other Illnesses</title>
<ellipse fill="none" stroke="black" cx="244.44" cy="-40.66" rx="68.59" ry="40.66"/>
<text xml:space="preserve" text-anchor="middle" x="244.44" y="-52.11" font-family="Times,serif" font-size="14.00">Other Illnesses</text>
<text xml:space="preserve" text-anchor="middle" x="244.44" y="-35.61" font-family="Times,serif" font-size="14.00">Cost: 2400</text>
<text xml:space="preserve" text-anchor="middle" x="244.44" y="-19.11" font-family="Times,serif" font-size="14.00">QALY: 0.7</text>
</g>
<!-- SC&#45;&gt;SC_Other Illnesses -->
<g id="edge5" class="edge">
<title>SC&#45;&gt;SC_Other Illnesses</title>
<path fill="none" stroke="black" d="M318.08,-386.11C325.38,-375.99 333.63,-362.49 337.44,-348.95 347.23,-314.16 342.3,-303.45 337.44,-267.63 329.14,-206.49 324.92,-190.46 300.44,-133.82 293.74,-118.32 284.81,-102.3 276.06,-88.06"/>
<polygon fill="black" stroke="black" points="279.14,-86.39 270.86,-79.79 273.22,-90.11 279.14,-86.39"/>
</g>
<!-- NT_Healthy -->
<g id="node7" class="node">
<title>NT_Healthy</title>
<ellipse fill="none" stroke="black" cx="554.44" cy="-308.29" rx="58.51" ry="40.66"/>
<text xml:space="preserve" text-anchor="middle" x="554.44" y="-319.74" font-family="Times,serif" font-size="14.00">Healthy</text>
<text xml:space="preserve" text-anchor="middle" x="554.44" y="-303.24" font-family="Times,serif" font-size="14.00">Cost: 4200</text>
<text xml:space="preserve" text-anchor="middle" x="554.44" y="-286.74" font-family="Times,serif" font-size="14.00">QALY: 0.96</text>
</g>
<!-- NT&#45;&gt;NT_Healthy -->
<g id="edge6" class="edge">
<title>NT&#45;&gt;NT_Healthy</title>
<path fill="none" stroke="black" d="M506.26,-385.77C511.71,-377.11 518.62,-366.16 525.48,-355.26"/>
<polygon fill="black" stroke="black" points="528.29,-357.37 530.66,-347.04 522.37,-353.64 528.29,-357.37"/>
</g>
<!-- NT_Respiratory Illness -->
<g id="node8" class="node">
<title>NT_Respiratory Illness</title>
<ellipse fill="none" stroke="black" cx="467.44" cy="-174.48" rx="83.44" ry="40.66"/>
<text xml:space="preserve" text-anchor="middle" x="467.44" y="-185.93" font-family="Times,serif" font-size="14.00">Respiratory Illness</text>
<text xml:space="preserve" text-anchor="middle" x="467.44" y="-169.43" font-family="Times,serif" font-size="14.00">Cost: 960</text>
<text xml:space="preserve" text-anchor="middle" x="467.44" y="-152.93" font-family="Times,serif" font-size="14.00">QALY: 0.85</text>
</g>
<!-- NT&#45;&gt;NT_Respiratory Illness -->
<g id="edge7" class="edge">
<title>NT&#45;&gt;NT_Respiratory Illness</title>
<path fill="none" stroke="black" d="M492.27,-385.48C490.42,-374.93 488.13,-361.19 486.44,-348.95 480.78,-307.97 475.75,-261.34 472.29,-226.76"/>
<polygon fill="black" stroke="black" points="475.8,-226.63 471.33,-217.02 468.83,-227.32 475.8,-226.63"/>
</g>
<!-- NT_Other Illnesses -->
<g id="node9" class="node">
<title>NT_Other Illnesses</title>
<ellipse fill="none" stroke="black" cx="628.44" cy="-40.66" rx="68.59" ry="40.66"/>
<text xml:space="preserve" text-anchor="middle" x="628.44" y="-52.11" font-family="Times,serif" font-size="14.00">Other Illnesses</text>
<text xml:space="preserve" text-anchor="middle" x="628.44" y="-35.61" font-family="Times,serif" font-size="14.00">Cost: 1800</text>
<text xml:space="preserve" text-anchor="middle" x="628.44" y="-19.11" font-family="Times,serif" font-size="14.00">QALY: 0.75</text>
</g>
<!-- NT&#45;&gt;NT_Other Illnesses -->
<g id="edge8" class="edge">
<title>NT&#45;&gt;NT_Other Illnesses</title>
<path fill="none" stroke="black" d="M561.7,-398.82C597.64,-392.93 639.66,-379.42 664.44,-348.95 724.9,-274.62 696.79,-227.86 678.44,-133.82 675.35,-118 668.42,-102.11 660.68,-88.08"/>
<polygon fill="black" stroke="black" points="663.75,-86.41 655.7,-79.53 657.7,-89.93 663.75,-86.41"/>
</g>
<!-- SC_Healthy&#45;&gt;SC_Healthy -->
<g id="edge9" class="edge">
<title>SC_Healthy&#45;&gt;SC_Healthy</title>
<path fill="none" stroke="black" d="M291.16,-318.96C302.69,-317.8 310.95,-314.24 310.95,-308.29 310.95,-304.48 307.56,-301.65 302.1,-299.8"/>
<polygon fill="black" stroke="black" points="303.14,-296.44 292.65,-297.92 301.77,-303.31 303.14,-296.44"/>
<text xml:space="preserve" text-anchor="middle" x="319.58" y="-303.24" font-family="Times,serif" font-size="14.00">0.9</text>
</g>
<!-- SC_Healthy&#45;&gt;SC_Respiratory Illness -->
<g id="edge11" class="edge">
<title>SC_Healthy&#45;&gt;SC_Respiratory Illness</title>
<path fill="none" stroke="black" d="M198.97,-275.8C184.02,-262.58 166.42,-247.07 150.44,-233.13 144.55,-228 138.36,-222.64 132.22,-217.33"/>
<polygon fill="black" stroke="black" points="134.9,-215.02 125.05,-211.14 130.33,-220.32 134.9,-215.02"/>
<text xml:space="preserve" text-anchor="middle" x="180.92" y="-236.33" font-family="Times,serif" font-size="14.00">0.07</text>
</g>
<!-- SC_Healthy&#45;&gt;SC_Other Illnesses -->
<g id="edge13" class="edge">
<title>SC_Healthy&#45;&gt;SC_Other Illnesses</title>
<path fill="none" stroke="black" d="M235.95,-267.24C237.7,-220.71 240.59,-143.86 242.51,-92.99"/>
<polygon fill="black" stroke="black" points="246,-93.24 242.88,-83.12 239,-92.98 246,-93.24"/>
<text xml:space="preserve" text-anchor="middle" x="252.92" y="-169.43" font-family="Times,serif" font-size="14.00">0.03</text>
</g>
<!-- SC_Respiratory Illness&#45;&gt;SC_Healthy -->
<g id="edge15" class="edge">
<title>SC_Respiratory Illness&#45;&gt;SC_Healthy</title>
<path fill="none" stroke="black" d="M102.37,-214.45C109.59,-226.71 118.66,-239.63 129.19,-249.63 142.39,-262.17 158.84,-272.86 174.78,-281.51"/>
<polygon fill="black" stroke="black" points="172.78,-284.42 183.26,-285.94 176.01,-278.21 172.78,-284.42"/>
<text xml:space="preserve" text-anchor="middle" x="137.81" y="-236.33" font-family="Times,serif" font-size="14.00">0.1</text>
</g>
<!-- SC_Respiratory Illness&#45;&gt;SC_Respiratory Illness -->
<g id="edge17" class="edge">
<title>SC_Respiratory Illness&#45;&gt;SC_Respiratory Illness</title>
<path fill="none" stroke="black" d="M163.8,-185.97C176.33,-184.25 184.88,-180.42 184.88,-174.48 184.88,-170.48 181.02,-167.44 174.69,-165.35"/>
<polygon fill="black" stroke="black" points="175.79,-162.01 165.28,-163.3 174.3,-168.85 175.79,-162.01"/>
<text xml:space="preserve" text-anchor="middle" x="196.88" y="-169.43" font-family="Times,serif" font-size="14.00">0.75</text>
</g>
<!-- SC_Respiratory Illness&#45;&gt;SC_Other Illnesses -->
<g id="edge19" class="edge">
<title>SC_Respiratory Illness&#45;&gt;SC_Other Illnesses</title>
<path fill="none" stroke="black" d="M111.33,-135.78C121.57,-123.34 133.77,-109.97 146.44,-99.32 157.58,-89.95 170.42,-81.2 183.07,-73.48"/>
<polygon fill="black" stroke="black" points="184.56,-76.67 191.38,-68.56 180.99,-70.65 184.56,-76.67"/>
<text xml:space="preserve" text-anchor="middle" x="158.44" y="-102.52" font-family="Times,serif" font-size="14.00">0.15</text>
</g>
<!-- SC_Other Illnesses&#45;&gt;SC_Healthy -->
<g id="edge21" class="edge">
<title>SC_Other Illnesses&#45;&gt;SC_Healthy</title>
<path fill="none" stroke="black" d="M256.95,-80.69C261.54,-96.94 266.17,-116.11 268.44,-133.82 273.03,-169.67 274.79,-179.56 268.44,-215.13 265.86,-229.57 261.18,-244.71 256.09,-258.45"/>
<polygon fill="black" stroke="black" points="252.85,-257.13 252.51,-267.72 259.38,-259.65 252.85,-257.13"/>
<text xml:space="preserve" text-anchor="middle" x="284.57" y="-169.43" font-family="Times,serif" font-size="14.00">0.05</text>
</g>
<!-- SC_Other Illnesses&#45;&gt;SC_Respiratory Illness -->
<g id="edge23" class="edge">
<title>SC_Other Illnesses&#45;&gt;SC_Respiratory Illness</title>
<path fill="none" stroke="black" d="M212.27,-76.75C199.75,-89.63 184.94,-103.95 170.44,-115.82 162.11,-122.63 152.97,-129.39 143.83,-135.74"/>
<polygon fill="black" stroke="black" points="141.89,-132.83 135.6,-141.36 145.84,-138.61 141.89,-132.83"/>
<text xml:space="preserve" text-anchor="middle" x="196.34" y="-102.52" font-family="Times,serif" font-size="14.00">0.1</text>
</g>
<!-- SC_Other Illnesses&#45;&gt;SC_Other Illnesses -->
<g id="edge25" class="edge">
<title>SC_Other Illnesses&#45;&gt;SC_Other Illnesses</title>
<path fill="none" stroke="black" d="M310.51,-52.51C322.57,-51.01 331.03,-47.06 331.03,-40.66 331.03,-36.46 327.38,-33.31 321.47,-31.22"/>
<polygon fill="black" stroke="black" points="322.5,-27.86 311.99,-29.13 321,-34.7 322.5,-27.86"/>
<text xml:space="preserve" text-anchor="middle" x="343.03" y="-35.61" font-family="Times,serif" font-size="14.00">0.85</text>
</g>
<!-- NT_Healthy&#45;&gt;NT_Healthy -->
<g id="edge10" class="edge">
<title>NT_Healthy&#45;&gt;NT_Healthy</title>
<path fill="none" stroke="black" d="M611.16,-318.96C622.69,-317.8 630.95,-314.24 630.95,-308.29 630.95,-304.48 627.56,-301.65 622.1,-299.8"/>
<polygon fill="black" stroke="black" points="623.14,-296.44 612.65,-297.92 621.77,-303.31 623.14,-296.44"/>
<text xml:space="preserve" text-anchor="middle" x="642.95" y="-303.24" font-family="Times,serif" font-size="14.00">0.94</text>
</g>
<!-- NT_Healthy&#45;&gt;NT_Respiratory Illness -->
<g id="edge12" class="edge">
<title>NT_Healthy&#45;&gt;NT_Respiratory Illness</title>
<path fill="none" stroke="black" d="M541.93,-268.12C537.31,-256.39 531.46,-243.81 524.44,-233.13 521.33,-228.41 517.79,-223.74 514.03,-219.23"/>
<polygon fill="black" stroke="black" points="516.82,-217.11 507.59,-211.92 511.57,-221.74 516.82,-217.11"/>
<text xml:space="preserve" text-anchor="middle" x="545.12" y="-236.33" font-family="Times,serif" font-size="14.00">0.04</text>
</g>
<!-- NT_Healthy&#45;&gt;NT_Other Illnesses -->
<g id="edge14" class="edge">
<title>NT_Healthy&#45;&gt;NT_Other Illnesses</title>
<path fill="none" stroke="black" d="M576.68,-270.34C585.65,-253.95 595.3,-234.1 601.44,-215.13 614.34,-175.27 621.17,-128.2 624.73,-93.16"/>
<polygon fill="black" stroke="black" points="628.21,-93.55 625.67,-83.27 621.24,-92.89 628.21,-93.55"/>
<text xml:space="preserve" text-anchor="middle" x="631.51" y="-169.43" font-family="Times,serif" font-size="14.00">0.02</text>
</g>
<!-- NT_Respiratory Illness&#45;&gt;NT_Healthy -->
<g id="edge16" class="edge">
<title>NT_Respiratory Illness&#45;&gt;NT_Healthy</title>
<path fill="none" stroke="black" d="M483.86,-214.7C489.37,-226.31 495.97,-238.81 503.19,-249.63 506.76,-254.99 510.79,-260.36 514.99,-265.56"/>
<polygon fill="black" stroke="black" points="512.08,-267.54 521.19,-272.96 517.45,-263.04 512.08,-267.54"/>
<text xml:space="preserve" text-anchor="middle" x="511.81" y="-236.33" font-family="Times,serif" font-size="14.00">0.2</text>
</g>
<!-- NT_Respiratory Illness&#45;&gt;NT_Respiratory Illness -->
<g id="edge18" class="edge">
<title>NT_Respiratory Illness&#45;&gt;NT_Respiratory Illness</title>
<path fill="none" stroke="black" d="M547.8,-185.97C560.33,-184.25 568.88,-180.42 568.88,-174.48 568.88,-170.48 565.02,-167.44 558.69,-165.35"/>
<polygon fill="black" stroke="black" points="559.79,-162.01 549.28,-163.3 558.3,-168.85 559.79,-162.01"/>
<text xml:space="preserve" text-anchor="middle" x="580.88" y="-169.43" font-family="Times,serif" font-size="14.00">0.75</text>
</g>
<!-- NT_Respiratory Illness&#45;&gt;NT_Other Illnesses -->
<g id="edge20" class="edge">
<title>NT_Respiratory Illness&#45;&gt;NT_Other Illnesses</title>
<path fill="none" stroke="black" d="M491.99,-135.47C501.2,-123 512.38,-109.7 524.44,-99.32 536.4,-89.02 550.49,-79.73 564.37,-71.77"/>
<polygon fill="black" stroke="black" points="566.03,-74.85 573.09,-66.94 562.64,-68.72 566.03,-74.85"/>
<text xml:space="preserve" text-anchor="middle" x="536.44" y="-102.52" font-family="Times,serif" font-size="14.00">0.05</text>
</g>
<!-- NT_Other Illnesses&#45;&gt;NT_Healthy -->
<g id="edge22" class="edge">
<title>NT_Other Illnesses&#45;&gt;NT_Healthy</title>
<path fill="none" stroke="black" d="M643.31,-80.77C654.66,-116.99 665.57,-171.65 647.44,-215.13 638.27,-237.13 621.01,-256.57 603.83,-271.85"/>
<polygon fill="black" stroke="black" points="601.92,-268.88 596.59,-278.03 606.47,-274.2 601.92,-268.88"/>
<text xml:space="preserve" text-anchor="middle" x="665.72" y="-169.43" font-family="Times,serif" font-size="14.00">0.1</text>
</g>
<!-- NT_Other Illnesses&#45;&gt;NT_Respiratory Illness -->
<g id="edge24" class="edge">
<title>NT_Other Illnesses&#45;&gt;NT_Respiratory Illness</title>
<path fill="none" stroke="black" d="M593.48,-75.9C579.78,-88.82 563.72,-103.39 548.44,-115.82 540.85,-121.99 532.65,-128.26 524.49,-134.27"/>
<polygon fill="black" stroke="black" points="522.57,-131.34 516.54,-140.05 526.69,-137 522.57,-131.34"/>
<text xml:space="preserve" text-anchor="middle" x="578.66" y="-102.52" font-family="Times,serif" font-size="14.00">0.05</text>
</g>
<!-- NT_Other Illnesses&#45;&gt;NT_Other Illnesses -->
<g id="edge26" class="edge">
<title>NT_Other Illnesses&#45;&gt;NT_Other Illnesses</title>
<path fill="none" stroke="black" d="M694.51,-52.51C706.57,-51.01 715.03,-47.06 715.03,-40.66 715.03,-36.46 711.38,-33.31 705.47,-31.22"/>
<polygon fill="black" stroke="black" points="706.5,-27.86 695.99,-29.13 705,-34.7 706.5,-27.86"/>
<text xml:space="preserve" text-anchor="middle" x="727.03" y="-35.61" font-family="Times,serif" font-size="14.00">0.85</text>
</g>
</g>
</svg>
