<?xml version="1.0" encoding="UTF-8" standalone="no"?>
<!DOCTYPE svg PUBLIC "-//W3C//DTD SVG 1.1//EN"
 "http://www.w3.org/Graphics/SVG/1.1/DTD/svg11.dtd">
<!-- Generated by graphviz version 14.0.2 (20251019.1705)
 -->
<!-- Pages: 1 -->
<svg width="639pt" height="503pt"
 viewBox="0.00 0.00 639.00 503.00" xmlns="http://www.w3.org/2000/svg" xmlns:xlink="http://www.w3.org/1999/xlink">
<g id="graph0" class="graph" transform="scale(1 1) rotate(0) translate(4 498.95)">
<polygon fill="white" stroke="none" points="-4,4 -4,-498.95 634.86,-498.95 634.86,4 -4,4"/>
<!-- D -->
<g id="node1" class="node">
<title>D</title>
<polygon fill="none" stroke="black" points="383.58,-494.95 319.58,-494.95 319.58,-458.95 383.58,-458.95 383.58,-494.95"/>
<text xml:space="preserve" text-anchor="middle" x="351.58" y="-471.9" font-family="Times,serif" font-size="14.00">Decision</text>
</g>
<!-- SC -->
<g id="node2" class="node">
<title>SC</title>
<ellipse fill="none" stroke="black" cx="254.58" cy="-403.95" rx="63.63" ry="18"/>
<text xml:space="preserve" text-anchor="middle" x="254.58" y="-398.9" font-family="Times,serif" font-size="14.00">Standard Care</text>
</g>
<!-- D&#45;&gt;SC -->
<g id="edge1" class="edge">
<title>D&#45;&gt;SC</title>
<path fill="none" stroke="black" d="M328.1,-458.76C315.43,-449.49 299.64,-437.93 285.93,-427.9"/>
<polygon fill="black" stroke="black" points="288.2,-425.23 278.07,-422.14 284.07,-430.87 288.2,-425.23"/>
</g>
<!-- NT -->
<g id="node3" class="node">
<title>NT</title>
<ellipse fill="none" stroke="black" cx="414.58" cy="-403.95" rx="68.75" ry="18"/>
<text xml:space="preserve" text-anchor="middle" x="414.58" y="-398.9" font-family="Times,serif" font-size="14.00">New Treatment</text>
</g>
<!-- D&#45;&gt;NT -->
<g id="edge2" class="edge">
<title>D&#45;&gt;NT</title>
<path fill="none" stroke="black" d="M366.83,-458.76C374.34,-450.31 383.54,-439.94 391.85,-430.56"/>
<polygon fill="black" stroke="black" points="394.45,-432.92 398.47,-423.11 389.21,-428.27 394.45,-432.92"/>
</g>
<!-- SC_Healthy -->
<g id="node4" class="node">
<title>SC_Healthy</title>
<ellipse fill="none" stroke="black" cx="118.58" cy="-308.29" rx="53.74" ry="40.66"/>
<text xml:space="preserve" text-anchor="middle" x="118.58" y="-319.74" font-family="Times,serif" font-size="14.00">Healthy</text>
<text xml:space="preserve" text-anchor="middle" x="118.58" y="-303.24" font-family="Times,serif" font-size="14.00">Cost: 0</text>
<text xml:space="preserve" text-anchor="middle" x="118.58" y="-286.74" font-family="Times,serif" font-size="14.00">QALY: 0.9</text>
</g>
<!-- SC&#45;&gt;SC_Healthy -->
<g id="edge3" class="edge">
<title>SC&#45;&gt;SC_Healthy</title>
<path fill="none" stroke="black" d="M231.2,-386.85C213.67,-374.78 189.05,-357.83 167.31,-342.85"/>
<polygon fill="black" stroke="black" points="169.34,-340 159.12,-337.21 165.37,-345.76 169.34,-340"/>
</g>
<!-- SC_Overweight/Obese -->
<g id="node5" class="node">
<title>SC_Overweight/Obese</title>
<ellipse fill="none" stroke="black" cx="127.58" cy="-174.48" rx="82.91" ry="40.66"/>
<text xml:space="preserve" text-anchor="middle" x="127.58" y="-185.93" font-family="Times,serif" font-size="14.00">Overweight/Obese</text>
<text xml:space="preserve" text-anchor="middle" x="127.58" y="-169.43" font-family="Times,serif" font-size="14.00">Cost: 600</text>
<text xml:space="preserve" text-anchor="middle" x="127.58" y="-152.93" font-family="Times,serif" font-size="14.00">QALY: 0.7</text>
</g>
<!-- SC&#45;&gt;SC_Overweight/Obese -->
<g id="edge4" class="edge">
<title>SC&#45;&gt;SC_Overweight/Obese</title>
<path fill="none" stroke="black" d="M252.49,-385.67C248.67,-358.87 238.8,-306.37 216.58,-267.63 206.21,-249.57 191.52,-232.38 177.05,-217.86"/>
<polygon fill="black" stroke="black" points="179.76,-215.6 170.15,-211.13 174.87,-220.61 179.76,-215.6"/>
</g>
<!-- SC_Complications -->
<g id="node6" class="node">
<title>SC_Complications</title>
<ellipse fill="none" stroke="black" cx="127.58" cy="-40.66" rx="67.53" ry="40.66"/>
<text xml:space="preserve" text-anchor="middle" x="127.58" y="-52.11" font-family="Times,serif" font-size="14.00">Complications</text>
<text xml:space="preserve" text-anchor="middle" x="127.58" y="-35.61" font-family="Times,serif" font-size="14.00">Cost: 2400</text>
<text xml:space="preserve" text-anchor="middle" x="127.58" y="-19.11" font-family="Times,serif" font-size="14.00">QALY: 0.5</text>
</g>
<!-- SC&#45;&gt;SC_Complications -->
<g id="edge5" class="edge">
<title>SC&#45;&gt;SC_Complications</title>
<path fill="none" stroke="black" d="M259.78,-385.6C272.15,-340.81 299.11,-218.89 254.58,-133.82 240.69,-107.29 215.32,-86.55 190.89,-71.53"/>
<polygon fill="black" stroke="black" points="192.93,-68.67 182.54,-66.61 189.38,-74.7 192.93,-68.67"/>
</g>
<!-- NT_Healthy -->
<g id="node7" class="node">
<title>NT_Healthy</title>
<ellipse fill="none" stroke="black" cx="453.58" cy="-308.29" rx="58.51" ry="40.66"/>
<text xml:space="preserve" text-anchor="middle" x="453.58" y="-319.74" font-family="Times,serif" font-size="14.00">Healthy</text>
<text xml:space="preserve" text-anchor="middle" x="453.58" y="-303.24" font-family="Times,serif" font-size="14.00">Cost: 120</text>
<text xml:space="preserve" text-anchor="middle" x="453.58" y="-286.74" font-family="Times,serif" font-size="14.00">QALY: 0.95</text>
</g>
<!-- NT&#45;&gt;NT_Healthy -->
<g id="edge6" class="edge">
<title>NT&#45;&gt;NT_Healthy</title>
<path fill="none" stroke="black" d="M421.73,-385.77C425.03,-377.86 429.13,-368.02 433.27,-358.06"/>
<polygon fill="black" stroke="black" points="436.38,-359.7 437,-349.12 429.92,-357 436.38,-359.7"/>
</g>
<!-- NT_Overweight/Obese -->
<g id="node8" class="node">
<title>NT_Overweight/Obese</title>
<ellipse fill="none" stroke="black" cx="384.58" cy="-174.48" rx="82.91" ry="40.66"/>
<text xml:space="preserve" text-anchor="middle" x="384.58" y="-185.93" font-family="Times,serif" font-size="14.00">Overweight/Obese</text>
<text xml:space="preserve" text-anchor="middle" x="384.58" y="-169.43" font-family="Times,serif" font-size="14.00">Cost: 480</text>
<text xml:space="preserve" text-anchor="middle" x="384.58" y="-152.93" font-family="Times,serif" font-size="14.00">QALY: 0.8</text>
</g>
<!-- NT&#45;&gt;NT_Overweight/Obese -->
<g id="edge7" class="edge">
<title>NT&#45;&gt;NT_Overweight/Obese</title>
<path fill="none" stroke="black" d="M402.6,-385.85C396.19,-375.65 388.94,-362.15 385.58,-348.95 375.37,-308.83 375.83,-261.78 378.45,-226.81"/>
<polygon fill="black" stroke="black" points="381.93,-227.21 379.29,-216.95 374.96,-226.62 381.93,-227.21"/>
</g>
<!-- NT_Complications -->
<g id="node9" class="node">
<title>NT_Complications</title>
<ellipse fill="none" stroke="black" cx="538.58" cy="-40.66" rx="67.53" ry="40.66"/>
<text xml:space="preserve" text-anchor="middle" x="538.58" y="-52.11" font-family="Times,serif" font-size="14.00">Complications</text>
<text xml:space="preserve" text-anchor="middle" x="538.58" y="-35.61" font-family="Times,serif" font-size="14.00">Cost: 1800</text>
<text xml:space="preserve" text-anchor="middle" x="538.58" y="-19.11" font-family="Times,serif" font-size="14.00">QALY: 0.6</text>
</g>
<!-- NT&#45;&gt;NT_Complications -->
<g id="edge8" class="edge">
<title>NT&#45;&gt;NT_Complications</title>
<path fill="none" stroke="black" d="M476.04,-395.49C505.44,-388.51 538.17,-375.02 556.58,-348.95 610.68,-272.35 582.15,-156.38 558.86,-91"/>
<polygon fill="black" stroke="black" points="562.28,-90.17 555.55,-81.99 555.71,-92.58 562.28,-90.17"/>
</g>
<!-- SC_Healthy&#45;&gt;SC_Healthy -->
<g id="edge9" class="edge">
<title>SC_Healthy&#45;&gt;SC_Healthy</title>
<path fill="none" stroke="black" d="M170.81,-319.06C182.12,-318.01 190.32,-314.42 190.32,-308.29 190.32,-304.47 187.12,-301.63 181.95,-299.78"/>
<polygon fill="black" stroke="black" points="182.79,-296.38 172.3,-297.83 181.41,-303.24 182.79,-296.38"/>
<text xml:space="preserve" text-anchor="middle" x="198.95" y="-303.24" font-family="Times,serif" font-size="14.00">0.8</text>
</g>
<!-- SC_Healthy&#45;&gt;SC_Overweight/Obese -->
<g id="edge11" class="edge">
<title>SC_Healthy&#45;&gt;SC_Overweight/Obese</title>
<path fill="none" stroke="black" d="M121.31,-267.39C122.19,-254.48 123.18,-239.99 124.1,-226.4"/>
<polygon fill="black" stroke="black" points="127.57,-226.97 124.76,-216.76 120.59,-226.5 127.57,-226.97"/>
<text xml:space="preserve" text-anchor="middle" x="135.62" y="-236.33" font-family="Times,serif" font-size="14.00">0.15</text>
</g>
<!-- SC_Healthy&#45;&gt;SC_Complications -->
<g id="edge13" class="edge">
<title>SC_Healthy&#45;&gt;SC_Complications</title>
<path fill="none" stroke="black" d="M75.71,-283.16C52.04,-267.24 24.81,-244 11.58,-215.13 -3.48,-182.28 -4.13,-166.36 11.58,-133.82 23.46,-109.2 45.47,-89.14 67.15,-74.1"/>
<polygon fill="black" stroke="black" points="69.06,-77.03 75.46,-68.58 65.19,-71.2 69.06,-77.03"/>
<text xml:space="preserve" text-anchor="middle" x="23.58" y="-169.43" font-family="Times,serif" font-size="14.00">0.05</text>
</g>
<!-- SC_Overweight/Obese&#45;&gt;SC_Overweight/Obese -->
<g id="edge16" class="edge">
<title>SC_Overweight/Obese&#45;&gt;SC_Overweight/Obese</title>
<path fill="none" stroke="black" d="M207.52,-185.97C219.99,-184.25 228.49,-180.42 228.49,-174.48 228.49,-170.48 224.65,-167.44 218.35,-165.35"/>
<polygon fill="black" stroke="black" points="219.52,-162.03 209,-163.3 218.02,-168.86 219.52,-162.03"/>
<text xml:space="preserve" text-anchor="middle" x="237.11" y="-169.43" font-family="Times,serif" font-size="14.00">0.7</text>
</g>
<!-- SC_Overweight/Obese&#45;&gt;SC_Complications -->
<g id="edge18" class="edge">
<title>SC_Overweight/Obese&#45;&gt;SC_Complications</title>
<path fill="none" stroke="black" d="M127.58,-133.57C127.58,-120.66 127.58,-106.17 127.58,-92.58"/>
<polygon fill="black" stroke="black" points="131.08,-92.94 127.58,-82.94 124.08,-92.94 131.08,-92.94"/>
<text xml:space="preserve" text-anchor="middle" x="136.21" y="-102.52" font-family="Times,serif" font-size="14.00">0.3</text>
</g>
<!-- SC_Complications&#45;&gt;SC_Complications -->
<g id="edge20" class="edge">
<title>SC_Complications&#45;&gt;SC_Complications</title>
<path fill="none" stroke="black" d="M192.47,-52.56C204.58,-51.09 213.11,-47.13 213.11,-40.66 213.11,-36.41 209.44,-33.25 203.49,-31.16"/>
<polygon fill="black" stroke="black" points="204.47,-27.79 193.95,-29.08 202.98,-34.63 204.47,-27.79"/>
<text xml:space="preserve" text-anchor="middle" x="216.48" y="-35.61" font-family="Times,serif" font-size="14.00">1</text>
</g>
<!-- NT_Healthy&#45;&gt;NT_Healthy -->
<g id="edge10" class="edge">
<title>NT_Healthy&#45;&gt;NT_Healthy</title>
<path fill="none" stroke="black" d="M510.31,-318.96C521.84,-317.8 530.09,-314.24 530.09,-308.29 530.09,-304.48 526.7,-301.65 521.24,-299.8"/>
<polygon fill="black" stroke="black" points="522.28,-296.44 511.79,-297.92 520.91,-303.31 522.28,-296.44"/>
<text xml:space="preserve" text-anchor="middle" x="538.72" y="-303.24" font-family="Times,serif" font-size="14.00">0.9</text>
</g>
<!-- NT_Healthy&#45;&gt;NT_Overweight/Obese -->
<g id="edge12" class="edge">
<title>NT_Healthy&#45;&gt;NT_Overweight/Obese</title>
<path fill="none" stroke="black" d="M443.59,-267.76C439.95,-256.25 435.29,-243.89 429.58,-233.13 427.53,-229.27 425.22,-225.4 422.75,-221.6"/>
<polygon fill="black" stroke="black" points="425.77,-219.82 417.21,-213.57 420.01,-223.79 425.77,-219.82"/>
<text xml:space="preserve" text-anchor="middle" x="448.73" y="-236.33" font-family="Times,serif" font-size="14.00">0.08</text>
</g>
<!-- NT_Healthy&#45;&gt;NT_Complications -->
<g id="edge14" class="edge">
<title>NT_Healthy&#45;&gt;NT_Complications</title>
<path fill="none" stroke="black" d="M480.65,-271.88C491.92,-255.44 504.09,-235.14 511.58,-215.13 526.31,-175.77 533.01,-128.47 536.05,-93.21"/>
<polygon fill="black" stroke="black" points="539.54,-93.5 536.83,-83.25 532.56,-92.95 539.54,-93.5"/>
<text xml:space="preserve" text-anchor="middle" x="543.13" y="-169.43" font-family="Times,serif" font-size="14.00">0.02</text>
</g>
<!-- NT_Overweight/Obese&#45;&gt;NT_Healthy -->
<g id="edge15" class="edge">
<title>NT_Overweight/Obese&#45;&gt;NT_Healthy</title>
<path fill="none" stroke="black" d="M389.84,-215.28C392.37,-226.79 396.1,-239.09 401.58,-249.63 404.57,-255.38 408.27,-261 412.3,-266.34"/>
<polygon fill="black" stroke="black" points="409.38,-268.29 418.4,-273.86 414.82,-263.88 409.38,-268.29"/>
<text xml:space="preserve" text-anchor="middle" x="413.58" y="-236.33" font-family="Times,serif" font-size="14.00">0.05</text>
</g>
<!-- NT_Overweight/Obese&#45;&gt;NT_Overweight/Obese -->
<g id="edge17" class="edge">
<title>NT_Overweight/Obese&#45;&gt;NT_Overweight/Obese</title>
<path fill="none" stroke="black" d="M464.52,-185.97C476.99,-184.25 485.49,-180.42 485.49,-174.48 485.49,-170.48 481.65,-167.44 475.35,-165.35"/>
<polygon fill="black" stroke="black" points="476.52,-162.03 466,-163.3 475.02,-168.86 476.52,-162.03"/>
<text xml:space="preserve" text-anchor="middle" x="494.11" y="-169.43" font-family="Times,serif" font-size="14.00">0.8</text>
</g>
<!-- NT_Overweight/Obese&#45;&gt;NT_Complications -->
<g id="edge19" class="edge">
<title>NT_Overweight/Obese&#45;&gt;NT_Complications</title>
<path fill="none" stroke="black" d="M425.04,-138.84C445.49,-121.34 470.4,-100.02 491.68,-81.81"/>
<polygon fill="black" stroke="black" points="493.77,-84.62 499.09,-75.46 489.22,-79.3 493.77,-84.62"/>
<text xml:space="preserve" text-anchor="middle" x="482.8" y="-102.52" font-family="Times,serif" font-size="14.00">0.15</text>
</g>
<!-- NT_Complications&#45;&gt;NT_Complications -->
<g id="edge21" class="edge">
<title>NT_Complications&#45;&gt;NT_Complications</title>
<path fill="none" stroke="black" d="M603.47,-52.56C615.58,-51.09 624.11,-47.13 624.11,-40.66 624.11,-36.41 620.44,-33.25 614.49,-31.16"/>
<polygon fill="black" stroke="black" points="615.47,-27.79 604.95,-29.08 613.98,-34.63 615.47,-27.79"/>
<text xml:space="preserve" text-anchor="middle" x="627.48" y="-35.61" font-family="Times,serif" font-size="14.00">1</text>
</g>
</g>
</svg>
