<?xml version="1.0" encoding="UTF-8" standalone="no"?>
<!DOCTYPE svg PUBLIC "-//W3C//DTD SVG 1.1//EN"
 "http://www.w3.org/Graphics/SVG/1.1/DTD/svg11.dtd">
<!-- Generated by graphviz version 14.0.2 (20251019.1705)
 -->
<!-- Pages: 1 -->
<svg width="500pt" height="503pt"
 viewBox="0.00 0.00 500.00 503.00" xmlns="http://www.w3.org/2000/svg" xmlns:xlink="http://www.w3.org/1999/xlink">
<g id="graph0" class="graph" transform="scale(1 1) rotate(0) translate(4 498.95)">
<polygon fill="white" stroke="none" points="-4,4 -4,-498.95 495.77,-498.95 495.77,4 -4,4"/>
<!-- D -->
<g id="node1" class="node">
<title>D</title>
<polygon fill="none" stroke="black" points="345.74,-494.95 281.74,-494.95 281.74,-458.95 345.74,-458.95 345.74,-494.95"/>
<text xml:space="preserve" text-anchor="middle" x="313.74" y="-471.9" font-family="Times,serif" font-size="14.00">Decision</text>
</g>
<!-- SC -->
<g id="node2" class="node">
<title>SC</title>
<ellipse fill="none" stroke="black" cx="202.74" cy="-403.95" rx="63.63" ry="18"/>
<text xml:space="preserve" text-anchor="middle" x="202.74" y="-398.9" font-family="Times,serif" font-size="14.00">Standard Care</text>
</g>
<!-- D&#45;&gt;SC -->
<g id="edge1" class="edge">
<title>D&#45;&gt;SC</title>
<path fill="none" stroke="black" d="M286.59,-458.58C271.7,-449.06 253.1,-437.17 237.21,-427"/>
<polygon fill="black" stroke="black" points="239.3,-424.18 228.99,-421.74 235.53,-430.08 239.3,-424.18"/>
</g>
<!-- NT -->
<g id="node3" class="node">
<title>NT</title>
<ellipse fill="none" stroke="black" cx="402.74" cy="-403.95" rx="68.75" ry="18"/>
<text xml:space="preserve" text-anchor="middle" x="402.74" y="-398.9" font-family="Times,serif" font-size="14.00">New Treatment</text>
</g>
<!-- D&#45;&gt;NT -->
<g id="edge2" class="edge">
<title>D&#45;&gt;NT</title>
<path fill="none" stroke="black" d="M335.28,-458.76C346.71,-449.65 360.92,-438.32 373.34,-428.41"/>
<polygon fill="black" stroke="black" points="375.19,-431.41 380.82,-422.44 370.82,-425.94 375.19,-431.41"/>
</g>
<!-- SC_Smoker -->
<g id="node4" class="node">
<title>SC_Smoker</title>
<ellipse fill="none" stroke="black" cx="53.74" cy="-308.29" rx="53.74" ry="40.66"/>
<text xml:space="preserve" text-anchor="middle" x="53.74" y="-319.74" font-family="Times,serif" font-size="14.00">Smoker</text>
<text xml:space="preserve" text-anchor="middle" x="53.74" y="-303.24" font-family="Times,serif" font-size="14.00">Cost: 600</text>
<text xml:space="preserve" text-anchor="middle" x="53.74" y="-286.74" font-family="Times,serif" font-size="14.00">QALY: 0.8</text>
</g>
<!-- SC&#45;&gt;SC_Smoker -->
<g id="edge3" class="edge">
<title>SC&#45;&gt;SC_Smoker</title>
<path fill="none" stroke="black" d="M177.46,-387.06C157.45,-374.49 128.87,-356.52 104.21,-341.02"/>
<polygon fill="black" stroke="black" points="106.24,-338.16 95.91,-335.8 102.52,-344.09 106.24,-338.16"/>
</g>
<!-- SC_Ex&#45;smoker -->
<g id="node5" class="node">
<title>SC_Ex&#45;smoker</title>
<ellipse fill="none" stroke="black" cx="97.74" cy="-174.48" rx="53.74" ry="40.66"/>
<text xml:space="preserve" text-anchor="middle" x="97.74" y="-185.93" font-family="Times,serif" font-size="14.00">Ex&#45;smoker</text>
<text xml:space="preserve" text-anchor="middle" x="97.74" y="-169.43" font-family="Times,serif" font-size="14.00">Cost: 4800</text>
<text xml:space="preserve" text-anchor="middle" x="97.74" y="-152.93" font-family="Times,serif" font-size="14.00">QALY: 0.9</text>
</g>
<!-- SC&#45;&gt;SC_Ex&#45;smoker -->
<g id="edge4" class="edge">
<title>SC&#45;&gt;SC_Ex&#45;smoker</title>
<path fill="none" stroke="black" d="M198.73,-385.72C192.27,-359.44 178.28,-308.13 158.74,-267.63 150.81,-251.19 140.34,-234.24 130.33,-219.43"/>
<polygon fill="black" stroke="black" points="133.26,-217.52 124.7,-211.28 127.5,-221.49 133.26,-217.52"/>
</g>
<!-- SC_Dead -->
<g id="node6" class="node">
<title>SC_Dead</title>
<ellipse fill="none" stroke="black" cx="97.74" cy="-40.66" rx="53.74" ry="40.66"/>
<text xml:space="preserve" text-anchor="middle" x="97.74" y="-52.11" font-family="Times,serif" font-size="14.00">Dead</text>
<text xml:space="preserve" text-anchor="middle" x="97.74" y="-35.61" font-family="Times,serif" font-size="14.00">Cost: 0</text>
<text xml:space="preserve" text-anchor="middle" x="97.74" y="-19.11" font-family="Times,serif" font-size="14.00">QALY: 0.0</text>
</g>
<!-- SC&#45;&gt;SC_Dead -->
<g id="edge5" class="edge">
<title>SC&#45;&gt;SC_Dead</title>
<path fill="none" stroke="black" d="M207.47,-385.83C218.74,-341.58 243.29,-220.86 202.74,-133.82 191.23,-109.11 169.59,-88.34 148.94,-72.8"/>
<polygon fill="black" stroke="black" points="151.25,-70.16 141.1,-67.14 147.16,-75.83 151.25,-70.16"/>
</g>
<!-- NT_Smoker -->
<g id="node7" class="node">
<title>NT_Smoker</title>
<ellipse fill="none" stroke="black" cx="306.74" cy="-308.29" rx="53.74" ry="40.66"/>
<text xml:space="preserve" text-anchor="middle" x="306.74" y="-319.74" font-family="Times,serif" font-size="14.00">Smoker</text>
<text xml:space="preserve" text-anchor="middle" x="306.74" y="-303.24" font-family="Times,serif" font-size="14.00">Cost: 1200</text>
<text xml:space="preserve" text-anchor="middle" x="306.74" y="-286.74" font-family="Times,serif" font-size="14.00">QALY: 0.8</text>
</g>
<!-- NT&#45;&gt;NT_Smoker -->
<g id="edge6" class="edge">
<title>NT&#45;&gt;NT_Smoker</title>
<path fill="none" stroke="black" d="M385.58,-386.21C374.95,-375.84 360.82,-362.05 347.46,-349.02"/>
<polygon fill="black" stroke="black" points="349.97,-346.58 340.36,-342.1 345.08,-351.59 349.97,-346.58"/>
</g>
<!-- NT_Ex&#45;smoker -->
<g id="node8" class="node">
<title>NT_Ex&#45;smoker</title>
<ellipse fill="none" stroke="black" cx="368.74" cy="-174.48" rx="58.51" ry="40.66"/>
<text xml:space="preserve" text-anchor="middle" x="368.74" y="-185.93" font-family="Times,serif" font-size="14.00">Ex&#45;smoker</text>
<text xml:space="preserve" text-anchor="middle" x="368.74" y="-169.43" font-family="Times,serif" font-size="14.00">Cost: 4800</text>
<text xml:space="preserve" text-anchor="middle" x="368.74" y="-152.93" font-family="Times,serif" font-size="14.00">QALY: 0.95</text>
</g>
<!-- NT&#45;&gt;NT_Ex&#45;smoker -->
<g id="edge7" class="edge">
<title>NT&#45;&gt;NT_Ex&#45;smoker</title>
<path fill="none" stroke="black" d="M406.98,-385.63C412.65,-359.66 420.97,-309.24 411.74,-267.63 408.33,-252.24 402.06,-236.37 395.35,-222.23"/>
<polygon fill="black" stroke="black" points="398.66,-221.03 391.09,-213.62 392.39,-224.14 398.66,-221.03"/>
</g>
<!-- NT_Dead -->
<g id="node9" class="node">
<title>NT_Dead</title>
<ellipse fill="none" stroke="black" cx="368.74" cy="-40.66" rx="53.74" ry="40.66"/>
<text xml:space="preserve" text-anchor="middle" x="368.74" y="-52.11" font-family="Times,serif" font-size="14.00">Dead</text>
<text xml:space="preserve" text-anchor="middle" x="368.74" y="-35.61" font-family="Times,serif" font-size="14.00">Cost: 0</text>
<text xml:space="preserve" text-anchor="middle" x="368.74" y="-19.11" font-family="Times,serif" font-size="14.00">QALY: 0.0</text>
</g>
<!-- NT&#45;&gt;NT_Dead -->
<g id="edge8" class="edge">
<title>NT&#45;&gt;NT_Dead</title>
<path fill="none" stroke="black" d="M415.6,-385.9C446.78,-342.34 520.84,-224.01 478.74,-133.82 466.71,-108.04 443.52,-86.92 421.53,-71.44"/>
<polygon fill="black" stroke="black" points="423.72,-68.69 413.47,-65.99 419.8,-74.49 423.72,-68.69"/>
</g>
<!-- SC_Smoker&#45;&gt;SC_Smoker -->
<g id="edge9" class="edge">
<title>SC_Smoker&#45;&gt;SC_Smoker</title>
<path fill="none" stroke="black" d="M105.97,-319.06C117.28,-318.01 125.48,-314.42 125.48,-308.29 125.48,-304.47 122.28,-301.63 117.11,-299.78"/>
<polygon fill="black" stroke="black" points="117.95,-296.38 107.46,-297.83 116.56,-303.24 117.95,-296.38"/>
<text xml:space="preserve" text-anchor="middle" x="137.48" y="-303.24" font-family="Times,serif" font-size="14.00">0.95</text>
</g>
<!-- SC_Smoker&#45;&gt;SC_Ex&#45;smoker -->
<g id="edge11" class="edge">
<title>SC_Smoker&#45;&gt;SC_Ex&#45;smoker</title>
<path fill="none" stroke="black" d="M69.64,-269.04C72.13,-262.6 74.59,-255.96 76.74,-249.63 79.38,-241.88 81.95,-233.6 84.34,-225.48"/>
<polygon fill="black" stroke="black" points="87.66,-226.62 87.07,-216.04 80.93,-224.68 87.66,-226.62"/>
<text xml:space="preserve" text-anchor="middle" x="93.92" y="-236.33" font-family="Times,serif" font-size="14.00">0.04</text>
</g>
<!-- SC_Smoker&#45;&gt;SC_Dead -->
<g id="edge13" class="edge">
<title>SC_Smoker&#45;&gt;SC_Dead</title>
<path fill="none" stroke="black" d="M31.87,-270.86C13.39,-235.13 -7.42,-179.52 10.74,-133.82 19.32,-112.23 35.63,-92.77 51.82,-77.36"/>
<polygon fill="black" stroke="black" points="54.09,-80.02 59.12,-70.69 49.37,-74.85 54.09,-80.02"/>
<text xml:space="preserve" text-anchor="middle" x="22.74" y="-169.43" font-family="Times,serif" font-size="14.00">0.01</text>
</g>
<!-- SC_Ex&#45;smoker&#45;&gt;SC_Smoker -->
<g id="edge15" class="edge">
<title>SC_Ex&#45;smoker&#45;&gt;SC_Smoker</title>
<path fill="none" stroke="black" d="M64.49,-206.7C58.05,-214.64 52.23,-223.64 48.74,-233.13 46.02,-240.54 44.88,-248.65 44.73,-256.69"/>
<polygon fill="black" stroke="black" points="41.22,-256.55 45.06,-266.42 48.22,-256.31 41.22,-256.55"/>
<text xml:space="preserve" text-anchor="middle" x="60.74" y="-236.33" font-family="Times,serif" font-size="14.00">0.02</text>
</g>
<!-- SC_Ex&#45;smoker&#45;&gt;SC_Ex&#45;smoker -->
<g id="edge17" class="edge">
<title>SC_Ex&#45;smoker&#45;&gt;SC_Ex&#45;smoker</title>
<path fill="none" stroke="black" d="M149.33,-186.72C160.97,-185.61 169.48,-181.53 169.48,-174.48 169.48,-169.96 165.99,-166.66 160.42,-164.58"/>
<polygon fill="black" stroke="black" points="161.32,-161.19 150.81,-162.55 159.87,-168.04 161.32,-161.19"/>
<text xml:space="preserve" text-anchor="middle" x="181.48" y="-169.43" font-family="Times,serif" font-size="14.00">0.97</text>
</g>
<!-- SC_Ex&#45;smoker&#45;&gt;SC_Dead -->
<g id="edge19" class="edge">
<title>SC_Ex&#45;smoker&#45;&gt;SC_Dead</title>
<path fill="none" stroke="black" d="M97.74,-133.57C97.74,-120.66 97.74,-106.17 97.74,-92.58"/>
<polygon fill="black" stroke="black" points="101.24,-92.94 97.74,-82.94 94.24,-92.94 101.24,-92.94"/>
<text xml:space="preserve" text-anchor="middle" x="109.74" y="-102.52" font-family="Times,serif" font-size="14.00">0.01</text>
</g>
<!-- SC_Dead&#45;&gt;SC_Dead -->
<g id="edge21" class="edge">
<title>SC_Dead&#45;&gt;SC_Dead</title>
<path fill="none" stroke="black" d="M149.33,-52.9C160.97,-51.8 169.48,-47.72 169.48,-40.66 169.48,-36.14 165.99,-32.84 160.42,-30.76"/>
<polygon fill="black" stroke="black" points="161.32,-27.38 150.81,-28.73 159.87,-34.22 161.32,-27.38"/>
<text xml:space="preserve" text-anchor="middle" x="172.86" y="-35.61" font-family="Times,serif" font-size="14.00">1</text>
</g>
<!-- NT_Smoker&#45;&gt;NT_Smoker -->
<g id="edge10" class="edge">
<title>NT_Smoker&#45;&gt;NT_Smoker</title>
<path fill="none" stroke="black" d="M358.97,-319.06C370.28,-318.01 378.48,-314.42 378.48,-308.29 378.48,-304.47 375.28,-301.63 370.11,-299.78"/>
<polygon fill="black" stroke="black" points="370.95,-296.38 360.46,-297.83 369.56,-303.24 370.95,-296.38"/>
<text xml:space="preserve" text-anchor="middle" x="390.48" y="-303.24" font-family="Times,serif" font-size="14.00">0.85</text>
</g>
<!-- NT_Smoker&#45;&gt;NT_Ex&#45;smoker -->
<g id="edge12" class="edge">
<title>NT_Smoker&#45;&gt;NT_Ex&#45;smoker</title>
<path fill="none" stroke="black" d="M331.44,-271.78C335.86,-264.63 340.19,-257.03 343.74,-249.63 347.42,-241.97 350.8,-233.62 353.8,-225.38"/>
<polygon fill="black" stroke="black" points="357.04,-226.7 357.02,-216.11 350.43,-224.41 357.04,-226.7"/>
<text xml:space="preserve" text-anchor="middle" x="362.56" y="-236.33" font-family="Times,serif" font-size="14.00">0.14</text>
</g>
<!-- NT_Smoker&#45;&gt;NT_Dead -->
<g id="edge14" class="edge">
<title>NT_Smoker&#45;&gt;NT_Dead</title>
<path fill="none" stroke="black" d="M288.66,-269.77C273.93,-233.71 258.34,-178.3 276.74,-133.82 286.02,-111.38 303.72,-91.54 321.12,-76.08"/>
<polygon fill="black" stroke="black" points="323.12,-78.98 328.46,-69.83 318.58,-73.65 323.12,-78.98"/>
<text xml:space="preserve" text-anchor="middle" x="288.74" y="-169.43" font-family="Times,serif" font-size="14.00">0.01</text>
</g>
<!-- NT_Ex&#45;smoker&#45;&gt;NT_Smoker -->
<g id="edge16" class="edge">
<title>NT_Ex&#45;smoker&#45;&gt;NT_Smoker</title>
<path fill="none" stroke="black" d="M333.4,-206.99C326.5,-214.86 320.07,-223.75 315.74,-233.13 312.49,-240.18 310.27,-247.98 308.77,-255.79"/>
<polygon fill="black" stroke="black" points="305.31,-255.27 307.29,-265.68 312.24,-256.31 305.31,-255.27"/>
<text xml:space="preserve" text-anchor="middle" x="327.74" y="-236.33" font-family="Times,serif" font-size="14.00">0.02</text>
</g>
<!-- NT_Ex&#45;smoker&#45;&gt;NT_Ex&#45;smoker -->
<g id="edge18" class="edge">
<title>NT_Ex&#45;smoker&#45;&gt;NT_Ex&#45;smoker</title>
<path fill="none" stroke="black" d="M425.13,-186.58C436.83,-185.31 445.25,-181.27 445.25,-174.48 445.25,-170.12 441.8,-166.9 436.24,-164.81"/>
<polygon fill="black" stroke="black" points="437.12,-161.43 426.61,-162.7 435.62,-168.26 437.12,-161.43"/>
<text xml:space="preserve" text-anchor="middle" x="457.25" y="-169.43" font-family="Times,serif" font-size="14.00">0.97</text>
</g>
<!-- NT_Ex&#45;smoker&#45;&gt;NT_Dead -->
<g id="edge20" class="edge">
<title>NT_Ex&#45;smoker&#45;&gt;NT_Dead</title>
<path fill="none" stroke="black" d="M368.74,-133.57C368.74,-120.66 368.74,-106.17 368.74,-92.58"/>
<polygon fill="black" stroke="black" points="372.24,-92.94 368.74,-82.94 365.24,-92.94 372.24,-92.94"/>
<text xml:space="preserve" text-anchor="middle" x="380.74" y="-102.52" font-family="Times,serif" font-size="14.00">0.01</text>
</g>
<!-- NT_Dead&#45;&gt;NT_Dead -->
<g id="edge22" class="edge">
<title>NT_Dead&#45;&gt;NT_Dead</title>
<path fill="none" stroke="black" d="M420.33,-52.9C431.97,-51.8 440.48,-47.72 440.48,-40.66 440.48,-36.14 436.99,-32.84 431.42,-30.76"/>
<polygon fill="black" stroke="black" points="432.32,-27.38 421.81,-28.73 430.87,-34.22 432.32,-27.38"/>
<text xml:space="preserve" text-anchor="middle" x="443.86" y="-35.61" font-family="Times,serif" font-size="14.00">1</text>
</g>
</g>
</svg>
