<?xml version="1.0" encoding="UTF-8" standalone="no"?>
<!DOCTYPE svg PUBLIC "-//W3C//DTD SVG 1.1//EN"
 "http://www.w3.org/Graphics/SVG/1.1/DTD/svg11.dtd">
<!-- Generated by graphviz version 14.0.2 (20251019.1705)
 -->
<!-- Pages: 1 -->
<svg width="565pt" height="503pt"
 viewBox="0.00 0.00 565.00 503.00" xmlns="http://www.w3.org/2000/svg" xmlns:xlink="http://www.w3.org/1999/xlink">
<g id="graph0" class="graph" transform="scale(1 1) rotate(0) translate(4 498.95)">
<polygon fill="white" stroke="none" points="-4,4 -4,-498.95 561.47,-498.95 561.47,4 -4,4"/>
<!-- D -->
<g id="node1" class="node">
<title>D</title>
<polygon fill="none" stroke="black" points="303.98,-494.95 239.98,-494.95 239.98,-458.95 303.98,-458.95 303.98,-494.95"/>
<text xml:space="preserve" text-anchor="middle" x="271.98" y="-471.9" font-family="Times,serif" font-size="14.00">Decision</text>
</g>
<!-- SC -->
<g id="node2" class="node">
<title>SC</title>
<ellipse fill="none" stroke="black" cx="192.98" cy="-403.95" rx="63.63" ry="18"/>
<text xml:space="preserve" text-anchor="middle" x="192.98" y="-398.9" font-family="Times,serif" font-size="14.00">Standard Care</text>
</g>
<!-- D&#45;&gt;SC -->
<g id="edge1" class="edge">
<title>D&#45;&gt;SC</title>
<path fill="none" stroke="black" d="M252.86,-458.76C242.91,-449.83 230.6,-438.76 219.72,-428.98"/>
<polygon fill="black" stroke="black" points="222.29,-426.58 212.51,-422.5 217.61,-431.79 222.29,-426.58"/>
</g>
<!-- NT -->
<g id="node3" class="node">
<title>NT</title>
<ellipse fill="none" stroke="black" cx="376.98" cy="-403.95" rx="68.75" ry="18"/>
<text xml:space="preserve" text-anchor="middle" x="376.98" y="-398.9" font-family="Times,serif" font-size="14.00">New Treatment</text>
</g>
<!-- D&#45;&gt;NT -->
<g id="edge2" class="edge">
<title>D&#45;&gt;NT</title>
<path fill="none" stroke="black" d="M297.67,-458.58C311.51,-449.22 328.76,-437.56 343.63,-427.5"/>
<polygon fill="black" stroke="black" points="345.42,-430.52 351.75,-422.02 341.5,-424.72 345.42,-430.52"/>
</g>
<!-- SC_Healthy -->
<g id="node4" class="node">
<title>SC_Healthy</title>
<ellipse fill="none" stroke="black" cx="130.98" cy="-308.29" rx="53.74" ry="40.66"/>
<text xml:space="preserve" text-anchor="middle" x="130.98" y="-319.74" font-family="Times,serif" font-size="14.00">Healthy</text>
<text xml:space="preserve" text-anchor="middle" x="130.98" y="-303.24" font-family="Times,serif" font-size="14.00">Cost: 120</text>
<text xml:space="preserve" text-anchor="middle" x="130.98" y="-286.74" font-family="Times,serif" font-size="14.00">QALY: 1.0</text>
</g>
<!-- SC&#45;&gt;SC_Healthy -->
<g id="edge3" class="edge">
<title>SC&#45;&gt;SC_Healthy</title>
<path fill="none" stroke="black" d="M181.61,-385.77C175.71,-376.86 168.2,-365.52 160.78,-354.31"/>
<polygon fill="black" stroke="black" points="163.88,-352.65 155.45,-346.25 158.05,-356.52 163.88,-352.65"/>
</g>
<!-- SC_Sick -->
<g id="node5" class="node">
<title>SC_Sick</title>
<ellipse fill="none" stroke="black" cx="57.98" cy="-174.48" rx="57.98" ry="40.66"/>
<text xml:space="preserve" text-anchor="middle" x="57.98" y="-185.93" font-family="Times,serif" font-size="14.00">Sick</text>
<text xml:space="preserve" text-anchor="middle" x="57.98" y="-169.43" font-family="Times,serif" font-size="14.00">Cost: 48000</text>
<text xml:space="preserve" text-anchor="middle" x="57.98" y="-152.93" font-family="Times,serif" font-size="14.00">QALY: 0.6</text>
</g>
<!-- SC&#45;&gt;SC_Sick -->
<g id="edge4" class="edge">
<title>SC&#45;&gt;SC_Sick</title>
<path fill="none" stroke="black" d="M140,-393.57C113.91,-386.07 84.58,-372.68 67.98,-348.95 43.23,-313.55 43.04,-263.48 47.67,-226.23"/>
<polygon fill="black" stroke="black" points="51.1,-227 49.04,-216.6 44.17,-226.02 51.1,-227"/>
</g>
<!-- SC_Dead -->
<g id="node6" class="node">
<title>SC_Dead</title>
<ellipse fill="none" stroke="black" cx="193.98" cy="-40.66" rx="53.74" ry="40.66"/>
<text xml:space="preserve" text-anchor="middle" x="193.98" y="-52.11" font-family="Times,serif" font-size="14.00">Dead</text>
<text xml:space="preserve" text-anchor="middle" x="193.98" y="-35.61" font-family="Times,serif" font-size="14.00">Cost: 0</text>
<text xml:space="preserve" text-anchor="middle" x="193.98" y="-19.11" font-family="Times,serif" font-size="14.00">QALY: 0.0</text>
</g>
<!-- SC&#45;&gt;SC_Dead -->
<g id="edge5" class="edge">
<title>SC&#45;&gt;SC_Dead</title>
<path fill="none" stroke="black" d="M211.13,-386.35C220.51,-376.51 231,-363.21 235.98,-348.95 266.65,-261.2 236.86,-152.06 214.2,-90.28"/>
<polygon fill="black" stroke="black" points="217.54,-89.22 210.74,-81.1 210.99,-91.69 217.54,-89.22"/>
</g>
<!-- NT_Healthy -->
<g id="node7" class="node">
<title>NT_Healthy</title>
<ellipse fill="none" stroke="black" cx="413.98" cy="-308.29" rx="53.74" ry="40.66"/>
<text xml:space="preserve" text-anchor="middle" x="413.98" y="-319.74" font-family="Times,serif" font-size="14.00">Healthy</text>
<text xml:space="preserve" text-anchor="middle" x="413.98" y="-303.24" font-family="Times,serif" font-size="14.00">Cost: 240</text>
<text xml:space="preserve" text-anchor="middle" x="413.98" y="-286.74" font-family="Times,serif" font-size="14.00">QALY: 1.0</text>
</g>
<!-- NT&#45;&gt;NT_Healthy -->
<g id="edge6" class="edge">
<title>NT&#45;&gt;NT_Healthy</title>
<path fill="none" stroke="black" d="M383.77,-385.77C386.86,-377.94 390.7,-368.22 394.59,-358.38"/>
<polygon fill="black" stroke="black" points="397.83,-359.72 398.25,-349.13 391.32,-357.14 397.83,-359.72"/>
</g>
<!-- NT_Sick -->
<g id="node8" class="node">
<title>NT_Sick</title>
<ellipse fill="none" stroke="black" cx="341.98" cy="-174.48" rx="58.51" ry="40.66"/>
<text xml:space="preserve" text-anchor="middle" x="341.98" y="-185.93" font-family="Times,serif" font-size="14.00">Sick</text>
<text xml:space="preserve" text-anchor="middle" x="341.98" y="-169.43" font-family="Times,serif" font-size="14.00">Cost: 24000</text>
<text xml:space="preserve" text-anchor="middle" x="341.98" y="-152.93" font-family="Times,serif" font-size="14.00">QALY: 0.75</text>
</g>
<!-- NT&#45;&gt;NT_Sick -->
<g id="edge7" class="edge">
<title>NT&#45;&gt;NT_Sick</title>
<path fill="none" stroke="black" d="M366.72,-386.11C360.99,-375.78 354.33,-362.06 350.98,-348.95 340.72,-308.79 338.88,-261.74 339.38,-226.78"/>
<polygon fill="black" stroke="black" points="342.88,-227 339.6,-216.93 335.88,-226.85 342.88,-227"/>
</g>
<!-- NT_Dead -->
<g id="node9" class="node">
<title>NT_Dead</title>
<ellipse fill="none" stroke="black" cx="478.98" cy="-40.66" rx="53.74" ry="40.66"/>
<text xml:space="preserve" text-anchor="middle" x="478.98" y="-52.11" font-family="Times,serif" font-size="14.00">Dead</text>
<text xml:space="preserve" text-anchor="middle" x="478.98" y="-35.61" font-family="Times,serif" font-size="14.00">Cost: 0</text>
<text xml:space="preserve" text-anchor="middle" x="478.98" y="-19.11" font-family="Times,serif" font-size="14.00">QALY: 0.0</text>
</g>
<!-- NT&#45;&gt;NT_Dead -->
<g id="edge8" class="edge">
<title>NT&#45;&gt;NT_Dead</title>
<path fill="none" stroke="black" d="M438.69,-395.66C468.15,-388.73 500.87,-375.22 518.98,-348.95 573.08,-270.5 533.16,-153.49 503.43,-88.84"/>
<polygon fill="black" stroke="black" points="506.66,-87.47 499.23,-79.92 500.32,-90.45 506.66,-87.47"/>
</g>
<!-- SC_Healthy&#45;&gt;SC_Healthy -->
<g id="edge9" class="edge">
<title>SC_Healthy&#45;&gt;SC_Healthy</title>
<path fill="none" stroke="black" d="M183.22,-319.06C194.52,-318.01 202.72,-314.42 202.72,-308.29 202.72,-304.47 199.52,-301.63 194.36,-299.78"/>
<polygon fill="black" stroke="black" points="195.2,-296.38 184.7,-297.83 193.81,-303.24 195.2,-296.38"/>
<text xml:space="preserve" text-anchor="middle" x="214.72" y="-303.24" font-family="Times,serif" font-size="14.00">0.95</text>
</g>
<!-- SC_Healthy&#45;&gt;SC_Sick -->
<g id="edge11" class="edge">
<title>SC_Healthy&#45;&gt;SC_Sick</title>
<path fill="none" stroke="black" d="M110.45,-270.22C102.29,-255.48 92.8,-238.34 84.15,-222.73"/>
<polygon fill="black" stroke="black" points="87.25,-221.1 79.34,-214.05 81.13,-224.49 87.25,-221.1"/>
<text xml:space="preserve" text-anchor="middle" x="110.85" y="-236.33" font-family="Times,serif" font-size="14.00">0.04</text>
</g>
<!-- SC_Healthy&#45;&gt;SC_Dead -->
<g id="edge13" class="edge">
<title>SC_Healthy&#45;&gt;SC_Dead</title>
<path fill="none" stroke="black" d="M147.95,-269.36C154.72,-252.96 162.06,-233.38 166.98,-215.13 177.89,-174.68 184.87,-127.65 188.99,-92.78"/>
<polygon fill="black" stroke="black" points="192.46,-93.28 190.11,-82.95 185.5,-92.49 192.46,-93.28"/>
<text xml:space="preserve" text-anchor="middle" x="195.41" y="-169.43" font-family="Times,serif" font-size="14.00">0.01</text>
</g>
<!-- SC_Sick&#45;&gt;SC_Sick -->
<g id="edge15" class="edge">
<title>SC_Sick&#45;&gt;SC_Sick</title>
<path fill="none" stroke="black" d="M113.64,-186.62C125.44,-185.38 133.97,-181.34 133.97,-174.48 133.97,-170.08 130.47,-166.84 124.85,-164.75"/>
<polygon fill="black" stroke="black" points="125.64,-161.34 115.12,-162.65 124.16,-168.19 125.64,-161.34"/>
<text xml:space="preserve" text-anchor="middle" x="145.97" y="-169.43" font-family="Times,serif" font-size="14.00">0.85</text>
</g>
<!-- SC_Sick&#45;&gt;SC_Dead -->
<g id="edge17" class="edge">
<title>SC_Sick&#45;&gt;SC_Dead</title>
<path fill="none" stroke="black" d="M91.6,-140.89C110.18,-122.88 133.42,-100.36 153.05,-81.33"/>
<polygon fill="black" stroke="black" points="155.39,-83.94 160.13,-74.47 150.52,-78.91 155.39,-83.94"/>
<text xml:space="preserve" text-anchor="middle" x="146.13" y="-102.52" font-family="Times,serif" font-size="14.00">0.15</text>
</g>
<!-- SC_Dead&#45;&gt;SC_Dead -->
<g id="edge19" class="edge">
<title>SC_Dead&#45;&gt;SC_Dead</title>
<path fill="none" stroke="black" d="M245.57,-52.9C257.21,-51.8 265.72,-47.72 265.72,-40.66 265.72,-36.14 262.23,-32.84 256.66,-30.76"/>
<polygon fill="black" stroke="black" points="257.56,-27.38 247.05,-28.73 256.11,-34.22 257.56,-27.38"/>
<text xml:space="preserve" text-anchor="middle" x="269.1" y="-35.61" font-family="Times,serif" font-size="14.00">1</text>
</g>
<!-- NT_Healthy&#45;&gt;NT_Healthy -->
<g id="edge10" class="edge">
<title>NT_Healthy&#45;&gt;NT_Healthy</title>
<path fill="none" stroke="black" d="M466.22,-319.06C477.52,-318.01 485.72,-314.42 485.72,-308.29 485.72,-304.47 482.52,-301.63 477.36,-299.78"/>
<polygon fill="black" stroke="black" points="478.2,-296.38 467.7,-297.83 476.81,-303.24 478.2,-296.38"/>
<text xml:space="preserve" text-anchor="middle" x="497.72" y="-303.24" font-family="Times,serif" font-size="14.00">0.98</text>
</g>
<!-- NT_Healthy&#45;&gt;NT_Sick -->
<g id="edge12" class="edge">
<title>NT_Healthy&#45;&gt;NT_Sick</title>
<path fill="none" stroke="black" d="M393.74,-270.22C385.68,-255.48 376.32,-238.34 367.79,-222.73"/>
<polygon fill="black" stroke="black" points="370.92,-221.15 363.05,-214.05 364.78,-224.51 370.92,-221.15"/>
<text xml:space="preserve" text-anchor="middle" x="397.67" y="-236.33" font-family="Times,serif" font-size="14.00">0.015</text>
</g>
<!-- NT_Healthy&#45;&gt;NT_Dead -->
<g id="edge14" class="edge">
<title>NT_Healthy&#45;&gt;NT_Dead</title>
<path fill="none" stroke="black" d="M431.77,-269.89C438.98,-253.42 446.81,-233.63 451.98,-215.13 463.27,-174.79 470.22,-127.75 474.24,-92.84"/>
<polygon fill="black" stroke="black" points="477.7,-93.33 475.32,-83 470.75,-92.56 477.7,-93.33"/>
<text xml:space="preserve" text-anchor="middle" x="484.1" y="-169.43" font-family="Times,serif" font-size="14.00">0.005</text>
</g>
<!-- NT_Sick&#45;&gt;NT_Sick -->
<g id="edge16" class="edge">
<title>NT_Sick&#45;&gt;NT_Sick</title>
<path fill="none" stroke="black" d="M398.37,-186.58C410.08,-185.31 418.5,-181.27 418.5,-174.48 418.5,-170.12 415.04,-166.9 409.48,-164.81"/>
<polygon fill="black" stroke="black" points="410.37,-161.43 399.85,-162.7 408.86,-168.26 410.37,-161.43"/>
<text xml:space="preserve" text-anchor="middle" x="430.5" y="-169.43" font-family="Times,serif" font-size="14.00">0.92</text>
</g>
<!-- NT_Sick&#45;&gt;NT_Dead -->
<g id="edge18" class="edge">
<title>NT_Sick&#45;&gt;NT_Dead</title>
<path fill="none" stroke="black" d="M375.85,-140.89C394.71,-122.75 418.32,-100.03 438.19,-80.91"/>
<polygon fill="black" stroke="black" points="440.58,-83.47 445.36,-74.01 435.73,-78.42 440.58,-83.47"/>
<text xml:space="preserve" text-anchor="middle" x="430.69" y="-102.52" font-family="Times,serif" font-size="14.00">0.08</text>
</g>
<!-- NT_Dead&#45;&gt;NT_Dead -->
<g id="edge20" class="edge">
<title>NT_Dead&#45;&gt;NT_Dead</title>
<path fill="none" stroke="black" d="M530.57,-52.9C542.21,-51.8 550.72,-47.72 550.72,-40.66 550.72,-36.14 547.23,-32.84 541.66,-30.76"/>
<polygon fill="black" stroke="black" points="542.56,-27.38 532.05,-28.73 541.11,-34.22 542.56,-27.38"/>
<text xml:space="preserve" text-anchor="middle" x="554.1" y="-35.61" font-family="Times,serif" font-size="14.00">1</text>
</g>
</g>
</svg>
