<?xml version="1.0" encoding="UTF-8" standalone="no"?>
<!DOCTYPE svg PUBLIC "-//W3C//DTD SVG 1.1//EN"
 "http://www.w3.org/Graphics/SVG/1.1/DTD/svg11.dtd">
<!-- Generated by graphviz version 14.0.2 (20251019.1705)
 -->
<!-- Pages: 1 -->
<svg width="590pt" height="369pt"
 viewBox="0.00 0.00 590.00 369.00" xmlns="http://www.w3.org/2000/svg" xmlns:xlink="http://www.w3.org/1999/xlink">
<g id="graph0" class="graph" transform="scale(1 1) rotate(0) translate(4 365.13)">
<polygon fill="white" stroke="none" points="-4,4 -4,-365.13 586.23,-365.13 586.23,4 -4,4"/>
<!-- D -->
<g id="node1" class="node">
<title>D</title>
<polygon fill="none" stroke="black" points="261.74,-361.13 197.74,-361.13 197.74,-325.13 261.74,-325.13 261.74,-361.13"/>
<text xml:space="preserve" text-anchor="middle" x="229.74" y="-338.08" font-family="Times,serif" font-size="14.00">Decision</text>
</g>
<!-- SC -->
<g id="node2" class="node">
<title>SC</title>
<ellipse fill="none" stroke="black" cx="155.74" cy="-270.13" rx="63.63" ry="18"/>
<text xml:space="preserve" text-anchor="middle" x="155.74" y="-265.08" font-family="Times,serif" font-size="14.00">Standard Care</text>
</g>
<!-- D&#45;&gt;SC -->
<g id="edge1" class="edge">
<title>D&#45;&gt;SC</title>
<path fill="none" stroke="black" d="M211.83,-324.95C202.67,-316.16 191.37,-305.32 181.31,-295.67"/>
<polygon fill="black" stroke="black" points="183.96,-293.36 174.33,-288.97 179.12,-298.42 183.96,-293.36"/>
</g>
<!-- NT -->
<g id="node3" class="node">
<title>NT</title>
<ellipse fill="none" stroke="black" cx="355.74" cy="-270.13" rx="68.75" ry="18"/>
<text xml:space="preserve" text-anchor="middle" x="355.74" y="-265.08" font-family="Times,serif" font-size="14.00">New Treatment</text>
</g>
<!-- D&#45;&gt;NT -->
<g id="edge2" class="edge">
<title>D&#45;&gt;NT</title>
<path fill="none" stroke="black" d="M260.56,-324.77C277.9,-315 299.68,-302.73 318.02,-292.39"/>
<polygon fill="black" stroke="black" points="319.5,-295.57 326.5,-287.61 316.07,-289.47 319.5,-295.57"/>
</g>
<!-- SC_Infected -->
<g id="node4" class="node">
<title>SC_Infected</title>
<ellipse fill="none" stroke="black" cx="135.74" cy="-174.48" rx="53.74" ry="40.66"/>
<text xml:space="preserve" text-anchor="middle" x="135.74" y="-185.93" font-family="Times,serif" font-size="14.00">Infected</text>
<text xml:space="preserve" text-anchor="middle" x="135.74" y="-169.43" font-family="Times,serif" font-size="14.00">Cost: 2000</text>
<text xml:space="preserve" text-anchor="middle" x="135.74" y="-152.93" font-family="Times,serif" font-size="14.00">QALY: 0.7</text>
</g>
<!-- SC&#45;&gt;SC_Infected -->
<g id="edge3" class="edge">
<title>SC&#45;&gt;SC_Infected</title>
<path fill="none" stroke="black" d="M152.07,-251.96C150.48,-244.52 148.53,-235.38 146.54,-226.05"/>
<polygon fill="black" stroke="black" points="150.03,-225.61 144.51,-216.57 143.18,-227.08 150.03,-225.61"/>
</g>
<!-- SC_Cured -->
<g id="node5" class="node">
<title>SC_Cured</title>
<ellipse fill="none" stroke="black" cx="53.74" cy="-40.66" rx="53.74" ry="40.66"/>
<text xml:space="preserve" text-anchor="middle" x="53.74" y="-52.11" font-family="Times,serif" font-size="14.00">Cured</text>
<text xml:space="preserve" text-anchor="middle" x="53.74" y="-35.61" font-family="Times,serif" font-size="14.00">Cost: 0</text>
<text xml:space="preserve" text-anchor="middle" x="53.74" y="-19.11" font-family="Times,serif" font-size="14.00">QALY: 1.0</text>
</g>
<!-- SC&#45;&gt;SC_Cured -->
<g id="edge4" class="edge">
<title>SC&#45;&gt;SC_Cured</title>
<path fill="none" stroke="black" d="M120.36,-254.92C103.1,-246.1 83.73,-233 72.74,-215.13 50.32,-178.69 46.85,-129.67 48.25,-93.03"/>
<polygon fill="black" stroke="black" points="51.74,-93.29 48.78,-83.12 44.75,-92.92 51.74,-93.29"/>
</g>
<!-- SC_Dead -->
<g id="node6" class="node">
<title>SC_Dead</title>
<ellipse fill="none" stroke="black" cx="203.74" cy="-40.66" rx="53.74" ry="40.66"/>
<text xml:space="preserve" text-anchor="middle" x="203.74" y="-52.11" font-family="Times,serif" font-size="14.00">Dead</text>
<text xml:space="preserve" text-anchor="middle" x="203.74" y="-35.61" font-family="Times,serif" font-size="14.00">Cost: 0</text>
<text xml:space="preserve" text-anchor="middle" x="203.74" y="-19.11" font-family="Times,serif" font-size="14.00">QALY: 0.0</text>
</g>
<!-- SC&#45;&gt;SC_Dead -->
<g id="edge5" class="edge">
<title>SC&#45;&gt;SC_Dead</title>
<path fill="none" stroke="black" d="M190.22,-254.65C206.56,-245.82 224.49,-232.79 233.74,-215.13 254.27,-175.96 242,-125.64 227.46,-89.29"/>
<polygon fill="black" stroke="black" points="230.8,-88.22 223.7,-80.36 224.35,-90.93 230.8,-88.22"/>
</g>
<!-- NT_Infected -->
<g id="node7" class="node">
<title>NT_Infected</title>
<ellipse fill="none" stroke="black" cx="386.74" cy="-174.48" rx="53.74" ry="40.66"/>
<text xml:space="preserve" text-anchor="middle" x="386.74" y="-185.93" font-family="Times,serif" font-size="14.00">Infected</text>
<text xml:space="preserve" text-anchor="middle" x="386.74" y="-169.43" font-family="Times,serif" font-size="14.00">Cost: 6000</text>
<text xml:space="preserve" text-anchor="middle" x="386.74" y="-152.93" font-family="Times,serif" font-size="14.00">QALY: 0.7</text>
</g>
<!-- NT&#45;&gt;NT_Infected -->
<g id="edge6" class="edge">
<title>NT&#45;&gt;NT_Infected</title>
<path fill="none" stroke="black" d="M361.43,-251.96C363.97,-244.28 367.1,-234.8 370.29,-225.16"/>
<polygon fill="black" stroke="black" points="373.6,-226.33 373.42,-215.73 366.95,-224.13 373.6,-226.33"/>
</g>
<!-- NT_Cured -->
<g id="node8" class="node">
<title>NT_Cured</title>
<ellipse fill="none" stroke="black" cx="353.74" cy="-40.66" rx="53.74" ry="40.66"/>
<text xml:space="preserve" text-anchor="middle" x="353.74" y="-52.11" font-family="Times,serif" font-size="14.00">Cured</text>
<text xml:space="preserve" text-anchor="middle" x="353.74" y="-35.61" font-family="Times,serif" font-size="14.00">Cost: 0</text>
<text xml:space="preserve" text-anchor="middle" x="353.74" y="-19.11" font-family="Times,serif" font-size="14.00">QALY: 1.0</text>
</g>
<!-- NT&#45;&gt;NT_Cured -->
<g id="edge7" class="edge">
<title>NT&#45;&gt;NT_Cured</title>
<path fill="none" stroke="black" d="M342.51,-252.22C335.43,-242.09 327.43,-228.59 323.74,-215.13 312.36,-173.59 322.6,-125.22 334.1,-90.12"/>
<polygon fill="black" stroke="black" points="337.26,-91.71 337.2,-81.11 330.64,-89.43 337.26,-91.71"/>
</g>
<!-- NT_Dead -->
<g id="node9" class="node">
<title>NT_Dead</title>
<ellipse fill="none" stroke="black" cx="503.74" cy="-40.66" rx="53.74" ry="40.66"/>
<text xml:space="preserve" text-anchor="middle" x="503.74" y="-52.11" font-family="Times,serif" font-size="14.00">Dead</text>
<text xml:space="preserve" text-anchor="middle" x="503.74" y="-35.61" font-family="Times,serif" font-size="14.00">Cost: 0</text>
<text xml:space="preserve" text-anchor="middle" x="503.74" y="-19.11" font-family="Times,serif" font-size="14.00">QALY: 0.0</text>
</g>
<!-- NT&#45;&gt;NT_Dead -->
<g id="edge8" class="edge">
<title>NT&#45;&gt;NT_Dead</title>
<path fill="none" stroke="black" d="M411.51,-259.37C437.87,-251.8 467.3,-238.47 484.74,-215.13 510.79,-180.27 513.59,-129.92 511.03,-92.43"/>
<polygon fill="black" stroke="black" points="514.54,-92.42 510.21,-82.75 507.56,-93.01 514.54,-92.42"/>
</g>
<!-- SC_Infected&#45;&gt;SC_Infected -->
<g id="edge9" class="edge">
<title>SC_Infected&#45;&gt;SC_Infected</title>
<path fill="none" stroke="black" d="M187.97,-185.24C199.28,-184.19 207.48,-180.6 207.48,-174.48 207.48,-170.65 204.28,-167.81 199.11,-165.97"/>
<polygon fill="black" stroke="black" points="199.95,-162.56 189.46,-164.01 198.56,-169.42 199.95,-162.56"/>
<text xml:space="preserve" text-anchor="middle" x="216.11" y="-169.43" font-family="Times,serif" font-size="14.00">0.9</text>
</g>
<!-- SC_Infected&#45;&gt;SC_Cured -->
<g id="edge11" class="edge">
<title>SC_Infected&#45;&gt;SC_Cured</title>
<path fill="none" stroke="black" d="M113.12,-137.11C103.53,-121.69 92.25,-103.56 82.11,-87.26"/>
<polygon fill="black" stroke="black" points="85.34,-85.84 77.09,-79.19 79.4,-89.53 85.34,-85.84"/>
<text xml:space="preserve" text-anchor="middle" x="111.65" y="-102.52" font-family="Times,serif" font-size="14.00">0.05</text>
</g>
<!-- SC_Infected&#45;&gt;SC_Dead -->
<g id="edge13" class="edge">
<title>SC_Infected&#45;&gt;SC_Dead</title>
<path fill="none" stroke="black" d="M155.04,-136.05C162.65,-121.32 171.46,-104.23 179.48,-88.68"/>
<polygon fill="black" stroke="black" points="182.46,-90.55 183.93,-80.06 176.23,-87.34 182.46,-90.55"/>
<text xml:space="preserve" text-anchor="middle" x="185.81" y="-102.52" font-family="Times,serif" font-size="14.00">0.05</text>
</g>
<!-- SC_Cured&#45;&gt;SC_Cured -->
<g id="edge15" class="edge">
<title>SC_Cured&#45;&gt;SC_Cured</title>
<path fill="none" stroke="black" d="M105.33,-52.9C116.97,-51.8 125.48,-47.72 125.48,-40.66 125.48,-36.14 121.99,-32.84 116.42,-30.76"/>
<polygon fill="black" stroke="black" points="117.32,-27.38 106.81,-28.73 115.87,-34.22 117.32,-27.38"/>
<text xml:space="preserve" text-anchor="middle" x="128.86" y="-35.61" font-family="Times,serif" font-size="14.00">1</text>
</g>
<!-- SC_Dead&#45;&gt;SC_Dead -->
<g id="edge17" class="edge">
<title>SC_Dead&#45;&gt;SC_Dead</title>
<path fill="none" stroke="black" d="M255.33,-52.9C266.97,-51.8 275.48,-47.72 275.48,-40.66 275.48,-36.14 271.99,-32.84 266.42,-30.76"/>
<polygon fill="black" stroke="black" points="267.32,-27.38 256.81,-28.73 265.87,-34.22 267.32,-27.38"/>
<text xml:space="preserve" text-anchor="middle" x="278.86" y="-35.61" font-family="Times,serif" font-size="14.00">1</text>
</g>
<!-- NT_Infected&#45;&gt;NT_Infected -->
<g id="edge10" class="edge">
<title>NT_Infected&#45;&gt;NT_Infected</title>
<path fill="none" stroke="black" d="M438.97,-185.24C450.28,-184.19 458.48,-180.6 458.48,-174.48 458.48,-170.65 455.28,-167.81 450.11,-165.97"/>
<polygon fill="black" stroke="black" points="450.95,-162.56 440.46,-164.01 449.56,-169.42 450.95,-162.56"/>
<text xml:space="preserve" text-anchor="middle" x="467.11" y="-169.43" font-family="Times,serif" font-size="14.00">0.1</text>
</g>
<!-- NT_Infected&#45;&gt;NT_Cured -->
<g id="edge12" class="edge">
<title>NT_Infected&#45;&gt;NT_Cured</title>
<path fill="none" stroke="black" d="M376.93,-134.28C373.6,-120.99 369.84,-105.95 366.32,-91.92"/>
<polygon fill="black" stroke="black" points="369.76,-91.25 363.94,-82.4 362.97,-92.95 369.76,-91.25"/>
<text xml:space="preserve" text-anchor="middle" x="384.22" y="-102.52" font-family="Times,serif" font-size="14.00">0.85</text>
</g>
<!-- NT_Infected&#45;&gt;NT_Dead -->
<g id="edge14" class="edge">
<title>NT_Infected&#45;&gt;NT_Dead</title>
<path fill="none" stroke="black" d="M416.26,-140.21C431.64,-122.88 450.6,-101.53 466.93,-83.13"/>
<polygon fill="black" stroke="black" points="469.2,-85.85 473.22,-76.04 463.96,-81.2 469.2,-85.85"/>
<text xml:space="preserve" text-anchor="middle" x="464.25" y="-102.52" font-family="Times,serif" font-size="14.00">0.05</text>
</g>
<!-- NT_Cured&#45;&gt;NT_Cured -->
<g id="edge16" class="edge">
<title>NT_Cured&#45;&gt;NT_Cured</title>
<path fill="none" stroke="black" d="M405.33,-52.9C416.97,-51.8 425.48,-47.72 425.48,-40.66 425.48,-36.14 421.99,-32.84 416.42,-30.76"/>
<polygon fill="black" stroke="black" points="417.32,-27.38 406.81,-28.73 415.87,-34.22 417.32,-27.38"/>
<text xml:space="preserve" text-anchor="middle" x="428.86" y="-35.61" font-family="Times,serif" font-size="14.00">1</text>
</g>
<!-- NT_Dead&#45;&gt;NT_Dead -->
<g id="edge18" class="edge">
<title>NT_Dead&#45;&gt;NT_Dead</title>
<path fill="none" stroke="black" d="M555.33,-52.9C566.97,-51.8 575.48,-47.72 575.48,-40.66 575.48,-36.14 571.99,-32.84 566.42,-30.76"/>
<polygon fill="black" stroke="black" points="567.32,-27.38 556.81,-28.73 565.87,-34.22 567.32,-27.38"/>
<text xml:space="preserve" text-anchor="middle" x="578.86" y="-35.61" font-family="Times,serif" font-size="14.00">1</text>
</g>
</g>
</svg>
