<?xml version="1.0" encoding="utf-8" standalone="no"?>
<!DOCTYPE svg PUBLIC "-//W3C//DTD SVG 1.1//EN"
  "http://www.w3.org/Graphics/SVG/1.1/DTD/svg11.dtd">
<svg xmlns:xlink="http://www.w3.org/1999/xlink" width="1288.899375pt" height="601.68pt" viewBox="0 0 1288.899375 601.68" xmlns="http://www.w3.org/2000/svg" version="1.1">
 <metadata>
  <rdf:RDF xmlns:dc="http://purl.org/dc/elements/1.1/" xmlns:cc="http://creativecommons.org/ns#" xmlns:rdf="http://www.w3.org/1999/02/22-rdf-syntax-ns#">
   <cc:Work>
    <dc:type rdf:resource="http://purl.org/dc/dcmitype/StillImage"/>
    <dc:date>2025-11-29T08:04:40.471066</dc:date>
    <dc:format>image/svg+xml</dc:format>
    <dc:creator>
     <cc:Agent>
      <dc:title>Matplotlib v3.10.7, https://matplotlib.org/</dc:title>
     </cc:Agent>
    </dc:creator>
   </cc:Work>
  </rdf:RDF>
 </metadata>
 <defs>
  <style type="text/css">*{stroke-linejoin: round; stroke-linecap: butt}</style>
 </defs>
 <g id="figure_1">
  <g id="patch_1">
   <path d="M 0 601.68 
L 1288.899375 601.68 
L 1288.899375 0 
L 0 0 
z
" style="fill: #ffffff"/>
  </g>
  <g id="axes_1">
   <g id="patch_2">
    <path d="M 48.579375 485.28 
L 647.034375 485.28 
L 647.034375 68.256 
L 48.579375 68.256 
z
" style="fill: #ffffff"/>
   </g>
   <g id="matplotlib.axis_1">
    <g id="xtick_1">
     <g id="line2d_1">
      <path d="M 75.781875 485.28 
L 75.781875 68.256 
" clip-path="url(#p68ff80de5d)" style="fill: none; stroke: #cccccc; stroke-opacity: 0.3; stroke-width: 0.8; stroke-linecap: round"/>
     </g>
     <g id="line2d_2"/>
     <g id="text_1">
      <!-- 0 -->
      <g style="fill: #262626" transform="translate(72.600625 496.378437) scale(0.1 -0.1)">
       <defs>
        <path id="DejaVuSans-30" d="M 2034 4250 
Q 1547 4250 1301 3770 
Q 1056 3291 1056 2328 
Q 1056 1369 1301 889 
Q 1547 409 2034 409 
Q 2525 409 2770 889 
Q 3016 1369 3016 2328 
Q 3016 3291 2770 3770 
Q 2525 4250 2034 4250 
z
M 2034 4750 
Q 2819 4750 3233 4129 
Q 3647 3509 3647 2328 
Q 3647 1150 3233 529 
Q 2819 -91 2034 -91 
Q 1250 -91 836 529 
Q 422 1150 422 2328 
Q 422 3509 836 4129 
Q 1250 4750 2034 4750 
z
" transform="scale(0.015625)"/>
       </defs>
       <use xlink:href="#DejaVuSans-30"/>
      </g>
     </g>
    </g>
    <g id="xtick_2">
     <g id="line2d_3">
      <path d="M 184.591875 485.28 
L 184.591875 68.256 
" clip-path="url(#p68ff80de5d)" style="fill: none; stroke: #cccccc; stroke-opacity: 0.3; stroke-width: 0.8; stroke-linecap: round"/>
     </g>
     <g id="line2d_4"/>
     <g id="text_2">
      <!-- 20000 -->
      <g style="fill: #262626" transform="translate(168.685625 496.378437) scale(0.1 -0.1)">
       <defs>
        <path id="DejaVuSans-32" d="M 1228 531 
L 3431 531 
L 3431 0 
L 469 0 
L 469 531 
Q 828 903 1448 1529 
Q 2069 2156 2228 2338 
Q 2531 2678 2651 2914 
Q 2772 3150 2772 3378 
Q 2772 3750 2511 3984 
Q 2250 4219 1831 4219 
Q 1534 4219 1204 4116 
Q 875 4013 500 3803 
L 500 4441 
Q 881 4594 1212 4672 
Q 1544 4750 1819 4750 
Q 2544 4750 2975 4387 
Q 3406 4025 3406 3419 
Q 3406 3131 3298 2873 
Q 3191 2616 2906 2266 
Q 2828 2175 2409 1742 
Q 1991 1309 1228 531 
z
" transform="scale(0.015625)"/>
       </defs>
       <use xlink:href="#DejaVuSans-32"/>
       <use xlink:href="#DejaVuSans-30" transform="translate(63.623047 0)"/>
       <use xlink:href="#DejaVuSans-30" transform="translate(127.246094 0)"/>
       <use xlink:href="#DejaVuSans-30" transform="translate(190.869141 0)"/>
       <use xlink:href="#DejaVuSans-30" transform="translate(254.492188 0)"/>
      </g>
     </g>
    </g>
    <g id="xtick_3">
     <g id="line2d_5">
      <path d="M 293.401875 485.28 
L 293.401875 68.256 
" clip-path="url(#p68ff80de5d)" style="fill: none; stroke: #cccccc; stroke-opacity: 0.3; stroke-width: 0.8; stroke-linecap: round"/>
     </g>
     <g id="line2d_6"/>
     <g id="text_3">
      <!-- 40000 -->
      <g style="fill: #262626" transform="translate(277.495625 496.378437) scale(0.1 -0.1)">
       <defs>
        <path id="DejaVuSans-34" d="M 2419 4116 
L 825 1625 
L 2419 1625 
L 2419 4116 
z
M 2253 4666 
L 3047 4666 
L 3047 1625 
L 3713 1625 
L 3713 1100 
L 3047 1100 
L 3047 0 
L 2419 0 
L 2419 1100 
L 313 1100 
L 313 1709 
L 2253 4666 
z
" transform="scale(0.015625)"/>
       </defs>
       <use xlink:href="#DejaVuSans-34"/>
       <use xlink:href="#DejaVuSans-30" transform="translate(63.623047 0)"/>
       <use xlink:href="#DejaVuSans-30" transform="translate(127.246094 0)"/>
       <use xlink:href="#DejaVuSans-30" transform="translate(190.869141 0)"/>
       <use xlink:href="#DejaVuSans-30" transform="translate(254.492188 0)"/>
      </g>
     </g>
    </g>
    <g id="xtick_4">
     <g id="line2d_7">
      <path d="M 402.211875 485.28 
L 402.211875 68.256 
" clip-path="url(#p68ff80de5d)" style="fill: none; stroke: #cccccc; stroke-opacity: 0.3; stroke-width: 0.8; stroke-linecap: round"/>
     </g>
     <g id="line2d_8"/>
     <g id="text_4">
      <!-- 60000 -->
      <g style="fill: #262626" transform="translate(386.305625 496.378437) scale(0.1 -0.1)">
       <defs>
        <path id="DejaVuSans-36" d="M 2113 2584 
Q 1688 2584 1439 2293 
Q 1191 2003 1191 1497 
Q 1191 994 1439 701 
Q 1688 409 2113 409 
Q 2538 409 2786 701 
Q 3034 994 3034 1497 
Q 3034 2003 2786 2293 
Q 2538 2584 2113 2584 
z
M 3366 4563 
L 3366 3988 
Q 3128 4100 2886 4159 
Q 2644 4219 2406 4219 
Q 1781 4219 1451 3797 
Q 1122 3375 1075 2522 
Q 1259 2794 1537 2939 
Q 1816 3084 2150 3084 
Q 2853 3084 3261 2657 
Q 3669 2231 3669 1497 
Q 3669 778 3244 343 
Q 2819 -91 2113 -91 
Q 1303 -91 875 529 
Q 447 1150 447 2328 
Q 447 3434 972 4092 
Q 1497 4750 2381 4750 
Q 2619 4750 2861 4703 
Q 3103 4656 3366 4563 
z
" transform="scale(0.015625)"/>
       </defs>
       <use xlink:href="#DejaVuSans-36"/>
       <use xlink:href="#DejaVuSans-30" transform="translate(63.623047 0)"/>
       <use xlink:href="#DejaVuSans-30" transform="translate(127.246094 0)"/>
       <use xlink:href="#DejaVuSans-30" transform="translate(190.869141 0)"/>
       <use xlink:href="#DejaVuSans-30" transform="translate(254.492188 0)"/>
      </g>
     </g>
    </g>
    <g id="xtick_5">
     <g id="line2d_9">
      <path d="M 511.021875 485.28 
L 511.021875 68.256 
" clip-path="url(#p68ff80de5d)" style="fill: none; stroke: #cccccc; stroke-opacity: 0.3; stroke-width: 0.8; stroke-linecap: round"/>
     </g>
     <g id="line2d_10"/>
     <g id="text_5">
      <!-- 80000 -->
      <g style="fill: #262626" transform="translate(495.115625 496.378437) scale(0.1 -0.1)">
       <defs>
        <path id="DejaVuSans-38" d="M 2034 2216 
Q 1584 2216 1326 1975 
Q 1069 1734 1069 1313 
Q 1069 891 1326 650 
Q 1584 409 2034 409 
Q 2484 409 2743 651 
Q 3003 894 3003 1313 
Q 3003 1734 2745 1975 
Q 2488 2216 2034 2216 
z
M 1403 2484 
Q 997 2584 770 2862 
Q 544 3141 544 3541 
Q 544 4100 942 4425 
Q 1341 4750 2034 4750 
Q 2731 4750 3128 4425 
Q 3525 4100 3525 3541 
Q 3525 3141 3298 2862 
Q 3072 2584 2669 2484 
Q 3125 2378 3379 2068 
Q 3634 1759 3634 1313 
Q 3634 634 3220 271 
Q 2806 -91 2034 -91 
Q 1263 -91 848 271 
Q 434 634 434 1313 
Q 434 1759 690 2068 
Q 947 2378 1403 2484 
z
M 1172 3481 
Q 1172 3119 1398 2916 
Q 1625 2713 2034 2713 
Q 2441 2713 2670 2916 
Q 2900 3119 2900 3481 
Q 2900 3844 2670 4047 
Q 2441 4250 2034 4250 
Q 1625 4250 1398 4047 
Q 1172 3844 1172 3481 
z
" transform="scale(0.015625)"/>
       </defs>
       <use xlink:href="#DejaVuSans-38"/>
       <use xlink:href="#DejaVuSans-30" transform="translate(63.623047 0)"/>
       <use xlink:href="#DejaVuSans-30" transform="translate(127.246094 0)"/>
       <use xlink:href="#DejaVuSans-30" transform="translate(190.869141 0)"/>
       <use xlink:href="#DejaVuSans-30" transform="translate(254.492188 0)"/>
      </g>
     </g>
    </g>
    <g id="xtick_6">
     <g id="line2d_11">
      <path d="M 619.831875 485.28 
L 619.831875 68.256 
" clip-path="url(#p68ff80de5d)" style="fill: none; stroke: #cccccc; stroke-opacity: 0.3; stroke-width: 0.8; stroke-linecap: round"/>
     </g>
     <g id="line2d_12"/>
     <g id="text_6">
      <!-- 100000 -->
      <g style="fill: #262626" transform="translate(600.744375 496.378437) scale(0.1 -0.1)">
       <defs>
        <path id="DejaVuSans-31" d="M 794 531 
L 1825 531 
L 1825 4091 
L 703 3866 
L 703 4441 
L 1819 4666 
L 2450 4666 
L 2450 531 
L 3481 531 
L 3481 0 
L 794 0 
L 794 531 
z
" transform="scale(0.015625)"/>
       </defs>
       <use xlink:href="#DejaVuSans-31"/>
       <use xlink:href="#DejaVuSans-30" transform="translate(63.623047 0)"/>
       <use xlink:href="#DejaVuSans-30" transform="translate(127.246094 0)"/>
       <use xlink:href="#DejaVuSans-30" transform="translate(190.869141 0)"/>
       <use xlink:href="#DejaVuSans-30" transform="translate(254.492188 0)"/>
       <use xlink:href="#DejaVuSans-30" transform="translate(318.115234 0)"/>
      </g>
     </g>
    </g>
    <g id="text_7">
     <!-- Willingness-To-Pay Threshold ($/QALY) -->
     <g style="fill: #262626" transform="translate(234.257813 511.57625) scale(0.12 -0.12)">
      <defs>
       <path id="DejaVuSans-57" d="M 213 4666 
L 850 4666 
L 1831 722 
L 2809 4666 
L 3519 4666 
L 4500 722 
L 5478 4666 
L 6119 4666 
L 4947 0 
L 4153 0 
L 3169 4050 
L 2175 0 
L 1381 0 
L 213 4666 
z
" transform="scale(0.015625)"/>
       <path id="DejaVuSans-69" d="M 603 3500 
L 1178 3500 
L 1178 0 
L 603 0 
L 603 3500 
z
M 603 4863 
L 1178 4863 
L 1178 4134 
L 603 4134 
L 603 4863 
z
" transform="scale(0.015625)"/>
       <path id="DejaVuSans-6c" d="M 603 4863 
L 1178 4863 
L 1178 0 
L 603 0 
L 603 4863 
z
" transform="scale(0.015625)"/>
       <path id="DejaVuSans-6e" d="M 3513 2113 
L 3513 0 
L 2938 0 
L 2938 2094 
Q 2938 2591 2744 2837 
Q 2550 3084 2163 3084 
Q 1697 3084 1428 2787 
Q 1159 2491 1159 1978 
L 1159 0 
L 581 0 
L 581 3500 
L 1159 3500 
L 1159 2956 
Q 1366 3272 1645 3428 
Q 1925 3584 2291 3584 
Q 2894 3584 3203 3211 
Q 3513 2838 3513 2113 
z
" transform="scale(0.015625)"/>
       <path id="DejaVuSans-67" d="M 2906 1791 
Q 2906 2416 2648 2759 
Q 2391 3103 1925 3103 
Q 1463 3103 1205 2759 
Q 947 2416 947 1791 
Q 947 1169 1205 825 
Q 1463 481 1925 481 
Q 2391 481 2648 825 
Q 2906 1169 2906 1791 
z
M 3481 434 
Q 3481 -459 3084 -895 
Q 2688 -1331 1869 -1331 
Q 1566 -1331 1297 -1286 
Q 1028 -1241 775 -1147 
L 775 -588 
Q 1028 -725 1275 -790 
Q 1522 -856 1778 -856 
Q 2344 -856 2625 -561 
Q 2906 -266 2906 331 
L 2906 616 
Q 2728 306 2450 153 
Q 2172 0 1784 0 
Q 1141 0 747 490 
Q 353 981 353 1791 
Q 353 2603 747 3093 
Q 1141 3584 1784 3584 
Q 2172 3584 2450 3431 
Q 2728 3278 2906 2969 
L 2906 3500 
L 3481 3500 
L 3481 434 
z
" transform="scale(0.015625)"/>
       <path id="DejaVuSans-65" d="M 3597 1894 
L 3597 1613 
L 953 1613 
Q 991 1019 1311 708 
Q 1631 397 2203 397 
Q 2534 397 2845 478 
Q 3156 559 3463 722 
L 3463 178 
Q 3153 47 2828 -22 
Q 2503 -91 2169 -91 
Q 1331 -91 842 396 
Q 353 884 353 1716 
Q 353 2575 817 3079 
Q 1281 3584 2069 3584 
Q 2775 3584 3186 3129 
Q 3597 2675 3597 1894 
z
M 3022 2063 
Q 3016 2534 2758 2815 
Q 2500 3097 2075 3097 
Q 1594 3097 1305 2825 
Q 1016 2553 972 2059 
L 3022 2063 
z
" transform="scale(0.015625)"/>
       <path id="DejaVuSans-73" d="M 2834 3397 
L 2834 2853 
Q 2591 2978 2328 3040 
Q 2066 3103 1784 3103 
Q 1356 3103 1142 2972 
Q 928 2841 928 2578 
Q 928 2378 1081 2264 
Q 1234 2150 1697 2047 
L 1894 2003 
Q 2506 1872 2764 1633 
Q 3022 1394 3022 966 
Q 3022 478 2636 193 
Q 2250 -91 1575 -91 
Q 1294 -91 989 -36 
Q 684 19 347 128 
L 347 722 
Q 666 556 975 473 
Q 1284 391 1588 391 
Q 1994 391 2212 530 
Q 2431 669 2431 922 
Q 2431 1156 2273 1281 
Q 2116 1406 1581 1522 
L 1381 1569 
Q 847 1681 609 1914 
Q 372 2147 372 2553 
Q 372 3047 722 3315 
Q 1072 3584 1716 3584 
Q 2034 3584 2315 3537 
Q 2597 3491 2834 3397 
z
" transform="scale(0.015625)"/>
       <path id="DejaVuSans-2d" d="M 313 2009 
L 1997 2009 
L 1997 1497 
L 313 1497 
L 313 2009 
z
" transform="scale(0.015625)"/>
       <path id="DejaVuSans-54" d="M -19 4666 
L 3928 4666 
L 3928 4134 
L 2272 4134 
L 2272 0 
L 1638 0 
L 1638 4134 
L -19 4134 
L -19 4666 
z
" transform="scale(0.015625)"/>
       <path id="DejaVuSans-6f" d="M 1959 3097 
Q 1497 3097 1228 2736 
Q 959 2375 959 1747 
Q 959 1119 1226 758 
Q 1494 397 1959 397 
Q 2419 397 2687 759 
Q 2956 1122 2956 1747 
Q 2956 2369 2687 2733 
Q 2419 3097 1959 3097 
z
M 1959 3584 
Q 2709 3584 3137 3096 
Q 3566 2609 3566 1747 
Q 3566 888 3137 398 
Q 2709 -91 1959 -91 
Q 1206 -91 779 398 
Q 353 888 353 1747 
Q 353 2609 779 3096 
Q 1206 3584 1959 3584 
z
" transform="scale(0.015625)"/>
       <path id="DejaVuSans-50" d="M 1259 4147 
L 1259 2394 
L 2053 2394 
Q 2494 2394 2734 2622 
Q 2975 2850 2975 3272 
Q 2975 3691 2734 3919 
Q 2494 4147 2053 4147 
L 1259 4147 
z
M 628 4666 
L 2053 4666 
Q 2838 4666 3239 4311 
Q 3641 3956 3641 3272 
Q 3641 2581 3239 2228 
Q 2838 1875 2053 1875 
L 1259 1875 
L 1259 0 
L 628 0 
L 628 4666 
z
" transform="scale(0.015625)"/>
       <path id="DejaVuSans-61" d="M 2194 1759 
Q 1497 1759 1228 1600 
Q 959 1441 959 1056 
Q 959 750 1161 570 
Q 1363 391 1709 391 
Q 2188 391 2477 730 
Q 2766 1069 2766 1631 
L 2766 1759 
L 2194 1759 
z
M 3341 1997 
L 3341 0 
L 2766 0 
L 2766 531 
Q 2569 213 2275 61 
Q 1981 -91 1556 -91 
Q 1019 -91 701 211 
Q 384 513 384 1019 
Q 384 1609 779 1909 
Q 1175 2209 1959 2209 
L 2766 2209 
L 2766 2266 
Q 2766 2663 2505 2880 
Q 2244 3097 1772 3097 
Q 1472 3097 1187 3025 
Q 903 2953 641 2809 
L 641 3341 
Q 956 3463 1253 3523 
Q 1550 3584 1831 3584 
Q 2591 3584 2966 3190 
Q 3341 2797 3341 1997 
z
" transform="scale(0.015625)"/>
       <path id="DejaVuSans-79" d="M 2059 -325 
Q 1816 -950 1584 -1140 
Q 1353 -1331 966 -1331 
L 506 -1331 
L 506 -850 
L 844 -850 
Q 1081 -850 1212 -737 
Q 1344 -625 1503 -206 
L 1606 56 
L 191 3500 
L 800 3500 
L 1894 763 
L 2988 3500 
L 3597 3500 
L 2059 -325 
z
" transform="scale(0.015625)"/>
       <path id="DejaVuSans-20" transform="scale(0.015625)"/>
       <path id="DejaVuSans-68" d="M 3513 2113 
L 3513 0 
L 2938 0 
L 2938 2094 
Q 2938 2591 2744 2837 
Q 2550 3084 2163 3084 
Q 1697 3084 1428 2787 
Q 1159 2491 1159 1978 
L 1159 0 
L 581 0 
L 581 4863 
L 1159 4863 
L 1159 2956 
Q 1366 3272 1645 3428 
Q 1925 3584 2291 3584 
Q 2894 3584 3203 3211 
Q 3513 2838 3513 2113 
z
" transform="scale(0.015625)"/>
       <path id="DejaVuSans-72" d="M 2631 2963 
Q 2534 3019 2420 3045 
Q 2306 3072 2169 3072 
Q 1681 3072 1420 2755 
Q 1159 2438 1159 1844 
L 1159 0 
L 581 0 
L 581 3500 
L 1159 3500 
L 1159 2956 
Q 1341 3275 1631 3429 
Q 1922 3584 2338 3584 
Q 2397 3584 2469 3576 
Q 2541 3569 2628 3553 
L 2631 2963 
z
" transform="scale(0.015625)"/>
       <path id="DejaVuSans-64" d="M 2906 2969 
L 2906 4863 
L 3481 4863 
L 3481 0 
L 2906 0 
L 2906 525 
Q 2725 213 2448 61 
Q 2172 -91 1784 -91 
Q 1150 -91 751 415 
Q 353 922 353 1747 
Q 353 2572 751 3078 
Q 1150 3584 1784 3584 
Q 2172 3584 2448 3432 
Q 2725 3281 2906 2969 
z
M 947 1747 
Q 947 1113 1208 752 
Q 1469 391 1925 391 
Q 2381 391 2643 752 
Q 2906 1113 2906 1747 
Q 2906 2381 2643 2742 
Q 2381 3103 1925 3103 
Q 1469 3103 1208 2742 
Q 947 2381 947 1747 
z
" transform="scale(0.015625)"/>
       <path id="DejaVuSans-28" d="M 1984 4856 
Q 1566 4138 1362 3434 
Q 1159 2731 1159 2009 
Q 1159 1288 1364 580 
Q 1569 -128 1984 -844 
L 1484 -844 
Q 1016 -109 783 600 
Q 550 1309 550 2009 
Q 550 2706 781 3412 
Q 1013 4119 1484 4856 
L 1984 4856 
z
" transform="scale(0.015625)"/>
       <path id="DejaVuSans-24" d="M 2163 -941 
L 1850 -941 
L 1847 0 
Q 1519 6 1191 76 
Q 863 147 531 288 
L 531 850 
Q 850 650 1176 548 
Q 1503 447 1850 444 
L 1850 1869 
Q 1159 1981 845 2250 
Q 531 2519 531 2988 
Q 531 3497 872 3790 
Q 1213 4084 1850 4128 
L 1850 4863 
L 2163 4863 
L 2163 4138 
Q 2453 4125 2725 4076 
Q 2997 4028 3256 3944 
L 3256 3397 
Q 2997 3528 2723 3600 
Q 2450 3672 2163 3684 
L 2163 2350 
Q 2872 2241 3206 1959 
Q 3541 1678 3541 1191 
Q 3541 663 3186 358 
Q 2831 53 2163 6 
L 2163 -941 
z
M 1850 2406 
L 1850 3688 
Q 1488 3647 1297 3481 
Q 1106 3316 1106 3041 
Q 1106 2772 1282 2622 
Q 1459 2472 1850 2406 
z
M 2163 1806 
L 2163 453 
Q 2559 506 2761 678 
Q 2963 850 2963 1131 
Q 2963 1406 2770 1568 
Q 2578 1731 2163 1806 
z
" transform="scale(0.015625)"/>
       <path id="DejaVuSans-2f" d="M 1625 4666 
L 2156 4666 
L 531 -594 
L 0 -594 
L 1625 4666 
z
" transform="scale(0.015625)"/>
       <path id="DejaVuSans-51" d="M 2522 4238 
Q 1834 4238 1429 3725 
Q 1025 3213 1025 2328 
Q 1025 1447 1429 934 
Q 1834 422 2522 422 
Q 3209 422 3611 934 
Q 4013 1447 4013 2328 
Q 4013 3213 3611 3725 
Q 3209 4238 2522 4238 
z
M 3406 84 
L 4238 -825 
L 3475 -825 
L 2784 -78 
Q 2681 -84 2626 -87 
Q 2572 -91 2522 -91 
Q 1538 -91 948 567 
Q 359 1225 359 2328 
Q 359 3434 948 4092 
Q 1538 4750 2522 4750 
Q 3503 4750 4090 4092 
Q 4678 3434 4678 2328 
Q 4678 1516 4351 937 
Q 4025 359 3406 84 
z
" transform="scale(0.015625)"/>
       <path id="DejaVuSans-41" d="M 2188 4044 
L 1331 1722 
L 3047 1722 
L 2188 4044 
z
M 1831 4666 
L 2547 4666 
L 4325 0 
L 3669 0 
L 3244 1197 
L 1141 1197 
L 716 0 
L 50 0 
L 1831 4666 
z
" transform="scale(0.015625)"/>
       <path id="DejaVuSans-4c" d="M 628 4666 
L 1259 4666 
L 1259 531 
L 3531 531 
L 3531 0 
L 628 0 
L 628 4666 
z
" transform="scale(0.015625)"/>
       <path id="DejaVuSans-59" d="M -13 4666 
L 666 4666 
L 1959 2747 
L 3244 4666 
L 3922 4666 
L 2272 2222 
L 2272 0 
L 1638 0 
L 1638 2222 
L -13 4666 
z
" transform="scale(0.015625)"/>
       <path id="DejaVuSans-29" d="M 513 4856 
L 1013 4856 
Q 1481 4119 1714 3412 
Q 1947 2706 1947 2009 
Q 1947 1309 1714 600 
Q 1481 -109 1013 -844 
L 513 -844 
Q 928 -128 1133 580 
Q 1338 1288 1338 2009 
Q 1338 2731 1133 3434 
Q 928 4138 513 4856 
z
" transform="scale(0.015625)"/>
      </defs>
      <use xlink:href="#DejaVuSans-57"/>
      <use xlink:href="#DejaVuSans-69" transform="translate(96.626953 0)"/>
      <use xlink:href="#DejaVuSans-6c" transform="translate(124.410156 0)"/>
      <use xlink:href="#DejaVuSans-6c" transform="translate(152.193359 0)"/>
      <use xlink:href="#DejaVuSans-69" transform="translate(179.976562 0)"/>
      <use xlink:href="#DejaVuSans-6e" transform="translate(207.759766 0)"/>
      <use xlink:href="#DejaVuSans-67" transform="translate(271.138672 0)"/>
      <use xlink:href="#DejaVuSans-6e" transform="translate(334.615234 0)"/>
      <use xlink:href="#DejaVuSans-65" transform="translate(397.994141 0)"/>
      <use xlink:href="#DejaVuSans-73" transform="translate(459.517578 0)"/>
      <use xlink:href="#DejaVuSans-73" transform="translate(511.617188 0)"/>
      <use xlink:href="#DejaVuSans-2d" transform="translate(563.716797 0)"/>
      <use xlink:href="#DejaVuSans-54" transform="translate(590.675781 0)"/>
      <use xlink:href="#DejaVuSans-6f" transform="translate(634.759766 0)"/>
      <use xlink:href="#DejaVuSans-2d" transform="translate(697.816406 0)"/>
      <use xlink:href="#DejaVuSans-50" transform="translate(733.900391 0)"/>
      <use xlink:href="#DejaVuSans-61" transform="translate(789.703125 0)"/>
      <use xlink:href="#DejaVuSans-79" transform="translate(850.982422 0)"/>
      <use xlink:href="#DejaVuSans-20" transform="translate(910.162109 0)"/>
      <use xlink:href="#DejaVuSans-54" transform="translate(941.949219 0)"/>
      <use xlink:href="#DejaVuSans-68" transform="translate(1003.033203 0)"/>
      <use xlink:href="#DejaVuSans-72" transform="translate(1066.412109 0)"/>
      <use xlink:href="#DejaVuSans-65" transform="translate(1105.275391 0)"/>
      <use xlink:href="#DejaVuSans-73" transform="translate(1166.798828 0)"/>
      <use xlink:href="#DejaVuSans-68" transform="translate(1218.898438 0)"/>
      <use xlink:href="#DejaVuSans-6f" transform="translate(1282.277344 0)"/>
      <use xlink:href="#DejaVuSans-6c" transform="translate(1343.458984 0)"/>
      <use xlink:href="#DejaVuSans-64" transform="translate(1371.242188 0)"/>
      <use xlink:href="#DejaVuSans-20" transform="translate(1434.71875 0)"/>
      <use xlink:href="#DejaVuSans-28" transform="translate(1466.505859 0)"/>
      <use xlink:href="#DejaVuSans-24" transform="translate(1505.519531 0)"/>
      <use xlink:href="#DejaVuSans-2f" transform="translate(1569.142578 0)"/>
      <use xlink:href="#DejaVuSans-51" transform="translate(1602.833984 0)"/>
      <use xlink:href="#DejaVuSans-41" transform="translate(1681.544922 0)"/>
      <use xlink:href="#DejaVuSans-4c" transform="translate(1749.953125 0)"/>
      <use xlink:href="#DejaVuSans-59" transform="translate(1792.416016 0)"/>
      <use xlink:href="#DejaVuSans-29" transform="translate(1853.5 0)"/>
     </g>
    </g>
   </g>
   <g id="matplotlib.axis_2">
    <g id="ytick_1">
     <g id="line2d_13">
      <path d="M 48.579375 466.324364 
L 647.034375 466.324364 
" clip-path="url(#p68ff80de5d)" style="fill: none; stroke: #cccccc; stroke-opacity: 0.3; stroke-width: 0.8; stroke-linecap: round"/>
     </g>
     <g id="line2d_14"/>
     <g id="text_8">
      <!-- 0.00 -->
      <g style="fill: #262626" transform="translate(22.81375 470.123582) scale(0.1 -0.1)">
       <defs>
        <path id="DejaVuSans-2e" d="M 684 794 
L 1344 794 
L 1344 0 
L 684 0 
L 684 794 
z
" transform="scale(0.015625)"/>
       </defs>
       <use xlink:href="#DejaVuSans-30"/>
       <use xlink:href="#DejaVuSans-2e" transform="translate(63.623047 0)"/>
       <use xlink:href="#DejaVuSans-30" transform="translate(95.410156 0)"/>
       <use xlink:href="#DejaVuSans-30" transform="translate(159.033203 0)"/>
      </g>
     </g>
    </g>
    <g id="ytick_2">
     <g id="line2d_15">
      <path d="M 48.579375 412.398227 
L 647.034375 412.398227 
" clip-path="url(#p68ff80de5d)" style="fill: none; stroke: #cccccc; stroke-opacity: 0.3; stroke-width: 0.8; stroke-linecap: round"/>
     </g>
     <g id="line2d_16"/>
     <g id="text_9">
      <!-- 0.25 -->
      <g style="fill: #262626" transform="translate(22.81375 416.197445) scale(0.1 -0.1)">
       <defs>
        <path id="DejaVuSans-35" d="M 691 4666 
L 3169 4666 
L 3169 4134 
L 1269 4134 
L 1269 2991 
Q 1406 3038 1543 3061 
Q 1681 3084 1819 3084 
Q 2600 3084 3056 2656 
Q 3513 2228 3513 1497 
Q 3513 744 3044 326 
Q 2575 -91 1722 -91 
Q 1428 -91 1123 -41 
Q 819 9 494 109 
L 494 744 
Q 775 591 1075 516 
Q 1375 441 1709 441 
Q 2250 441 2565 725 
Q 2881 1009 2881 1497 
Q 2881 1984 2565 2268 
Q 2250 2553 1709 2553 
Q 1456 2553 1204 2497 
Q 953 2441 691 2322 
L 691 4666 
z
" transform="scale(0.015625)"/>
       </defs>
       <use xlink:href="#DejaVuSans-30"/>
       <use xlink:href="#DejaVuSans-2e" transform="translate(63.623047 0)"/>
       <use xlink:href="#DejaVuSans-32" transform="translate(95.410156 0)"/>
       <use xlink:href="#DejaVuSans-35" transform="translate(159.033203 0)"/>
      </g>
     </g>
    </g>
    <g id="ytick_3">
     <g id="line2d_17">
      <path d="M 48.579375 358.47209 
L 647.034375 358.47209 
" clip-path="url(#p68ff80de5d)" style="fill: none; stroke: #cccccc; stroke-opacity: 0.3; stroke-width: 0.8; stroke-linecap: round"/>
     </g>
     <g id="line2d_18"/>
     <g id="text_10">
      <!-- 0.50 -->
      <g style="fill: #262626" transform="translate(22.81375 362.271309) scale(0.1 -0.1)">
       <use xlink:href="#DejaVuSans-30"/>
       <use xlink:href="#DejaVuSans-2e" transform="translate(63.623047 0)"/>
       <use xlink:href="#DejaVuSans-35" transform="translate(95.410156 0)"/>
       <use xlink:href="#DejaVuSans-30" transform="translate(159.033203 0)"/>
      </g>
     </g>
    </g>
    <g id="ytick_4">
     <g id="line2d_19">
      <path d="M 48.579375 304.545953 
L 647.034375 304.545953 
" clip-path="url(#p68ff80de5d)" style="fill: none; stroke: #cccccc; stroke-opacity: 0.3; stroke-width: 0.8; stroke-linecap: round"/>
     </g>
     <g id="line2d_20"/>
     <g id="text_11">
      <!-- 0.75 -->
      <g style="fill: #262626" transform="translate(22.81375 308.345172) scale(0.1 -0.1)">
       <defs>
        <path id="DejaVuSans-37" d="M 525 4666 
L 3525 4666 
L 3525 4397 
L 1831 0 
L 1172 0 
L 2766 4134 
L 525 4134 
L 525 4666 
z
" transform="scale(0.015625)"/>
       </defs>
       <use xlink:href="#DejaVuSans-30"/>
       <use xlink:href="#DejaVuSans-2e" transform="translate(63.623047 0)"/>
       <use xlink:href="#DejaVuSans-37" transform="translate(95.410156 0)"/>
       <use xlink:href="#DejaVuSans-35" transform="translate(159.033203 0)"/>
      </g>
     </g>
    </g>
    <g id="ytick_5">
     <g id="line2d_21">
      <path d="M 48.579375 250.619816 
L 647.034375 250.619816 
" clip-path="url(#p68ff80de5d)" style="fill: none; stroke: #cccccc; stroke-opacity: 0.3; stroke-width: 0.8; stroke-linecap: round"/>
     </g>
     <g id="line2d_22"/>
     <g id="text_12">
      <!-- 1.00 -->
      <g style="fill: #262626" transform="translate(22.81375 254.419035) scale(0.1 -0.1)">
       <use xlink:href="#DejaVuSans-31"/>
       <use xlink:href="#DejaVuSans-2e" transform="translate(63.623047 0)"/>
       <use xlink:href="#DejaVuSans-30" transform="translate(95.410156 0)"/>
       <use xlink:href="#DejaVuSans-30" transform="translate(159.033203 0)"/>
      </g>
     </g>
    </g>
    <g id="ytick_6">
     <g id="line2d_23">
      <path d="M 48.579375 196.693679 
L 647.034375 196.693679 
" clip-path="url(#p68ff80de5d)" style="fill: none; stroke: #cccccc; stroke-opacity: 0.3; stroke-width: 0.8; stroke-linecap: round"/>
     </g>
     <g id="line2d_24"/>
     <g id="text_13">
      <!-- 1.25 -->
      <g style="fill: #262626" transform="translate(22.81375 200.492898) scale(0.1 -0.1)">
       <use xlink:href="#DejaVuSans-31"/>
       <use xlink:href="#DejaVuSans-2e" transform="translate(63.623047 0)"/>
       <use xlink:href="#DejaVuSans-32" transform="translate(95.410156 0)"/>
       <use xlink:href="#DejaVuSans-35" transform="translate(159.033203 0)"/>
      </g>
     </g>
    </g>
    <g id="ytick_7">
     <g id="line2d_25">
      <path d="M 48.579375 142.767542 
L 647.034375 142.767542 
" clip-path="url(#p68ff80de5d)" style="fill: none; stroke: #cccccc; stroke-opacity: 0.3; stroke-width: 0.8; stroke-linecap: round"/>
     </g>
     <g id="line2d_26"/>
     <g id="text_14">
      <!-- 1.50 -->
      <g style="fill: #262626" transform="translate(22.81375 146.566761) scale(0.1 -0.1)">
       <use xlink:href="#DejaVuSans-31"/>
       <use xlink:href="#DejaVuSans-2e" transform="translate(63.623047 0)"/>
       <use xlink:href="#DejaVuSans-35" transform="translate(95.410156 0)"/>
       <use xlink:href="#DejaVuSans-30" transform="translate(159.033203 0)"/>
      </g>
     </g>
    </g>
    <g id="ytick_8">
     <g id="line2d_27">
      <path d="M 48.579375 88.841405 
L 647.034375 88.841405 
" clip-path="url(#p68ff80de5d)" style="fill: none; stroke: #cccccc; stroke-opacity: 0.3; stroke-width: 0.8; stroke-linecap: round"/>
     </g>
     <g id="line2d_28"/>
     <g id="text_15">
      <!-- 1.75 -->
      <g style="fill: #262626" transform="translate(22.81375 92.640624) scale(0.1 -0.1)">
       <use xlink:href="#DejaVuSans-31"/>
       <use xlink:href="#DejaVuSans-2e" transform="translate(63.623047 0)"/>
       <use xlink:href="#DejaVuSans-37" transform="translate(95.410156 0)"/>
       <use xlink:href="#DejaVuSans-35" transform="translate(159.033203 0)"/>
      </g>
     </g>
    </g>
    <g id="text_16">
     <!-- Expected Value of Perfect Information ($) -->
     <g style="fill: #262626" transform="translate(16.318125 400.803938) rotate(-90) scale(0.12 -0.12)">
      <defs>
       <path id="DejaVuSans-45" d="M 628 4666 
L 3578 4666 
L 3578 4134 
L 1259 4134 
L 1259 2753 
L 3481 2753 
L 3481 2222 
L 1259 2222 
L 1259 531 
L 3634 531 
L 3634 0 
L 628 0 
L 628 4666 
z
" transform="scale(0.015625)"/>
       <path id="DejaVuSans-78" d="M 3513 3500 
L 2247 1797 
L 3578 0 
L 2900 0 
L 1881 1375 
L 863 0 
L 184 0 
L 1544 1831 
L 300 3500 
L 978 3500 
L 1906 2253 
L 2834 3500 
L 3513 3500 
z
" transform="scale(0.015625)"/>
       <path id="DejaVuSans-70" d="M 1159 525 
L 1159 -1331 
L 581 -1331 
L 581 3500 
L 1159 3500 
L 1159 2969 
Q 1341 3281 1617 3432 
Q 1894 3584 2278 3584 
Q 2916 3584 3314 3078 
Q 3713 2572 3713 1747 
Q 3713 922 3314 415 
Q 2916 -91 2278 -91 
Q 1894 -91 1617 61 
Q 1341 213 1159 525 
z
M 3116 1747 
Q 3116 2381 2855 2742 
Q 2594 3103 2138 3103 
Q 1681 3103 1420 2742 
Q 1159 2381 1159 1747 
Q 1159 1113 1420 752 
Q 1681 391 2138 391 
Q 2594 391 2855 752 
Q 3116 1113 3116 1747 
z
" transform="scale(0.015625)"/>
       <path id="DejaVuSans-63" d="M 3122 3366 
L 3122 2828 
Q 2878 2963 2633 3030 
Q 2388 3097 2138 3097 
Q 1578 3097 1268 2742 
Q 959 2388 959 1747 
Q 959 1106 1268 751 
Q 1578 397 2138 397 
Q 2388 397 2633 464 
Q 2878 531 3122 666 
L 3122 134 
Q 2881 22 2623 -34 
Q 2366 -91 2075 -91 
Q 1284 -91 818 406 
Q 353 903 353 1747 
Q 353 2603 823 3093 
Q 1294 3584 2113 3584 
Q 2378 3584 2631 3529 
Q 2884 3475 3122 3366 
z
" transform="scale(0.015625)"/>
       <path id="DejaVuSans-74" d="M 1172 4494 
L 1172 3500 
L 2356 3500 
L 2356 3053 
L 1172 3053 
L 1172 1153 
Q 1172 725 1289 603 
Q 1406 481 1766 481 
L 2356 481 
L 2356 0 
L 1766 0 
Q 1100 0 847 248 
Q 594 497 594 1153 
L 594 3053 
L 172 3053 
L 172 3500 
L 594 3500 
L 594 4494 
L 1172 4494 
z
" transform="scale(0.015625)"/>
       <path id="DejaVuSans-56" d="M 1831 0 
L 50 4666 
L 709 4666 
L 2188 738 
L 3669 4666 
L 4325 4666 
L 2547 0 
L 1831 0 
z
" transform="scale(0.015625)"/>
       <path id="DejaVuSans-75" d="M 544 1381 
L 544 3500 
L 1119 3500 
L 1119 1403 
Q 1119 906 1312 657 
Q 1506 409 1894 409 
Q 2359 409 2629 706 
Q 2900 1003 2900 1516 
L 2900 3500 
L 3475 3500 
L 3475 0 
L 2900 0 
L 2900 538 
Q 2691 219 2414 64 
Q 2138 -91 1772 -91 
Q 1169 -91 856 284 
Q 544 659 544 1381 
z
M 1991 3584 
L 1991 3584 
z
" transform="scale(0.015625)"/>
       <path id="DejaVuSans-66" d="M 2375 4863 
L 2375 4384 
L 1825 4384 
Q 1516 4384 1395 4259 
Q 1275 4134 1275 3809 
L 1275 3500 
L 2222 3500 
L 2222 3053 
L 1275 3053 
L 1275 0 
L 697 0 
L 697 3053 
L 147 3053 
L 147 3500 
L 697 3500 
L 697 3744 
Q 697 4328 969 4595 
Q 1241 4863 1831 4863 
L 2375 4863 
z
" transform="scale(0.015625)"/>
       <path id="DejaVuSans-49" d="M 628 4666 
L 1259 4666 
L 1259 0 
L 628 0 
L 628 4666 
z
" transform="scale(0.015625)"/>
       <path id="DejaVuSans-6d" d="M 3328 2828 
Q 3544 3216 3844 3400 
Q 4144 3584 4550 3584 
Q 5097 3584 5394 3201 
Q 5691 2819 5691 2113 
L 5691 0 
L 5113 0 
L 5113 2094 
Q 5113 2597 4934 2840 
Q 4756 3084 4391 3084 
Q 3944 3084 3684 2787 
Q 3425 2491 3425 1978 
L 3425 0 
L 2847 0 
L 2847 2094 
Q 2847 2600 2669 2842 
Q 2491 3084 2119 3084 
Q 1678 3084 1418 2786 
Q 1159 2488 1159 1978 
L 1159 0 
L 581 0 
L 581 3500 
L 1159 3500 
L 1159 2956 
Q 1356 3278 1631 3431 
Q 1906 3584 2284 3584 
Q 2666 3584 2933 3390 
Q 3200 3197 3328 2828 
z
" transform="scale(0.015625)"/>
      </defs>
      <use xlink:href="#DejaVuSans-45"/>
      <use xlink:href="#DejaVuSans-78" transform="translate(63.183594 0)"/>
      <use xlink:href="#DejaVuSans-70" transform="translate(122.363281 0)"/>
      <use xlink:href="#DejaVuSans-65" transform="translate(185.839844 0)"/>
      <use xlink:href="#DejaVuSans-63" transform="translate(247.363281 0)"/>
      <use xlink:href="#DejaVuSans-74" transform="translate(302.34375 0)"/>
      <use xlink:href="#DejaVuSans-65" transform="translate(341.552734 0)"/>
      <use xlink:href="#DejaVuSans-64" transform="translate(403.076172 0)"/>
      <use xlink:href="#DejaVuSans-20" transform="translate(466.552734 0)"/>
      <use xlink:href="#DejaVuSans-56" transform="translate(498.339844 0)"/>
      <use xlink:href="#DejaVuSans-61" transform="translate(558.998047 0)"/>
      <use xlink:href="#DejaVuSans-6c" transform="translate(620.277344 0)"/>
      <use xlink:href="#DejaVuSans-75" transform="translate(648.060547 0)"/>
      <use xlink:href="#DejaVuSans-65" transform="translate(711.439453 0)"/>
      <use xlink:href="#DejaVuSans-20" transform="translate(772.962891 0)"/>
      <use xlink:href="#DejaVuSans-6f" transform="translate(804.75 0)"/>
      <use xlink:href="#DejaVuSans-66" transform="translate(865.931641 0)"/>
      <use xlink:href="#DejaVuSans-20" transform="translate(901.136719 0)"/>
      <use xlink:href="#DejaVuSans-50" transform="translate(932.923828 0)"/>
      <use xlink:href="#DejaVuSans-65" transform="translate(989.601562 0)"/>
      <use xlink:href="#DejaVuSans-72" transform="translate(1051.125 0)"/>
      <use xlink:href="#DejaVuSans-66" transform="translate(1092.238281 0)"/>
      <use xlink:href="#DejaVuSans-65" transform="translate(1127.443359 0)"/>
      <use xlink:href="#DejaVuSans-63" transform="translate(1188.966797 0)"/>
      <use xlink:href="#DejaVuSans-74" transform="translate(1243.947266 0)"/>
      <use xlink:href="#DejaVuSans-20" transform="translate(1283.15625 0)"/>
      <use xlink:href="#DejaVuSans-49" transform="translate(1314.943359 0)"/>
      <use xlink:href="#DejaVuSans-6e" transform="translate(1344.435547 0)"/>
      <use xlink:href="#DejaVuSans-66" transform="translate(1407.814453 0)"/>
      <use xlink:href="#DejaVuSans-6f" transform="translate(1443.019531 0)"/>
      <use xlink:href="#DejaVuSans-72" transform="translate(1504.201172 0)"/>
      <use xlink:href="#DejaVuSans-6d" transform="translate(1543.564453 0)"/>
      <use xlink:href="#DejaVuSans-61" transform="translate(1640.976562 0)"/>
      <use xlink:href="#DejaVuSans-74" transform="translate(1702.255859 0)"/>
      <use xlink:href="#DejaVuSans-69" transform="translate(1741.464844 0)"/>
      <use xlink:href="#DejaVuSans-6f" transform="translate(1769.248047 0)"/>
      <use xlink:href="#DejaVuSans-6e" transform="translate(1830.429688 0)"/>
      <use xlink:href="#DejaVuSans-20" transform="translate(1893.808594 0)"/>
      <use xlink:href="#DejaVuSans-28" transform="translate(1925.595703 0)"/>
      <use xlink:href="#DejaVuSans-24" transform="translate(1964.609375 0)"/>
      <use xlink:href="#DejaVuSans-29" transform="translate(2028.232422 0)"/>
     </g>
    </g>
    <g id="text_17">
     <!-- 1e7 -->
     <g style="fill: #262626" transform="translate(48.579375 65.256) scale(0.1 -0.1)">
      <use xlink:href="#DejaVuSans-31"/>
      <use xlink:href="#DejaVuSans-65" transform="translate(63.623047 0)"/>
      <use xlink:href="#DejaVuSans-37" transform="translate(125.146484 0)"/>
     </g>
    </g>
   </g>
   <g id="line2d_29">
    <path d="M 75.781875 466.324364 
L 102.984375 466.324364 
L 130.186875 466.324364 
L 157.389375 466.324364 
L 184.591875 466.324364 
L 211.794375 466.324364 
L 238.996875 466.324364 
L 266.199375 466.324364 
L 293.401875 466.324364 
L 320.604375 466.324364 
L 347.806875 466.324364 
L 375.009375 466.324364 
L 402.211875 466.324364 
L 429.414375 466.324364 
L 456.616875 466.324364 
L 483.819375 466.324364 
L 511.021875 466.324364 
L 538.224375 466.324364 
L 565.426875 466.324364 
L 592.629375 466.324364 
L 619.831875 466.324364 
" clip-path="url(#p68ff80de5d)" style="fill: none; stroke: #1f77b4; stroke-opacity: 0.8; stroke-width: 2; stroke-linecap: round"/>
   </g>
   <g id="line2d_30">
    <path d="M 75.781875 466.324364 
L 102.984375 465.120477 
L 130.186875 436.204485 
L 157.389375 357.862291 
L 184.591875 239.250068 
L 211.794375 220.553558 
L 238.996875 234.800206 
L 266.199375 241.236771 
L 293.401875 243.338222 
L 320.604375 242.670256 
L 347.806875 239.705077 
L 375.009375 235.672703 
L 402.211875 231.048388 
L 429.414375 225.77006 
L 456.616875 219.745047 
L 483.819375 213.397315 
L 511.021875 206.896643 
L 538.224375 200.008986 
L 565.426875 192.885595 
L 592.629375 185.598425 
L 619.831875 178.041754 
" clip-path="url(#p68ff80de5d)" style="fill: none; stroke: #ff7f0e; stroke-opacity: 0.8; stroke-width: 2; stroke-linecap: round"/>
   </g>
   <g id="line2d_31">
    <path d="M 75.781875 466.324364 
L 102.984375 466.324364 
L 130.186875 466.324364 
L 157.389375 466.324364 
L 184.591875 466.324364 
L 211.794375 466.324364 
L 238.996875 466.324364 
L 266.199375 466.324364 
L 293.401875 466.324364 
L 320.604375 466.324364 
L 347.806875 466.324364 
L 375.009375 466.324364 
L 402.211875 466.324364 
L 429.414375 466.324364 
L 456.616875 466.324364 
L 483.819375 466.324364 
L 511.021875 466.324364 
L 538.224375 466.324364 
L 565.426875 466.324364 
L 592.629375 466.324364 
L 619.831875 466.324364 
" clip-path="url(#p68ff80de5d)" style="fill: none; stroke: #2ca02c; stroke-opacity: 0.8; stroke-width: 2; stroke-linecap: round"/>
   </g>
   <g id="line2d_32">
    <path d="M 75.781875 466.324364 
L 102.984375 466.324364 
L 130.186875 466.324364 
L 157.389375 466.324364 
L 184.591875 466.324364 
L 211.794375 466.324364 
L 238.996875 466.324364 
L 266.199375 466.324364 
L 293.401875 466.324364 
L 320.604375 466.324364 
L 347.806875 466.324364 
L 375.009375 466.324364 
L 402.211875 466.324364 
L 429.414375 466.324364 
L 456.616875 466.324364 
L 483.819375 466.324364 
L 511.021875 466.324364 
L 538.224375 466.324364 
L 565.426875 466.324364 
L 592.629375 466.324364 
L 619.831875 466.324364 
" clip-path="url(#p68ff80de5d)" style="fill: none; stroke: #d62728; stroke-opacity: 0.8; stroke-width: 2; stroke-linecap: round"/>
   </g>
   <g id="line2d_33">
    <path d="M 75.781875 466.324364 
L 102.984375 466.324364 
L 130.186875 466.146106 
L 157.389375 455.425105 
L 184.591875 413.833475 
L 211.794375 334.28792 
L 238.996875 221.947662 
L 266.199375 90.219219 
L 293.401875 87.211636 
L 320.604375 105.634067 
L 347.806875 117.87582 
L 375.009375 126.824814 
L 402.211875 133.290397 
L 429.414375 137.069792 
L 456.616875 138.982265 
L 483.819375 139.415058 
L 511.021875 138.625288 
L 538.224375 136.911114 
L 565.426875 134.754158 
L 592.629375 132.407089 
L 619.831875 129.697356 
" clip-path="url(#p68ff80de5d)" style="fill: none; stroke: #9467bd; stroke-opacity: 0.8; stroke-width: 2; stroke-linecap: round"/>
   </g>
   <g id="patch_3">
    <path d="M 48.579375 485.28 
L 48.579375 68.256 
" style="fill: none; stroke: #cccccc; stroke-linejoin: miter; stroke-linecap: square"/>
   </g>
   <g id="patch_4">
    <path d="M 647.034375 485.28 
L 647.034375 68.256 
" style="fill: none; stroke: #cccccc; stroke-linejoin: miter; stroke-linecap: square"/>
   </g>
   <g id="patch_5">
    <path d="M 48.579375 485.28 
L 647.034375 485.28 
" style="fill: none; stroke: #cccccc; stroke-linejoin: miter; stroke-linecap: square"/>
   </g>
   <g id="patch_6">
    <path d="M 48.579375 68.256 
L 647.034375 68.256 
" style="fill: none; stroke: #cccccc; stroke-linejoin: miter; stroke-linecap: square"/>
   </g>
   <g id="text_18">
    <!-- Health System Perspective -->
    <g style="fill: #262626" transform="translate(253.730156 62.256) scale(0.14 -0.14)">
     <defs>
      <path id="DejaVuSans-48" d="M 628 4666 
L 1259 4666 
L 1259 2753 
L 3553 2753 
L 3553 4666 
L 4184 4666 
L 4184 0 
L 3553 0 
L 3553 2222 
L 1259 2222 
L 1259 0 
L 628 0 
L 628 4666 
z
" transform="scale(0.015625)"/>
      <path id="DejaVuSans-53" d="M 3425 4513 
L 3425 3897 
Q 3066 4069 2747 4153 
Q 2428 4238 2131 4238 
Q 1616 4238 1336 4038 
Q 1056 3838 1056 3469 
Q 1056 3159 1242 3001 
Q 1428 2844 1947 2747 
L 2328 2669 
Q 3034 2534 3370 2195 
Q 3706 1856 3706 1288 
Q 3706 609 3251 259 
Q 2797 -91 1919 -91 
Q 1588 -91 1214 -16 
Q 841 59 441 206 
L 441 856 
Q 825 641 1194 531 
Q 1563 422 1919 422 
Q 2459 422 2753 634 
Q 3047 847 3047 1241 
Q 3047 1584 2836 1778 
Q 2625 1972 2144 2069 
L 1759 2144 
Q 1053 2284 737 2584 
Q 422 2884 422 3419 
Q 422 4038 858 4394 
Q 1294 4750 2059 4750 
Q 2388 4750 2728 4690 
Q 3069 4631 3425 4513 
z
" transform="scale(0.015625)"/>
      <path id="DejaVuSans-76" d="M 191 3500 
L 800 3500 
L 1894 563 
L 2988 3500 
L 3597 3500 
L 2284 0 
L 1503 0 
L 191 3500 
z
" transform="scale(0.015625)"/>
     </defs>
     <use xlink:href="#DejaVuSans-48"/>
     <use xlink:href="#DejaVuSans-65" transform="translate(75.195312 0)"/>
     <use xlink:href="#DejaVuSans-61" transform="translate(136.71875 0)"/>
     <use xlink:href="#DejaVuSans-6c" transform="translate(197.998047 0)"/>
     <use xlink:href="#DejaVuSans-74" transform="translate(225.78125 0)"/>
     <use xlink:href="#DejaVuSans-68" transform="translate(264.990234 0)"/>
     <use xlink:href="#DejaVuSans-20" transform="translate(328.369141 0)"/>
     <use xlink:href="#DejaVuSans-53" transform="translate(360.15625 0)"/>
     <use xlink:href="#DejaVuSans-79" transform="translate(423.632812 0)"/>
     <use xlink:href="#DejaVuSans-73" transform="translate(482.8125 0)"/>
     <use xlink:href="#DejaVuSans-74" transform="translate(534.912109 0)"/>
     <use xlink:href="#DejaVuSans-65" transform="translate(574.121094 0)"/>
     <use xlink:href="#DejaVuSans-6d" transform="translate(635.644531 0)"/>
     <use xlink:href="#DejaVuSans-20" transform="translate(733.056641 0)"/>
     <use xlink:href="#DejaVuSans-50" transform="translate(764.84375 0)"/>
     <use xlink:href="#DejaVuSans-65" transform="translate(821.521484 0)"/>
     <use xlink:href="#DejaVuSans-72" transform="translate(883.044922 0)"/>
     <use xlink:href="#DejaVuSans-73" transform="translate(924.158203 0)"/>
     <use xlink:href="#DejaVuSans-70" transform="translate(976.257812 0)"/>
     <use xlink:href="#DejaVuSans-65" transform="translate(1039.734375 0)"/>
     <use xlink:href="#DejaVuSans-63" transform="translate(1101.257812 0)"/>
     <use xlink:href="#DejaVuSans-74" transform="translate(1156.238281 0)"/>
     <use xlink:href="#DejaVuSans-69" transform="translate(1195.447266 0)"/>
     <use xlink:href="#DejaVuSans-76" transform="translate(1223.230469 0)"/>
     <use xlink:href="#DejaVuSans-65" transform="translate(1282.410156 0)"/>
    </g>
   </g>
  </g>
  <g id="axes_2">
   <g id="patch_7">
    <path d="M 683.244375 485.28 
L 1281.699375 485.28 
L 1281.699375 68.256 
L 683.244375 68.256 
z
" style="fill: #ffffff"/>
   </g>
   <g id="matplotlib.axis_3">
    <g id="xtick_7">
     <g id="line2d_34">
      <path d="M 710.446875 485.28 
L 710.446875 68.256 
" clip-path="url(#pdd1c6d4488)" style="fill: none; stroke: #cccccc; stroke-opacity: 0.3; stroke-width: 0.8; stroke-linecap: round"/>
     </g>
     <g id="line2d_35"/>
     <g id="text_19">
      <!-- 0 -->
      <g style="fill: #262626" transform="translate(707.265625 496.378437) scale(0.1 -0.1)">
       <use xlink:href="#DejaVuSans-30"/>
      </g>
     </g>
    </g>
    <g id="xtick_8">
     <g id="line2d_36">
      <path d="M 819.256875 485.28 
L 819.256875 68.256 
" clip-path="url(#pdd1c6d4488)" style="fill: none; stroke: #cccccc; stroke-opacity: 0.3; stroke-width: 0.8; stroke-linecap: round"/>
     </g>
     <g id="line2d_37"/>
     <g id="text_20">
      <!-- 20000 -->
      <g style="fill: #262626" transform="translate(803.350625 496.378437) scale(0.1 -0.1)">
       <use xlink:href="#DejaVuSans-32"/>
       <use xlink:href="#DejaVuSans-30" transform="translate(63.623047 0)"/>
       <use xlink:href="#DejaVuSans-30" transform="translate(127.246094 0)"/>
       <use xlink:href="#DejaVuSans-30" transform="translate(190.869141 0)"/>
       <use xlink:href="#DejaVuSans-30" transform="translate(254.492188 0)"/>
      </g>
     </g>
    </g>
    <g id="xtick_9">
     <g id="line2d_38">
      <path d="M 928.066875 485.28 
L 928.066875 68.256 
" clip-path="url(#pdd1c6d4488)" style="fill: none; stroke: #cccccc; stroke-opacity: 0.3; stroke-width: 0.8; stroke-linecap: round"/>
     </g>
     <g id="line2d_39"/>
     <g id="text_21">
      <!-- 40000 -->
      <g style="fill: #262626" transform="translate(912.160625 496.378437) scale(0.1 -0.1)">
       <use xlink:href="#DejaVuSans-34"/>
       <use xlink:href="#DejaVuSans-30" transform="translate(63.623047 0)"/>
       <use xlink:href="#DejaVuSans-30" transform="translate(127.246094 0)"/>
       <use xlink:href="#DejaVuSans-30" transform="translate(190.869141 0)"/>
       <use xlink:href="#DejaVuSans-30" transform="translate(254.492188 0)"/>
      </g>
     </g>
    </g>
    <g id="xtick_10">
     <g id="line2d_40">
      <path d="M 1036.876875 485.28 
L 1036.876875 68.256 
" clip-path="url(#pdd1c6d4488)" style="fill: none; stroke: #cccccc; stroke-opacity: 0.3; stroke-width: 0.8; stroke-linecap: round"/>
     </g>
     <g id="line2d_41"/>
     <g id="text_22">
      <!-- 60000 -->
      <g style="fill: #262626" transform="translate(1020.970625 496.378437) scale(0.1 -0.1)">
       <use xlink:href="#DejaVuSans-36"/>
       <use xlink:href="#DejaVuSans-30" transform="translate(63.623047 0)"/>
       <use xlink:href="#DejaVuSans-30" transform="translate(127.246094 0)"/>
       <use xlink:href="#DejaVuSans-30" transform="translate(190.869141 0)"/>
       <use xlink:href="#DejaVuSans-30" transform="translate(254.492188 0)"/>
      </g>
     </g>
    </g>
    <g id="xtick_11">
     <g id="line2d_42">
      <path d="M 1145.686875 485.28 
L 1145.686875 68.256 
" clip-path="url(#pdd1c6d4488)" style="fill: none; stroke: #cccccc; stroke-opacity: 0.3; stroke-width: 0.8; stroke-linecap: round"/>
     </g>
     <g id="line2d_43"/>
     <g id="text_23">
      <!-- 80000 -->
      <g style="fill: #262626" transform="translate(1129.780625 496.378437) scale(0.1 -0.1)">
       <use xlink:href="#DejaVuSans-38"/>
       <use xlink:href="#DejaVuSans-30" transform="translate(63.623047 0)"/>
       <use xlink:href="#DejaVuSans-30" transform="translate(127.246094 0)"/>
       <use xlink:href="#DejaVuSans-30" transform="translate(190.869141 0)"/>
       <use xlink:href="#DejaVuSans-30" transform="translate(254.492188 0)"/>
      </g>
     </g>
    </g>
    <g id="xtick_12">
     <g id="line2d_44">
      <path d="M 1254.496875 485.28 
L 1254.496875 68.256 
" clip-path="url(#pdd1c6d4488)" style="fill: none; stroke: #cccccc; stroke-opacity: 0.3; stroke-width: 0.8; stroke-linecap: round"/>
     </g>
     <g id="line2d_45"/>
     <g id="text_24">
      <!-- 100000 -->
      <g style="fill: #262626" transform="translate(1235.409375 496.378437) scale(0.1 -0.1)">
       <use xlink:href="#DejaVuSans-31"/>
       <use xlink:href="#DejaVuSans-30" transform="translate(63.623047 0)"/>
       <use xlink:href="#DejaVuSans-30" transform="translate(127.246094 0)"/>
       <use xlink:href="#DejaVuSans-30" transform="translate(190.869141 0)"/>
       <use xlink:href="#DejaVuSans-30" transform="translate(254.492188 0)"/>
       <use xlink:href="#DejaVuSans-30" transform="translate(318.115234 0)"/>
      </g>
     </g>
    </g>
    <g id="text_25">
     <!-- Willingness-To-Pay Threshold ($/QALY) -->
     <g style="fill: #262626" transform="translate(868.922813 511.57625) scale(0.12 -0.12)">
      <use xlink:href="#DejaVuSans-57"/>
      <use xlink:href="#DejaVuSans-69" transform="translate(96.626953 0)"/>
      <use xlink:href="#DejaVuSans-6c" transform="translate(124.410156 0)"/>
      <use xlink:href="#DejaVuSans-6c" transform="translate(152.193359 0)"/>
      <use xlink:href="#DejaVuSans-69" transform="translate(179.976562 0)"/>
      <use xlink:href="#DejaVuSans-6e" transform="translate(207.759766 0)"/>
      <use xlink:href="#DejaVuSans-67" transform="translate(271.138672 0)"/>
      <use xlink:href="#DejaVuSans-6e" transform="translate(334.615234 0)"/>
      <use xlink:href="#DejaVuSans-65" transform="translate(397.994141 0)"/>
      <use xlink:href="#DejaVuSans-73" transform="translate(459.517578 0)"/>
      <use xlink:href="#DejaVuSans-73" transform="translate(511.617188 0)"/>
      <use xlink:href="#DejaVuSans-2d" transform="translate(563.716797 0)"/>
      <use xlink:href="#DejaVuSans-54" transform="translate(590.675781 0)"/>
      <use xlink:href="#DejaVuSans-6f" transform="translate(634.759766 0)"/>
      <use xlink:href="#DejaVuSans-2d" transform="translate(697.816406 0)"/>
      <use xlink:href="#DejaVuSans-50" transform="translate(733.900391 0)"/>
      <use xlink:href="#DejaVuSans-61" transform="translate(789.703125 0)"/>
      <use xlink:href="#DejaVuSans-79" transform="translate(850.982422 0)"/>
      <use xlink:href="#DejaVuSans-20" transform="translate(910.162109 0)"/>
      <use xlink:href="#DejaVuSans-54" transform="translate(941.949219 0)"/>
      <use xlink:href="#DejaVuSans-68" transform="translate(1003.033203 0)"/>
      <use xlink:href="#DejaVuSans-72" transform="translate(1066.412109 0)"/>
      <use xlink:href="#DejaVuSans-65" transform="translate(1105.275391 0)"/>
      <use xlink:href="#DejaVuSans-73" transform="translate(1166.798828 0)"/>
      <use xlink:href="#DejaVuSans-68" transform="translate(1218.898438 0)"/>
      <use xlink:href="#DejaVuSans-6f" transform="translate(1282.277344 0)"/>
      <use xlink:href="#DejaVuSans-6c" transform="translate(1343.458984 0)"/>
      <use xlink:href="#DejaVuSans-64" transform="translate(1371.242188 0)"/>
      <use xlink:href="#DejaVuSans-20" transform="translate(1434.71875 0)"/>
      <use xlink:href="#DejaVuSans-28" transform="translate(1466.505859 0)"/>
      <use xlink:href="#DejaVuSans-24" transform="translate(1505.519531 0)"/>
      <use xlink:href="#DejaVuSans-2f" transform="translate(1569.142578 0)"/>
      <use xlink:href="#DejaVuSans-51" transform="translate(1602.833984 0)"/>
      <use xlink:href="#DejaVuSans-41" transform="translate(1681.544922 0)"/>
      <use xlink:href="#DejaVuSans-4c" transform="translate(1749.953125 0)"/>
      <use xlink:href="#DejaVuSans-59" transform="translate(1792.416016 0)"/>
      <use xlink:href="#DejaVuSans-29" transform="translate(1853.5 0)"/>
     </g>
    </g>
   </g>
   <g id="matplotlib.axis_4">
    <g id="ytick_9">
     <g id="line2d_46">
      <path d="M 683.244375 466.324364 
L 1281.699375 466.324364 
" clip-path="url(#pdd1c6d4488)" style="fill: none; stroke: #cccccc; stroke-opacity: 0.3; stroke-width: 0.8; stroke-linecap: round"/>
     </g>
     <g id="line2d_47"/>
     <g id="text_26">
      <!-- 0 -->
      <g style="fill: #262626" transform="translate(673.381875 470.123582) scale(0.1 -0.1)">
       <use xlink:href="#DejaVuSans-30"/>
      </g>
     </g>
    </g>
    <g id="ytick_10">
     <g id="line2d_48">
      <path d="M 683.244375 394.394812 
L 1281.699375 394.394812 
" clip-path="url(#pdd1c6d4488)" style="fill: none; stroke: #cccccc; stroke-opacity: 0.3; stroke-width: 0.8; stroke-linecap: round"/>
     </g>
     <g id="line2d_49"/>
     <g id="text_27">
      <!-- 1 -->
      <g style="fill: #262626" transform="translate(673.381875 398.194031) scale(0.1 -0.1)">
       <use xlink:href="#DejaVuSans-31"/>
      </g>
     </g>
    </g>
    <g id="ytick_11">
     <g id="line2d_50">
      <path d="M 683.244375 322.465261 
L 1281.699375 322.465261 
" clip-path="url(#pdd1c6d4488)" style="fill: none; stroke: #cccccc; stroke-opacity: 0.3; stroke-width: 0.8; stroke-linecap: round"/>
     </g>
     <g id="line2d_51"/>
     <g id="text_28">
      <!-- 2 -->
      <g style="fill: #262626" transform="translate(673.381875 326.26448) scale(0.1 -0.1)">
       <use xlink:href="#DejaVuSans-32"/>
      </g>
     </g>
    </g>
    <g id="ytick_12">
     <g id="line2d_52">
      <path d="M 683.244375 250.53571 
L 1281.699375 250.53571 
" clip-path="url(#pdd1c6d4488)" style="fill: none; stroke: #cccccc; stroke-opacity: 0.3; stroke-width: 0.8; stroke-linecap: round"/>
     </g>
     <g id="line2d_53"/>
     <g id="text_29">
      <!-- 3 -->
      <g style="fill: #262626" transform="translate(673.381875 254.334929) scale(0.1 -0.1)">
       <defs>
        <path id="DejaVuSans-33" d="M 2597 2516 
Q 3050 2419 3304 2112 
Q 3559 1806 3559 1356 
Q 3559 666 3084 287 
Q 2609 -91 1734 -91 
Q 1441 -91 1130 -33 
Q 819 25 488 141 
L 488 750 
Q 750 597 1062 519 
Q 1375 441 1716 441 
Q 2309 441 2620 675 
Q 2931 909 2931 1356 
Q 2931 1769 2642 2001 
Q 2353 2234 1838 2234 
L 1294 2234 
L 1294 2753 
L 1863 2753 
Q 2328 2753 2575 2939 
Q 2822 3125 2822 3475 
Q 2822 3834 2567 4026 
Q 2313 4219 1838 4219 
Q 1578 4219 1281 4162 
Q 984 4106 628 3988 
L 628 4550 
Q 988 4650 1302 4700 
Q 1616 4750 1894 4750 
Q 2613 4750 3031 4423 
Q 3450 4097 3450 3541 
Q 3450 3153 3228 2886 
Q 3006 2619 2597 2516 
z
" transform="scale(0.015625)"/>
       </defs>
       <use xlink:href="#DejaVuSans-33"/>
      </g>
     </g>
    </g>
    <g id="ytick_13">
     <g id="line2d_54">
      <path d="M 683.244375 178.606159 
L 1281.699375 178.606159 
" clip-path="url(#pdd1c6d4488)" style="fill: none; stroke: #cccccc; stroke-opacity: 0.3; stroke-width: 0.8; stroke-linecap: round"/>
     </g>
     <g id="line2d_55"/>
     <g id="text_30">
      <!-- 4 -->
      <g style="fill: #262626" transform="translate(673.381875 182.405378) scale(0.1 -0.1)">
       <use xlink:href="#DejaVuSans-34"/>
      </g>
     </g>
    </g>
    <g id="ytick_14">
     <g id="line2d_56">
      <path d="M 683.244375 106.676608 
L 1281.699375 106.676608 
" clip-path="url(#pdd1c6d4488)" style="fill: none; stroke: #cccccc; stroke-opacity: 0.3; stroke-width: 0.8; stroke-linecap: round"/>
     </g>
     <g id="line2d_57"/>
     <g id="text_31">
      <!-- 5 -->
      <g style="fill: #262626" transform="translate(673.381875 110.475827) scale(0.1 -0.1)">
       <use xlink:href="#DejaVuSans-35"/>
      </g>
     </g>
    </g>
    <g id="text_32">
     <!-- Expected Value of Perfect Information ($) -->
     <g style="fill: #262626" transform="translate(666.88625 400.803938) rotate(-90) scale(0.12 -0.12)">
      <use xlink:href="#DejaVuSans-45"/>
      <use xlink:href="#DejaVuSans-78" transform="translate(63.183594 0)"/>
      <use xlink:href="#DejaVuSans-70" transform="translate(122.363281 0)"/>
      <use xlink:href="#DejaVuSans-65" transform="translate(185.839844 0)"/>
      <use xlink:href="#DejaVuSans-63" transform="translate(247.363281 0)"/>
      <use xlink:href="#DejaVuSans-74" transform="translate(302.34375 0)"/>
      <use xlink:href="#DejaVuSans-65" transform="translate(341.552734 0)"/>
      <use xlink:href="#DejaVuSans-64" transform="translate(403.076172 0)"/>
      <use xlink:href="#DejaVuSans-20" transform="translate(466.552734 0)"/>
      <use xlink:href="#DejaVuSans-56" transform="translate(498.339844 0)"/>
      <use xlink:href="#DejaVuSans-61" transform="translate(558.998047 0)"/>
      <use xlink:href="#DejaVuSans-6c" transform="translate(620.277344 0)"/>
      <use xlink:href="#DejaVuSans-75" transform="translate(648.060547 0)"/>
      <use xlink:href="#DejaVuSans-65" transform="translate(711.439453 0)"/>
      <use xlink:href="#DejaVuSans-20" transform="translate(772.962891 0)"/>
      <use xlink:href="#DejaVuSans-6f" transform="translate(804.75 0)"/>
      <use xlink:href="#DejaVuSans-66" transform="translate(865.931641 0)"/>
      <use xlink:href="#DejaVuSans-20" transform="translate(901.136719 0)"/>
      <use xlink:href="#DejaVuSans-50" transform="translate(932.923828 0)"/>
      <use xlink:href="#DejaVuSans-65" transform="translate(989.601562 0)"/>
      <use xlink:href="#DejaVuSans-72" transform="translate(1051.125 0)"/>
      <use xlink:href="#DejaVuSans-66" transform="translate(1092.238281 0)"/>
      <use xlink:href="#DejaVuSans-65" transform="translate(1127.443359 0)"/>
      <use xlink:href="#DejaVuSans-63" transform="translate(1188.966797 0)"/>
      <use xlink:href="#DejaVuSans-74" transform="translate(1243.947266 0)"/>
      <use xlink:href="#DejaVuSans-20" transform="translate(1283.15625 0)"/>
      <use xlink:href="#DejaVuSans-49" transform="translate(1314.943359 0)"/>
      <use xlink:href="#DejaVuSans-6e" transform="translate(1344.435547 0)"/>
      <use xlink:href="#DejaVuSans-66" transform="translate(1407.814453 0)"/>
      <use xlink:href="#DejaVuSans-6f" transform="translate(1443.019531 0)"/>
      <use xlink:href="#DejaVuSans-72" transform="translate(1504.201172 0)"/>
      <use xlink:href="#DejaVuSans-6d" transform="translate(1543.564453 0)"/>
      <use xlink:href="#DejaVuSans-61" transform="translate(1640.976562 0)"/>
      <use xlink:href="#DejaVuSans-74" transform="translate(1702.255859 0)"/>
      <use xlink:href="#DejaVuSans-69" transform="translate(1741.464844 0)"/>
      <use xlink:href="#DejaVuSans-6f" transform="translate(1769.248047 0)"/>
      <use xlink:href="#DejaVuSans-6e" transform="translate(1830.429688 0)"/>
      <use xlink:href="#DejaVuSans-20" transform="translate(1893.808594 0)"/>
      <use xlink:href="#DejaVuSans-28" transform="translate(1925.595703 0)"/>
      <use xlink:href="#DejaVuSans-24" transform="translate(1964.609375 0)"/>
      <use xlink:href="#DejaVuSans-29" transform="translate(2028.232422 0)"/>
     </g>
    </g>
    <g id="text_33">
     <!-- 1e6 -->
     <g style="fill: #262626" transform="translate(683.244375 65.256) scale(0.1 -0.1)">
      <use xlink:href="#DejaVuSans-31"/>
      <use xlink:href="#DejaVuSans-65" transform="translate(63.623047 0)"/>
      <use xlink:href="#DejaVuSans-36" transform="translate(125.146484 0)"/>
     </g>
    </g>
   </g>
   <g id="line2d_58">
    <path d="M 710.446875 466.324364 
L 737.649375 466.324364 
L 764.851875 466.324364 
L 792.054375 466.324364 
L 819.256875 466.324364 
L 846.459375 466.324364 
L 873.661875 466.324364 
L 900.864375 466.324364 
L 928.066875 466.324364 
L 955.269375 466.324364 
L 982.471875 466.324364 
L 1009.674375 466.324364 
L 1036.876875 466.324364 
L 1064.079375 466.324364 
L 1091.281875 466.324364 
L 1118.484375 466.324364 
L 1145.686875 466.324364 
L 1172.889375 466.324364 
L 1200.091875 466.324364 
L 1227.294375 466.324364 
L 1254.496875 466.324364 
" clip-path="url(#pdd1c6d4488)" style="fill: none; stroke: #1f77b4; stroke-opacity: 0.8; stroke-width: 2; stroke-linecap: round"/>
   </g>
   <g id="line2d_59">
    <path d="M 710.446875 466.324364 
L 737.649375 466.324364 
L 764.851875 466.324364 
L 792.054375 466.324364 
L 819.256875 466.324364 
L 846.459375 466.324364 
L 873.661875 466.324364 
L 900.864375 466.324364 
L 928.066875 466.324364 
L 955.269375 466.324364 
L 982.471875 466.324364 
L 1009.674375 466.324364 
L 1036.876875 466.324364 
L 1064.079375 466.324364 
L 1091.281875 466.324364 
L 1118.484375 466.324364 
L 1145.686875 466.324364 
L 1172.889375 466.324364 
L 1200.091875 466.324364 
L 1227.294375 466.324364 
L 1254.496875 466.324364 
" clip-path="url(#pdd1c6d4488)" style="fill: none; stroke: #ff7f0e; stroke-opacity: 0.8; stroke-width: 2; stroke-linecap: round"/>
   </g>
   <g id="line2d_60">
    <path d="M 710.446875 466.324364 
L 737.649375 466.324364 
L 764.851875 466.324364 
L 792.054375 466.324364 
L 819.256875 466.324364 
L 846.459375 466.324364 
L 873.661875 466.324364 
L 900.864375 466.324364 
L 928.066875 466.324364 
L 955.269375 466.324364 
L 982.471875 466.324364 
L 1009.674375 466.324364 
L 1036.876875 466.324364 
L 1064.079375 466.324364 
L 1091.281875 466.324364 
L 1118.484375 466.324364 
L 1145.686875 466.324364 
L 1172.889375 466.324364 
L 1200.091875 466.324364 
L 1227.294375 466.324364 
L 1254.496875 466.324364 
" clip-path="url(#pdd1c6d4488)" style="fill: none; stroke: #2ca02c; stroke-opacity: 0.8; stroke-width: 2; stroke-linecap: round"/>
   </g>
   <g id="line2d_61">
    <path d="M 710.446875 466.324364 
L 737.649375 466.324364 
L 764.851875 466.324364 
L 792.054375 466.324364 
L 819.256875 466.324364 
L 846.459375 466.324364 
L 873.661875 466.324364 
L 900.864375 466.324364 
L 928.066875 466.324364 
L 955.269375 466.324364 
L 982.471875 466.324364 
L 1009.674375 466.324364 
L 1036.876875 466.324364 
L 1064.079375 466.324364 
L 1091.281875 466.324364 
L 1118.484375 466.324364 
L 1145.686875 466.324364 
L 1172.889375 466.324364 
L 1200.091875 466.324364 
L 1227.294375 466.324364 
L 1254.496875 466.324364 
" clip-path="url(#pdd1c6d4488)" style="fill: none; stroke: #d62728; stroke-opacity: 0.8; stroke-width: 2; stroke-linecap: round"/>
   </g>
   <g id="line2d_62">
    <path d="M 710.446875 443.533997 
L 737.649375 457.651142 
L 764.851875 452.503213 
L 792.054375 442.17611 
L 819.256875 428.118763 
L 846.459375 413.119355 
L 873.661875 396.587094 
L 900.864375 377.608441 
L 928.066875 356.918042 
L 955.269375 335.349377 
L 982.471875 313.493456 
L 1009.674375 291.270973 
L 1036.876875 268.947681 
L 1064.079375 246.62439 
L 1091.281875 224.301098 
L 1118.484375 201.531371 
L 1145.686875 178.748888 
L 1172.889375 155.966406 
L 1200.091875 133.102581 
L 1227.294375 110.180733 
L 1254.496875 87.211636 
" clip-path="url(#pdd1c6d4488)" style="fill: none; stroke: #9467bd; stroke-opacity: 0.8; stroke-width: 2; stroke-linecap: round"/>
   </g>
   <g id="patch_8">
    <path d="M 683.244375 485.28 
L 683.244375 68.256 
" style="fill: none; stroke: #cccccc; stroke-linejoin: miter; stroke-linecap: square"/>
   </g>
   <g id="patch_9">
    <path d="M 1281.699375 485.28 
L 1281.699375 68.256 
" style="fill: none; stroke: #cccccc; stroke-linejoin: miter; stroke-linecap: square"/>
   </g>
   <g id="patch_10">
    <path d="M 683.244375 485.28 
L 1281.699375 485.28 
" style="fill: none; stroke: #cccccc; stroke-linejoin: miter; stroke-linecap: square"/>
   </g>
   <g id="patch_11">
    <path d="M 683.244375 68.256 
L 1281.699375 68.256 
" style="fill: none; stroke: #cccccc; stroke-linejoin: miter; stroke-linecap: square"/>
   </g>
   <g id="text_34">
    <!-- Societal Perspective -->
    <g style="fill: #262626" transform="translate(911.903125 62.256) scale(0.14 -0.14)">
     <use xlink:href="#DejaVuSans-53"/>
     <use xlink:href="#DejaVuSans-6f" transform="translate(63.476562 0)"/>
     <use xlink:href="#DejaVuSans-63" transform="translate(124.658203 0)"/>
     <use xlink:href="#DejaVuSans-69" transform="translate(179.638672 0)"/>
     <use xlink:href="#DejaVuSans-65" transform="translate(207.421875 0)"/>
     <use xlink:href="#DejaVuSans-74" transform="translate(268.945312 0)"/>
     <use xlink:href="#DejaVuSans-61" transform="translate(308.154297 0)"/>
     <use xlink:href="#DejaVuSans-6c" transform="translate(369.433594 0)"/>
     <use xlink:href="#DejaVuSans-20" transform="translate(397.216797 0)"/>
     <use xlink:href="#DejaVuSans-50" transform="translate(429.003906 0)"/>
     <use xlink:href="#DejaVuSans-65" transform="translate(485.681641 0)"/>
     <use xlink:href="#DejaVuSans-72" transform="translate(547.205078 0)"/>
     <use xlink:href="#DejaVuSans-73" transform="translate(588.318359 0)"/>
     <use xlink:href="#DejaVuSans-70" transform="translate(640.417969 0)"/>
     <use xlink:href="#DejaVuSans-65" transform="translate(703.894531 0)"/>
     <use xlink:href="#DejaVuSans-63" transform="translate(765.417969 0)"/>
     <use xlink:href="#DejaVuSans-74" transform="translate(820.398438 0)"/>
     <use xlink:href="#DejaVuSans-69" transform="translate(859.607422 0)"/>
     <use xlink:href="#DejaVuSans-76" transform="translate(887.390625 0)"/>
     <use xlink:href="#DejaVuSans-65" transform="translate(946.570312 0)"/>
    </g>
   </g>
  </g>
  <g id="text_35">
   <!-- Expected Value of Perfect Information: Perspective Comparison -->
   <g style="fill: #262626" transform="translate(356.744375 19.3575) scale(0.16 -0.16)">
    <defs>
     <path id="DejaVuSans-Bold-45" d="M 588 4666 
L 3834 4666 
L 3834 3756 
L 1791 3756 
L 1791 2888 
L 3713 2888 
L 3713 1978 
L 1791 1978 
L 1791 909 
L 3903 909 
L 3903 0 
L 588 0 
L 588 4666 
z
" transform="scale(0.015625)"/>
     <path id="DejaVuSans-Bold-78" d="M 1422 1791 
L 159 3500 
L 1344 3500 
L 2059 2463 
L 2784 3500 
L 3969 3500 
L 2706 1797 
L 4031 0 
L 2847 0 
L 2059 1106 
L 1281 0 
L 97 0 
L 1422 1791 
z
" transform="scale(0.015625)"/>
     <path id="DejaVuSans-Bold-70" d="M 1656 506 
L 1656 -1331 
L 538 -1331 
L 538 3500 
L 1656 3500 
L 1656 2988 
Q 1888 3294 2169 3439 
Q 2450 3584 2816 3584 
Q 3463 3584 3878 3070 
Q 4294 2556 4294 1747 
Q 4294 938 3878 423 
Q 3463 -91 2816 -91 
Q 2450 -91 2169 54 
Q 1888 200 1656 506 
z
M 2400 2772 
Q 2041 2772 1848 2508 
Q 1656 2244 1656 1747 
Q 1656 1250 1848 986 
Q 2041 722 2400 722 
Q 2759 722 2948 984 
Q 3138 1247 3138 1747 
Q 3138 2247 2948 2509 
Q 2759 2772 2400 2772 
z
" transform="scale(0.015625)"/>
     <path id="DejaVuSans-Bold-65" d="M 4031 1759 
L 4031 1441 
L 1416 1441 
Q 1456 1047 1700 850 
Q 1944 653 2381 653 
Q 2734 653 3104 758 
Q 3475 863 3866 1075 
L 3866 213 
Q 3469 63 3072 -14 
Q 2675 -91 2278 -91 
Q 1328 -91 801 392 
Q 275 875 275 1747 
Q 275 2603 792 3093 
Q 1309 3584 2216 3584 
Q 3041 3584 3536 3087 
Q 4031 2591 4031 1759 
z
M 2881 2131 
Q 2881 2450 2695 2645 
Q 2509 2841 2209 2841 
Q 1884 2841 1681 2658 
Q 1478 2475 1428 2131 
L 2881 2131 
z
" transform="scale(0.015625)"/>
     <path id="DejaVuSans-Bold-63" d="M 3366 3391 
L 3366 2478 
Q 3138 2634 2908 2709 
Q 2678 2784 2431 2784 
Q 1963 2784 1702 2511 
Q 1441 2238 1441 1747 
Q 1441 1256 1702 982 
Q 1963 709 2431 709 
Q 2694 709 2930 787 
Q 3166 866 3366 1019 
L 3366 103 
Q 3103 6 2833 -42 
Q 2563 -91 2291 -91 
Q 1344 -91 809 395 
Q 275 881 275 1747 
Q 275 2613 809 3098 
Q 1344 3584 2291 3584 
Q 2566 3584 2833 3536 
Q 3100 3488 3366 3391 
z
" transform="scale(0.015625)"/>
     <path id="DejaVuSans-Bold-74" d="M 1759 4494 
L 1759 3500 
L 2913 3500 
L 2913 2700 
L 1759 2700 
L 1759 1216 
Q 1759 972 1856 886 
Q 1953 800 2241 800 
L 2816 800 
L 2816 0 
L 1856 0 
Q 1194 0 917 276 
Q 641 553 641 1216 
L 641 2700 
L 84 2700 
L 84 3500 
L 641 3500 
L 641 4494 
L 1759 4494 
z
" transform="scale(0.015625)"/>
     <path id="DejaVuSans-Bold-64" d="M 2919 2988 
L 2919 4863 
L 4044 4863 
L 4044 0 
L 2919 0 
L 2919 506 
Q 2688 197 2409 53 
Q 2131 -91 1766 -91 
Q 1119 -91 703 423 
Q 288 938 288 1747 
Q 288 2556 703 3070 
Q 1119 3584 1766 3584 
Q 2128 3584 2408 3439 
Q 2688 3294 2919 2988 
z
M 2181 722 
Q 2541 722 2730 984 
Q 2919 1247 2919 1747 
Q 2919 2247 2730 2509 
Q 2541 2772 2181 2772 
Q 1825 2772 1636 2509 
Q 1447 2247 1447 1747 
Q 1447 1247 1636 984 
Q 1825 722 2181 722 
z
" transform="scale(0.015625)"/>
     <path id="DejaVuSans-Bold-20" transform="scale(0.015625)"/>
     <path id="DejaVuSans-Bold-56" d="M 31 4666 
L 1241 4666 
L 2478 1222 
L 3713 4666 
L 4922 4666 
L 3194 0 
L 1759 0 
L 31 4666 
z
" transform="scale(0.015625)"/>
     <path id="DejaVuSans-Bold-61" d="M 2106 1575 
Q 1756 1575 1579 1456 
Q 1403 1338 1403 1106 
Q 1403 894 1545 773 
Q 1688 653 1941 653 
Q 2256 653 2472 879 
Q 2688 1106 2688 1447 
L 2688 1575 
L 2106 1575 
z
M 3816 1997 
L 3816 0 
L 2688 0 
L 2688 519 
Q 2463 200 2181 54 
Q 1900 -91 1497 -91 
Q 953 -91 614 226 
Q 275 544 275 1050 
Q 275 1666 698 1953 
Q 1122 2241 2028 2241 
L 2688 2241 
L 2688 2328 
Q 2688 2594 2478 2717 
Q 2269 2841 1825 2841 
Q 1466 2841 1156 2769 
Q 847 2697 581 2553 
L 581 3406 
Q 941 3494 1303 3539 
Q 1666 3584 2028 3584 
Q 2975 3584 3395 3211 
Q 3816 2838 3816 1997 
z
" transform="scale(0.015625)"/>
     <path id="DejaVuSans-Bold-6c" d="M 538 4863 
L 1656 4863 
L 1656 0 
L 538 0 
L 538 4863 
z
" transform="scale(0.015625)"/>
     <path id="DejaVuSans-Bold-75" d="M 500 1363 
L 500 3500 
L 1625 3500 
L 1625 3150 
Q 1625 2866 1622 2436 
Q 1619 2006 1619 1863 
Q 1619 1441 1641 1255 
Q 1663 1069 1716 984 
Q 1784 875 1895 815 
Q 2006 756 2150 756 
Q 2500 756 2700 1025 
Q 2900 1294 2900 1772 
L 2900 3500 
L 4019 3500 
L 4019 0 
L 2900 0 
L 2900 506 
Q 2647 200 2364 54 
Q 2081 -91 1741 -91 
Q 1134 -91 817 281 
Q 500 653 500 1363 
z
" transform="scale(0.015625)"/>
     <path id="DejaVuSans-Bold-6f" d="M 2203 2784 
Q 1831 2784 1636 2517 
Q 1441 2250 1441 1747 
Q 1441 1244 1636 976 
Q 1831 709 2203 709 
Q 2569 709 2762 976 
Q 2956 1244 2956 1747 
Q 2956 2250 2762 2517 
Q 2569 2784 2203 2784 
z
M 2203 3584 
Q 3106 3584 3614 3096 
Q 4122 2609 4122 1747 
Q 4122 884 3614 396 
Q 3106 -91 2203 -91 
Q 1297 -91 786 396 
Q 275 884 275 1747 
Q 275 2609 786 3096 
Q 1297 3584 2203 3584 
z
" transform="scale(0.015625)"/>
     <path id="DejaVuSans-Bold-66" d="M 2841 4863 
L 2841 4128 
L 2222 4128 
Q 1984 4128 1890 4042 
Q 1797 3956 1797 3744 
L 1797 3500 
L 2753 3500 
L 2753 2700 
L 1797 2700 
L 1797 0 
L 678 0 
L 678 2700 
L 122 2700 
L 122 3500 
L 678 3500 
L 678 3744 
Q 678 4316 997 4589 
Q 1316 4863 1984 4863 
L 2841 4863 
z
" transform="scale(0.015625)"/>
     <path id="DejaVuSans-Bold-50" d="M 588 4666 
L 2584 4666 
Q 3475 4666 3951 4270 
Q 4428 3875 4428 3144 
Q 4428 2409 3951 2014 
Q 3475 1619 2584 1619 
L 1791 1619 
L 1791 0 
L 588 0 
L 588 4666 
z
M 1791 3794 
L 1791 2491 
L 2456 2491 
Q 2806 2491 2997 2661 
Q 3188 2831 3188 3144 
Q 3188 3456 2997 3625 
Q 2806 3794 2456 3794 
L 1791 3794 
z
" transform="scale(0.015625)"/>
     <path id="DejaVuSans-Bold-72" d="M 3138 2547 
Q 2991 2616 2845 2648 
Q 2700 2681 2553 2681 
Q 2122 2681 1889 2404 
Q 1656 2128 1656 1613 
L 1656 0 
L 538 0 
L 538 3500 
L 1656 3500 
L 1656 2925 
Q 1872 3269 2151 3426 
Q 2431 3584 2822 3584 
Q 2878 3584 2943 3579 
Q 3009 3575 3134 3559 
L 3138 2547 
z
" transform="scale(0.015625)"/>
     <path id="DejaVuSans-Bold-49" d="M 588 4666 
L 1791 4666 
L 1791 0 
L 588 0 
L 588 4666 
z
" transform="scale(0.015625)"/>
     <path id="DejaVuSans-Bold-6e" d="M 4056 2131 
L 4056 0 
L 2931 0 
L 2931 347 
L 2931 1631 
Q 2931 2084 2911 2256 
Q 2891 2428 2841 2509 
Q 2775 2619 2662 2680 
Q 2550 2741 2406 2741 
Q 2056 2741 1856 2470 
Q 1656 2200 1656 1722 
L 1656 0 
L 538 0 
L 538 3500 
L 1656 3500 
L 1656 2988 
Q 1909 3294 2193 3439 
Q 2478 3584 2822 3584 
Q 3428 3584 3742 3212 
Q 4056 2841 4056 2131 
z
" transform="scale(0.015625)"/>
     <path id="DejaVuSans-Bold-6d" d="M 3781 2919 
Q 3994 3244 4286 3414 
Q 4578 3584 4928 3584 
Q 5531 3584 5847 3212 
Q 6163 2841 6163 2131 
L 6163 0 
L 5038 0 
L 5038 1825 
Q 5041 1866 5042 1909 
Q 5044 1953 5044 2034 
Q 5044 2406 4934 2573 
Q 4825 2741 4581 2741 
Q 4263 2741 4089 2478 
Q 3916 2216 3909 1719 
L 3909 0 
L 2784 0 
L 2784 1825 
Q 2784 2406 2684 2573 
Q 2584 2741 2328 2741 
Q 2006 2741 1831 2477 
Q 1656 2213 1656 1722 
L 1656 0 
L 531 0 
L 531 3500 
L 1656 3500 
L 1656 2988 
Q 1863 3284 2130 3434 
Q 2397 3584 2719 3584 
Q 3081 3584 3359 3409 
Q 3638 3234 3781 2919 
z
" transform="scale(0.015625)"/>
     <path id="DejaVuSans-Bold-69" d="M 538 3500 
L 1656 3500 
L 1656 0 
L 538 0 
L 538 3500 
z
M 538 4863 
L 1656 4863 
L 1656 3950 
L 538 3950 
L 538 4863 
z
" transform="scale(0.015625)"/>
     <path id="DejaVuSans-Bold-3a" d="M 716 3500 
L 1844 3500 
L 1844 2291 
L 716 2291 
L 716 3500 
z
M 716 1209 
L 1844 1209 
L 1844 0 
L 716 0 
L 716 1209 
z
" transform="scale(0.015625)"/>
     <path id="DejaVuSans-Bold-73" d="M 3272 3391 
L 3272 2541 
Q 2913 2691 2578 2766 
Q 2244 2841 1947 2841 
Q 1628 2841 1473 2761 
Q 1319 2681 1319 2516 
Q 1319 2381 1436 2309 
Q 1553 2238 1856 2203 
L 2053 2175 
Q 2913 2066 3209 1816 
Q 3506 1566 3506 1031 
Q 3506 472 3093 190 
Q 2681 -91 1863 -91 
Q 1516 -91 1145 -36 
Q 775 19 384 128 
L 384 978 
Q 719 816 1070 734 
Q 1422 653 1784 653 
Q 2113 653 2278 743 
Q 2444 834 2444 1013 
Q 2444 1163 2330 1236 
Q 2216 1309 1875 1350 
L 1678 1375 
Q 931 1469 631 1722 
Q 331 1975 331 2491 
Q 331 3047 712 3315 
Q 1094 3584 1881 3584 
Q 2191 3584 2531 3537 
Q 2872 3491 3272 3391 
z
" transform="scale(0.015625)"/>
     <path id="DejaVuSans-Bold-76" d="M 97 3500 
L 1216 3500 
L 2088 1081 
L 2956 3500 
L 4078 3500 
L 2700 0 
L 1472 0 
L 97 3500 
z
" transform="scale(0.015625)"/>
     <path id="DejaVuSans-Bold-43" d="M 4288 256 
Q 3956 84 3597 -3 
Q 3238 -91 2847 -91 
Q 1681 -91 1000 561 
Q 319 1213 319 2328 
Q 319 3447 1000 4098 
Q 1681 4750 2847 4750 
Q 3238 4750 3597 4662 
Q 3956 4575 4288 4403 
L 4288 3438 
Q 3953 3666 3628 3772 
Q 3303 3878 2944 3878 
Q 2300 3878 1931 3465 
Q 1563 3053 1563 2328 
Q 1563 1606 1931 1193 
Q 2300 781 2944 781 
Q 3303 781 3628 887 
Q 3953 994 4288 1222 
L 4288 256 
z
" transform="scale(0.015625)"/>
    </defs>
    <use xlink:href="#DejaVuSans-Bold-45"/>
    <use xlink:href="#DejaVuSans-Bold-78" transform="translate(68.310547 0)"/>
    <use xlink:href="#DejaVuSans-Bold-70" transform="translate(132.8125 0)"/>
    <use xlink:href="#DejaVuSans-Bold-65" transform="translate(204.394531 0)"/>
    <use xlink:href="#DejaVuSans-Bold-63" transform="translate(272.216797 0)"/>
    <use xlink:href="#DejaVuSans-Bold-74" transform="translate(331.494141 0)"/>
    <use xlink:href="#DejaVuSans-Bold-65" transform="translate(379.296875 0)"/>
    <use xlink:href="#DejaVuSans-Bold-64" transform="translate(447.119141 0)"/>
    <use xlink:href="#DejaVuSans-Bold-20" transform="translate(518.701172 0)"/>
    <use xlink:href="#DejaVuSans-Bold-56" transform="translate(553.515625 0)"/>
    <use xlink:href="#DejaVuSans-Bold-61" transform="translate(625.408203 0)"/>
    <use xlink:href="#DejaVuSans-Bold-6c" transform="translate(692.888672 0)"/>
    <use xlink:href="#DejaVuSans-Bold-75" transform="translate(727.166016 0)"/>
    <use xlink:href="#DejaVuSans-Bold-65" transform="translate(798.357422 0)"/>
    <use xlink:href="#DejaVuSans-Bold-20" transform="translate(866.179688 0)"/>
    <use xlink:href="#DejaVuSans-Bold-6f" transform="translate(900.994141 0)"/>
    <use xlink:href="#DejaVuSans-Bold-66" transform="translate(969.695312 0)"/>
    <use xlink:href="#DejaVuSans-Bold-20" transform="translate(1013.201172 0)"/>
    <use xlink:href="#DejaVuSans-Bold-50" transform="translate(1048.015625 0)"/>
    <use xlink:href="#DejaVuSans-Bold-65" transform="translate(1121.306641 0)"/>
    <use xlink:href="#DejaVuSans-Bold-72" transform="translate(1189.128906 0)"/>
    <use xlink:href="#DejaVuSans-Bold-66" transform="translate(1238.445312 0)"/>
    <use xlink:href="#DejaVuSans-Bold-65" transform="translate(1281.951172 0)"/>
    <use xlink:href="#DejaVuSans-Bold-63" transform="translate(1349.773438 0)"/>
    <use xlink:href="#DejaVuSans-Bold-74" transform="translate(1409.050781 0)"/>
    <use xlink:href="#DejaVuSans-Bold-20" transform="translate(1456.853516 0)"/>
    <use xlink:href="#DejaVuSans-Bold-49" transform="translate(1491.667969 0)"/>
    <use xlink:href="#DejaVuSans-Bold-6e" transform="translate(1528.875 0)"/>
    <use xlink:href="#DejaVuSans-Bold-66" transform="translate(1600.066406 0)"/>
    <use xlink:href="#DejaVuSans-Bold-6f" transform="translate(1643.572266 0)"/>
    <use xlink:href="#DejaVuSans-Bold-72" transform="translate(1712.273438 0)"/>
    <use xlink:href="#DejaVuSans-Bold-6d" transform="translate(1761.589844 0)"/>
    <use xlink:href="#DejaVuSans-Bold-61" transform="translate(1865.789062 0)"/>
    <use xlink:href="#DejaVuSans-Bold-74" transform="translate(1933.269531 0)"/>
    <use xlink:href="#DejaVuSans-Bold-69" transform="translate(1981.072266 0)"/>
    <use xlink:href="#DejaVuSans-Bold-6f" transform="translate(2015.349609 0)"/>
    <use xlink:href="#DejaVuSans-Bold-6e" transform="translate(2084.050781 0)"/>
    <use xlink:href="#DejaVuSans-Bold-3a" transform="translate(2155.242188 0)"/>
    <use xlink:href="#DejaVuSans-Bold-20" transform="translate(2195.232422 0)"/>
    <use xlink:href="#DejaVuSans-Bold-50" transform="translate(2230.046875 0)"/>
    <use xlink:href="#DejaVuSans-Bold-65" transform="translate(2303.337891 0)"/>
    <use xlink:href="#DejaVuSans-Bold-72" transform="translate(2371.160156 0)"/>
    <use xlink:href="#DejaVuSans-Bold-73" transform="translate(2420.476562 0)"/>
    <use xlink:href="#DejaVuSans-Bold-70" transform="translate(2479.998047 0)"/>
    <use xlink:href="#DejaVuSans-Bold-65" transform="translate(2551.580078 0)"/>
    <use xlink:href="#DejaVuSans-Bold-63" transform="translate(2619.402344 0)"/>
    <use xlink:href="#DejaVuSans-Bold-74" transform="translate(2678.679688 0)"/>
    <use xlink:href="#DejaVuSans-Bold-69" transform="translate(2726.482422 0)"/>
    <use xlink:href="#DejaVuSans-Bold-76" transform="translate(2760.759766 0)"/>
    <use xlink:href="#DejaVuSans-Bold-65" transform="translate(2825.945312 0)"/>
    <use xlink:href="#DejaVuSans-Bold-20" transform="translate(2893.767578 0)"/>
    <use xlink:href="#DejaVuSans-Bold-43" transform="translate(2928.582031 0)"/>
    <use xlink:href="#DejaVuSans-Bold-6f" transform="translate(3001.970703 0)"/>
    <use xlink:href="#DejaVuSans-Bold-6d" transform="translate(3070.671875 0)"/>
    <use xlink:href="#DejaVuSans-Bold-70" transform="translate(3174.871094 0)"/>
    <use xlink:href="#DejaVuSans-Bold-61" transform="translate(3246.453125 0)"/>
    <use xlink:href="#DejaVuSans-Bold-72" transform="translate(3313.933594 0)"/>
    <use xlink:href="#DejaVuSans-Bold-69" transform="translate(3363.25 0)"/>
    <use xlink:href="#DejaVuSans-Bold-73" transform="translate(3397.527344 0)"/>
    <use xlink:href="#DejaVuSans-Bold-6f" transform="translate(3457.048828 0)"/>
    <use xlink:href="#DejaVuSans-Bold-6e" transform="translate(3525.75 0)"/>
   </g>
   <!-- (2024 NZD equivalent) -->
   <g style="fill: #262626" transform="translate(542.323125 37.274) scale(0.16 -0.16)">
    <defs>
     <path id="DejaVuSans-Bold-28" d="M 2413 -844 
L 1484 -844 
Q 1006 -72 778 623 
Q 550 1319 550 2003 
Q 550 2688 779 3389 
Q 1009 4091 1484 4856 
L 2413 4856 
Q 2013 4116 1813 3408 
Q 1613 2700 1613 2009 
Q 1613 1319 1811 609 
Q 2009 -100 2413 -844 
z
" transform="scale(0.015625)"/>
     <path id="DejaVuSans-Bold-32" d="M 1844 884 
L 3897 884 
L 3897 0 
L 506 0 
L 506 884 
L 2209 2388 
Q 2438 2594 2547 2791 
Q 2656 2988 2656 3200 
Q 2656 3528 2436 3728 
Q 2216 3928 1850 3928 
Q 1569 3928 1234 3808 
Q 900 3688 519 3450 
L 519 4475 
Q 925 4609 1322 4679 
Q 1719 4750 2100 4750 
Q 2938 4750 3402 4381 
Q 3866 4013 3866 3353 
Q 3866 2972 3669 2642 
Q 3472 2313 2841 1759 
L 1844 884 
z
" transform="scale(0.015625)"/>
     <path id="DejaVuSans-Bold-30" d="M 2944 2338 
Q 2944 3213 2780 3570 
Q 2616 3928 2228 3928 
Q 1841 3928 1675 3570 
Q 1509 3213 1509 2338 
Q 1509 1453 1675 1090 
Q 1841 728 2228 728 
Q 2613 728 2778 1090 
Q 2944 1453 2944 2338 
z
M 4147 2328 
Q 4147 1169 3647 539 
Q 3147 -91 2228 -91 
Q 1306 -91 806 539 
Q 306 1169 306 2328 
Q 306 3491 806 4120 
Q 1306 4750 2228 4750 
Q 3147 4750 3647 4120 
Q 4147 3491 4147 2328 
z
" transform="scale(0.015625)"/>
     <path id="DejaVuSans-Bold-34" d="M 2356 3675 
L 1038 1722 
L 2356 1722 
L 2356 3675 
z
M 2156 4666 
L 3494 4666 
L 3494 1722 
L 4159 1722 
L 4159 850 
L 3494 850 
L 3494 0 
L 2356 0 
L 2356 850 
L 288 850 
L 288 1881 
L 2156 4666 
z
" transform="scale(0.015625)"/>
     <path id="DejaVuSans-Bold-4e" d="M 588 4666 
L 1931 4666 
L 3628 1466 
L 3628 4666 
L 4769 4666 
L 4769 0 
L 3425 0 
L 1728 3200 
L 1728 0 
L 588 0 
L 588 4666 
z
" transform="scale(0.015625)"/>
     <path id="DejaVuSans-Bold-5a" d="M 359 4666 
L 4281 4666 
L 4281 3938 
L 1778 909 
L 4353 909 
L 4353 0 
L 288 0 
L 288 728 
L 2791 3756 
L 359 3756 
L 359 4666 
z
" transform="scale(0.015625)"/>
     <path id="DejaVuSans-Bold-44" d="M 1791 3756 
L 1791 909 
L 2222 909 
Q 2959 909 3348 1275 
Q 3738 1641 3738 2338 
Q 3738 3031 3350 3393 
Q 2963 3756 2222 3756 
L 1791 3756 
z
M 588 4666 
L 1856 4666 
Q 2919 4666 3439 4514 
Q 3959 4363 4331 4000 
Q 4659 3684 4818 3271 
Q 4978 2859 4978 2338 
Q 4978 1809 4818 1395 
Q 4659 981 4331 666 
Q 3956 303 3431 151 
Q 2906 0 1856 0 
L 588 0 
L 588 4666 
z
" transform="scale(0.015625)"/>
     <path id="DejaVuSans-Bold-71" d="M 2181 2772 
Q 1825 2772 1636 2509 
Q 1447 2247 1447 1747 
Q 1447 1247 1636 984 
Q 1825 722 2181 722 
Q 2541 722 2730 984 
Q 2919 1247 2919 1747 
Q 2919 2247 2730 2509 
Q 2541 2772 2181 2772 
z
M 2919 506 
Q 2688 197 2409 53 
Q 2131 -91 1766 -91 
Q 1119 -91 703 423 
Q 288 938 288 1747 
Q 288 2556 703 3067 
Q 1119 3578 1766 3578 
Q 2131 3578 2409 3434 
Q 2688 3291 2919 2981 
L 2919 3500 
L 4044 3500 
L 4044 -1331 
L 2919 -1331 
L 2919 506 
z
" transform="scale(0.015625)"/>
     <path id="DejaVuSans-Bold-29" d="M 513 -844 
Q 913 -100 1113 609 
Q 1313 1319 1313 2009 
Q 1313 2700 1113 3408 
Q 913 4116 513 4856 
L 1441 4856 
Q 1916 4091 2145 3389 
Q 2375 2688 2375 2003 
Q 2375 1319 2147 623 
Q 1919 -72 1441 -844 
L 513 -844 
z
" transform="scale(0.015625)"/>
    </defs>
    <use xlink:href="#DejaVuSans-Bold-28"/>
    <use xlink:href="#DejaVuSans-Bold-32" transform="translate(45.703125 0)"/>
    <use xlink:href="#DejaVuSans-Bold-30" transform="translate(115.283203 0)"/>
    <use xlink:href="#DejaVuSans-Bold-32" transform="translate(184.863281 0)"/>
    <use xlink:href="#DejaVuSans-Bold-34" transform="translate(254.443359 0)"/>
    <use xlink:href="#DejaVuSans-Bold-20" transform="translate(324.023438 0)"/>
    <use xlink:href="#DejaVuSans-Bold-4e" transform="translate(358.837891 0)"/>
    <use xlink:href="#DejaVuSans-Bold-5a" transform="translate(442.529297 0)"/>
    <use xlink:href="#DejaVuSans-Bold-44" transform="translate(515.039062 0)"/>
    <use xlink:href="#DejaVuSans-Bold-20" transform="translate(598.046875 0)"/>
    <use xlink:href="#DejaVuSans-Bold-65" transform="translate(632.861328 0)"/>
    <use xlink:href="#DejaVuSans-Bold-71" transform="translate(700.683594 0)"/>
    <use xlink:href="#DejaVuSans-Bold-75" transform="translate(772.265625 0)"/>
    <use xlink:href="#DejaVuSans-Bold-69" transform="translate(843.457031 0)"/>
    <use xlink:href="#DejaVuSans-Bold-76" transform="translate(877.734375 0)"/>
    <use xlink:href="#DejaVuSans-Bold-61" transform="translate(942.919922 0)"/>
    <use xlink:href="#DejaVuSans-Bold-6c" transform="translate(1010.400391 0)"/>
    <use xlink:href="#DejaVuSans-Bold-65" transform="translate(1044.677734 0)"/>
    <use xlink:href="#DejaVuSans-Bold-6e" transform="translate(1112.5 0)"/>
    <use xlink:href="#DejaVuSans-Bold-74" transform="translate(1183.691406 0)"/>
    <use xlink:href="#DejaVuSans-Bold-29" transform="translate(1231.494141 0)"/>
   </g>
  </g>
  <g id="legend_1">
   <g id="line2d_63">
    <path d="M 368.280938 565.370625 
L 380.280938 565.370625 
L 392.280938 565.370625 
" style="fill: none; stroke: #1f77b4; stroke-opacity: 0.8; stroke-width: 2; stroke-linecap: round"/>
   </g>
   <g id="text_36">
    <!-- HPV Vaccination -->
    <g style="fill: #262626" transform="translate(401.880938 569.570625) scale(0.12 -0.12)">
     <use xlink:href="#DejaVuSans-48"/>
     <use xlink:href="#DejaVuSans-50" transform="translate(75.195312 0)"/>
     <use xlink:href="#DejaVuSans-56" transform="translate(135.498047 0)"/>
     <use xlink:href="#DejaVuSans-20" transform="translate(203.90625 0)"/>
     <use xlink:href="#DejaVuSans-56" transform="translate(235.693359 0)"/>
     <use xlink:href="#DejaVuSans-61" transform="translate(296.351562 0)"/>
     <use xlink:href="#DejaVuSans-63" transform="translate(357.630859 0)"/>
     <use xlink:href="#DejaVuSans-63" transform="translate(412.611328 0)"/>
     <use xlink:href="#DejaVuSans-69" transform="translate(467.591797 0)"/>
     <use xlink:href="#DejaVuSans-6e" transform="translate(495.375 0)"/>
     <use xlink:href="#DejaVuSans-61" transform="translate(558.753906 0)"/>
     <use xlink:href="#DejaVuSans-74" transform="translate(620.033203 0)"/>
     <use xlink:href="#DejaVuSans-69" transform="translate(659.242188 0)"/>
     <use xlink:href="#DejaVuSans-6f" transform="translate(687.025391 0)"/>
     <use xlink:href="#DejaVuSans-6e" transform="translate(748.207031 0)"/>
    </g>
   </g>
   <g id="line2d_64">
    <path d="M 368.280938 582.984375 
L 380.280938 582.984375 
L 392.280938 582.984375 
" style="fill: none; stroke: #ff7f0e; stroke-opacity: 0.8; stroke-width: 2; stroke-linecap: round"/>
   </g>
   <g id="text_37">
    <!-- Smoking Cessation -->
    <g style="fill: #262626" transform="translate(401.880938 587.184375) scale(0.12 -0.12)">
     <defs>
      <path id="DejaVuSans-6b" d="M 581 4863 
L 1159 4863 
L 1159 1991 
L 2875 3500 
L 3609 3500 
L 1753 1863 
L 3688 0 
L 2938 0 
L 1159 1709 
L 1159 0 
L 581 0 
L 581 4863 
z
" transform="scale(0.015625)"/>
      <path id="DejaVuSans-43" d="M 4122 4306 
L 4122 3641 
Q 3803 3938 3442 4084 
Q 3081 4231 2675 4231 
Q 1875 4231 1450 3742 
Q 1025 3253 1025 2328 
Q 1025 1406 1450 917 
Q 1875 428 2675 428 
Q 3081 428 3442 575 
Q 3803 722 4122 1019 
L 4122 359 
Q 3791 134 3420 21 
Q 3050 -91 2638 -91 
Q 1578 -91 968 557 
Q 359 1206 359 2328 
Q 359 3453 968 4101 
Q 1578 4750 2638 4750 
Q 3056 4750 3426 4639 
Q 3797 4528 4122 4306 
z
" transform="scale(0.015625)"/>
     </defs>
     <use xlink:href="#DejaVuSans-53"/>
     <use xlink:href="#DejaVuSans-6d" transform="translate(63.476562 0)"/>
     <use xlink:href="#DejaVuSans-6f" transform="translate(160.888672 0)"/>
     <use xlink:href="#DejaVuSans-6b" transform="translate(222.070312 0)"/>
     <use xlink:href="#DejaVuSans-69" transform="translate(279.980469 0)"/>
     <use xlink:href="#DejaVuSans-6e" transform="translate(307.763672 0)"/>
     <use xlink:href="#DejaVuSans-67" transform="translate(371.142578 0)"/>
     <use xlink:href="#DejaVuSans-20" transform="translate(434.619141 0)"/>
     <use xlink:href="#DejaVuSans-43" transform="translate(466.40625 0)"/>
     <use xlink:href="#DejaVuSans-65" transform="translate(536.230469 0)"/>
     <use xlink:href="#DejaVuSans-73" transform="translate(597.753906 0)"/>
     <use xlink:href="#DejaVuSans-73" transform="translate(649.853516 0)"/>
     <use xlink:href="#DejaVuSans-61" transform="translate(701.953125 0)"/>
     <use xlink:href="#DejaVuSans-74" transform="translate(763.232422 0)"/>
     <use xlink:href="#DejaVuSans-69" transform="translate(802.441406 0)"/>
     <use xlink:href="#DejaVuSans-6f" transform="translate(830.224609 0)"/>
     <use xlink:href="#DejaVuSans-6e" transform="translate(891.40625 0)"/>
    </g>
   </g>
   <g id="line2d_65">
    <path d="M 540.454688 565.370625 
L 552.454688 565.370625 
L 564.454688 565.370625 
" style="fill: none; stroke: #2ca02c; stroke-opacity: 0.8; stroke-width: 2; stroke-linecap: round"/>
   </g>
   <g id="text_38">
    <!-- Hepatitis C Therapy -->
    <g style="fill: #262626" transform="translate(574.054688 569.570625) scale(0.12 -0.12)">
     <use xlink:href="#DejaVuSans-48"/>
     <use xlink:href="#DejaVuSans-65" transform="translate(75.195312 0)"/>
     <use xlink:href="#DejaVuSans-70" transform="translate(136.71875 0)"/>
     <use xlink:href="#DejaVuSans-61" transform="translate(200.195312 0)"/>
     <use xlink:href="#DejaVuSans-74" transform="translate(261.474609 0)"/>
     <use xlink:href="#DejaVuSans-69" transform="translate(300.683594 0)"/>
     <use xlink:href="#DejaVuSans-74" transform="translate(328.466797 0)"/>
     <use xlink:href="#DejaVuSans-69" transform="translate(367.675781 0)"/>
     <use xlink:href="#DejaVuSans-73" transform="translate(395.458984 0)"/>
     <use xlink:href="#DejaVuSans-20" transform="translate(447.558594 0)"/>
     <use xlink:href="#DejaVuSans-43" transform="translate(479.345703 0)"/>
     <use xlink:href="#DejaVuSans-20" transform="translate(549.169922 0)"/>
     <use xlink:href="#DejaVuSans-54" transform="translate(580.957031 0)"/>
     <use xlink:href="#DejaVuSans-68" transform="translate(642.041016 0)"/>
     <use xlink:href="#DejaVuSans-65" transform="translate(705.419922 0)"/>
     <use xlink:href="#DejaVuSans-72" transform="translate(766.943359 0)"/>
     <use xlink:href="#DejaVuSans-61" transform="translate(808.056641 0)"/>
     <use xlink:href="#DejaVuSans-70" transform="translate(869.335938 0)"/>
     <use xlink:href="#DejaVuSans-79" transform="translate(932.8125 0)"/>
    </g>
   </g>
   <g id="line2d_66">
    <path d="M 540.454688 582.984375 
L 552.454688 582.984375 
L 564.454688 582.984375 
" style="fill: none; stroke: #d62728; stroke-opacity: 0.8; stroke-width: 2; stroke-linecap: round"/>
   </g>
   <g id="text_39">
    <!-- Childhood Obesity Prevention -->
    <g style="fill: #262626" transform="translate(574.054688 587.184375) scale(0.12 -0.12)">
     <defs>
      <path id="DejaVuSans-4f" d="M 2522 4238 
Q 1834 4238 1429 3725 
Q 1025 3213 1025 2328 
Q 1025 1447 1429 934 
Q 1834 422 2522 422 
Q 3209 422 3611 934 
Q 4013 1447 4013 2328 
Q 4013 3213 3611 3725 
Q 3209 4238 2522 4238 
z
M 2522 4750 
Q 3503 4750 4090 4092 
Q 4678 3434 4678 2328 
Q 4678 1225 4090 567 
Q 3503 -91 2522 -91 
Q 1538 -91 948 565 
Q 359 1222 359 2328 
Q 359 3434 948 4092 
Q 1538 4750 2522 4750 
z
" transform="scale(0.015625)"/>
      <path id="DejaVuSans-62" d="M 3116 1747 
Q 3116 2381 2855 2742 
Q 2594 3103 2138 3103 
Q 1681 3103 1420 2742 
Q 1159 2381 1159 1747 
Q 1159 1113 1420 752 
Q 1681 391 2138 391 
Q 2594 391 2855 752 
Q 3116 1113 3116 1747 
z
M 1159 2969 
Q 1341 3281 1617 3432 
Q 1894 3584 2278 3584 
Q 2916 3584 3314 3078 
Q 3713 2572 3713 1747 
Q 3713 922 3314 415 
Q 2916 -91 2278 -91 
Q 1894 -91 1617 61 
Q 1341 213 1159 525 
L 1159 0 
L 581 0 
L 581 4863 
L 1159 4863 
L 1159 2969 
z
" transform="scale(0.015625)"/>
     </defs>
     <use xlink:href="#DejaVuSans-43"/>
     <use xlink:href="#DejaVuSans-68" transform="translate(69.824219 0)"/>
     <use xlink:href="#DejaVuSans-69" transform="translate(133.203125 0)"/>
     <use xlink:href="#DejaVuSans-6c" transform="translate(160.986328 0)"/>
     <use xlink:href="#DejaVuSans-64" transform="translate(188.769531 0)"/>
     <use xlink:href="#DejaVuSans-68" transform="translate(252.246094 0)"/>
     <use xlink:href="#DejaVuSans-6f" transform="translate(315.625 0)"/>
     <use xlink:href="#DejaVuSans-6f" transform="translate(376.806641 0)"/>
     <use xlink:href="#DejaVuSans-64" transform="translate(437.988281 0)"/>
     <use xlink:href="#DejaVuSans-20" transform="translate(501.464844 0)"/>
     <use xlink:href="#DejaVuSans-4f" transform="translate(533.251953 0)"/>
     <use xlink:href="#DejaVuSans-62" transform="translate(611.962891 0)"/>
     <use xlink:href="#DejaVuSans-65" transform="translate(675.439453 0)"/>
     <use xlink:href="#DejaVuSans-73" transform="translate(736.962891 0)"/>
     <use xlink:href="#DejaVuSans-69" transform="translate(789.0625 0)"/>
     <use xlink:href="#DejaVuSans-74" transform="translate(816.845703 0)"/>
     <use xlink:href="#DejaVuSans-79" transform="translate(856.054688 0)"/>
     <use xlink:href="#DejaVuSans-20" transform="translate(915.234375 0)"/>
     <use xlink:href="#DejaVuSans-50" transform="translate(947.021484 0)"/>
     <use xlink:href="#DejaVuSans-72" transform="translate(1005.574219 0)"/>
     <use xlink:href="#DejaVuSans-65" transform="translate(1044.4375 0)"/>
     <use xlink:href="#DejaVuSans-76" transform="translate(1105.960938 0)"/>
     <use xlink:href="#DejaVuSans-65" transform="translate(1165.140625 0)"/>
     <use xlink:href="#DejaVuSans-6e" transform="translate(1226.664062 0)"/>
     <use xlink:href="#DejaVuSans-74" transform="translate(1290.042969 0)"/>
     <use xlink:href="#DejaVuSans-69" transform="translate(1329.251953 0)"/>
     <use xlink:href="#DejaVuSans-6f" transform="translate(1357.035156 0)"/>
     <use xlink:href="#DejaVuSans-6e" transform="translate(1418.216797 0)"/>
    </g>
   </g>
   <g id="line2d_67">
    <path d="M 775.849688 565.370625 
L 787.849688 565.370625 
L 799.849688 565.370625 
" style="fill: none; stroke: #9467bd; stroke-opacity: 0.8; stroke-width: 2; stroke-linecap: round"/>
   </g>
   <g id="text_40">
    <!-- Housing Insulation -->
    <g style="fill: #262626" transform="translate(809.449688 569.570625) scale(0.12 -0.12)">
     <use xlink:href="#DejaVuSans-48"/>
     <use xlink:href="#DejaVuSans-6f" transform="translate(75.195312 0)"/>
     <use xlink:href="#DejaVuSans-75" transform="translate(136.376953 0)"/>
     <use xlink:href="#DejaVuSans-73" transform="translate(199.755859 0)"/>
     <use xlink:href="#DejaVuSans-69" transform="translate(251.855469 0)"/>
     <use xlink:href="#DejaVuSans-6e" transform="translate(279.638672 0)"/>
     <use xlink:href="#DejaVuSans-67" transform="translate(343.017578 0)"/>
     <use xlink:href="#DejaVuSans-20" transform="translate(406.494141 0)"/>
     <use xlink:href="#DejaVuSans-49" transform="translate(438.28125 0)"/>
     <use xlink:href="#DejaVuSans-6e" transform="translate(467.773438 0)"/>
     <use xlink:href="#DejaVuSans-73" transform="translate(531.152344 0)"/>
     <use xlink:href="#DejaVuSans-75" transform="translate(583.251953 0)"/>
     <use xlink:href="#DejaVuSans-6c" transform="translate(646.630859 0)"/>
     <use xlink:href="#DejaVuSans-61" transform="translate(674.414062 0)"/>
     <use xlink:href="#DejaVuSans-74" transform="translate(735.693359 0)"/>
     <use xlink:href="#DejaVuSans-69" transform="translate(774.902344 0)"/>
     <use xlink:href="#DejaVuSans-6f" transform="translate(802.685547 0)"/>
     <use xlink:href="#DejaVuSans-6e" transform="translate(863.867188 0)"/>
    </g>
   </g>
  </g>
 </g>
 <defs>
  <clipPath id="p68ff80de5d">
   <rect x="48.579375" y="68.256" width="598.455" height="417.024"/>
  </clipPath>
  <clipPath id="pdd1c6d4488">
   <rect x="683.244375" y="68.256" width="598.455" height="417.024"/>
  </clipPath>
 </defs>
</svg>
